%TF.GenerationSoftware,KiCad,Pcbnew,7.0.6*%
%TF.CreationDate,2024-04-30T22:33:33+02:00*%
%TF.ProjectId,MatchboxV2_HC,4d617463-6862-46f7-9856-325f48432e6b,rev?*%
%TF.SameCoordinates,Original*%
%TF.FileFunction,Copper,L1,Top*%
%TF.FilePolarity,Positive*%
%FSLAX46Y46*%
G04 Gerber Fmt 4.6, Leading zero omitted, Abs format (unit mm)*
G04 Created by KiCad (PCBNEW 7.0.6) date 2024-04-30 22:33:33*
%MOMM*%
%LPD*%
G01*
G04 APERTURE LIST*
G04 Aperture macros list*
%AMRoundRect*
0 Rectangle with rounded corners*
0 $1 Rounding radius*
0 $2 $3 $4 $5 $6 $7 $8 $9 X,Y pos of 4 corners*
0 Add a 4 corners polygon primitive as box body*
4,1,4,$2,$3,$4,$5,$6,$7,$8,$9,$2,$3,0*
0 Add four circle primitives for the rounded corners*
1,1,$1+$1,$2,$3*
1,1,$1+$1,$4,$5*
1,1,$1+$1,$6,$7*
1,1,$1+$1,$8,$9*
0 Add four rect primitives between the rounded corners*
20,1,$1+$1,$2,$3,$4,$5,0*
20,1,$1+$1,$4,$5,$6,$7,0*
20,1,$1+$1,$6,$7,$8,$9,0*
20,1,$1+$1,$8,$9,$2,$3,0*%
G04 Aperture macros list end*
%TA.AperFunction,ComponentPad*%
%ADD10R,1.905000X2.000000*%
%TD*%
%TA.AperFunction,ComponentPad*%
%ADD11O,1.905000X2.000000*%
%TD*%
%TA.AperFunction,SMDPad,CuDef*%
%ADD12RoundRect,0.250000X-0.250000X-0.475000X0.250000X-0.475000X0.250000X0.475000X-0.250000X0.475000X0*%
%TD*%
%TA.AperFunction,SMDPad,CuDef*%
%ADD13RoundRect,0.250000X-0.450000X0.262500X-0.450000X-0.262500X0.450000X-0.262500X0.450000X0.262500X0*%
%TD*%
%TA.AperFunction,SMDPad,CuDef*%
%ADD14RoundRect,0.250000X-0.475000X0.250000X-0.475000X-0.250000X0.475000X-0.250000X0.475000X0.250000X0*%
%TD*%
%TA.AperFunction,SMDPad,CuDef*%
%ADD15RoundRect,0.250000X-0.262500X-0.450000X0.262500X-0.450000X0.262500X0.450000X-0.262500X0.450000X0*%
%TD*%
%TA.AperFunction,SMDPad,CuDef*%
%ADD16RoundRect,0.250000X0.787500X1.025000X-0.787500X1.025000X-0.787500X-1.025000X0.787500X-1.025000X0*%
%TD*%
%TA.AperFunction,ComponentPad*%
%ADD17R,2.400000X2.400000*%
%TD*%
%TA.AperFunction,ComponentPad*%
%ADD18C,2.400000*%
%TD*%
%TA.AperFunction,ComponentPad*%
%ADD19C,3.600000*%
%TD*%
%TA.AperFunction,ConnectorPad*%
%ADD20C,5.600000*%
%TD*%
%TA.AperFunction,ComponentPad*%
%ADD21R,3.500000X3.500000*%
%TD*%
%TA.AperFunction,ComponentPad*%
%ADD22RoundRect,0.750000X-0.750000X-1.000000X0.750000X-1.000000X0.750000X1.000000X-0.750000X1.000000X0*%
%TD*%
%TA.AperFunction,ComponentPad*%
%ADD23RoundRect,0.875000X-0.875000X-0.875000X0.875000X-0.875000X0.875000X0.875000X-0.875000X0.875000X0*%
%TD*%
%TA.AperFunction,SMDPad,CuDef*%
%ADD24RoundRect,0.250000X0.262500X0.450000X-0.262500X0.450000X-0.262500X-0.450000X0.262500X-0.450000X0*%
%TD*%
%TA.AperFunction,SMDPad,CuDef*%
%ADD25R,1.000000X2.500000*%
%TD*%
%TA.AperFunction,SMDPad,CuDef*%
%ADD26R,1.800000X1.000000*%
%TD*%
%TA.AperFunction,ComponentPad*%
%ADD27R,1.700000X1.700000*%
%TD*%
%TA.AperFunction,ComponentPad*%
%ADD28O,1.700000X1.700000*%
%TD*%
%TA.AperFunction,SMDPad,CuDef*%
%ADD29R,2.000000X1.500000*%
%TD*%
%TA.AperFunction,SMDPad,CuDef*%
%ADD30R,2.000000X3.800000*%
%TD*%
%TA.AperFunction,SMDPad,CuDef*%
%ADD31RoundRect,0.250000X0.450000X-0.262500X0.450000X0.262500X-0.450000X0.262500X-0.450000X-0.262500X0*%
%TD*%
%TA.AperFunction,ViaPad*%
%ADD32C,0.600000*%
%TD*%
%TA.AperFunction,ViaPad*%
%ADD33C,0.800000*%
%TD*%
%TA.AperFunction,Conductor*%
%ADD34C,0.250000*%
%TD*%
%TA.AperFunction,Conductor*%
%ADD35C,0.500000*%
%TD*%
%TA.AperFunction,Conductor*%
%ADD36C,1.000000*%
%TD*%
%TA.AperFunction,Conductor*%
%ADD37C,1.500000*%
%TD*%
G04 APERTURE END LIST*
D10*
%TO.P,Q2,1,G*%
%TO.N,/FET2*%
X149960000Y-82345000D03*
D11*
%TO.P,Q2,2,D*%
%TO.N,/RGB-G*%
X152500000Y-82345000D03*
%TO.P,Q2,3,S*%
%TO.N,/GND*%
X155040000Y-82345000D03*
%TD*%
D12*
%TO.P,C3,1*%
%TO.N,/3V3*%
X169450000Y-101400000D03*
%TO.P,C3,2*%
%TO.N,/GND*%
X171350000Y-101400000D03*
%TD*%
D13*
%TO.P,R1,1*%
%TO.N,/3V3*%
X140000000Y-97587500D03*
%TO.P,R1,2*%
%TO.N,/RST*%
X140000000Y-99412500D03*
%TD*%
D14*
%TO.P,C2,1*%
%TO.N,/VCC*%
X134800000Y-95950000D03*
%TO.P,C2,2*%
%TO.N,/GND*%
X134800000Y-97850000D03*
%TD*%
D15*
%TO.P,R7,1*%
%TO.N,/FET2*%
X150587500Y-85100000D03*
%TO.P,R7,2*%
%TO.N,/GND*%
X152412500Y-85100000D03*
%TD*%
D16*
%TO.P,C1,1*%
%TO.N,/VCC*%
X131712500Y-93300000D03*
%TO.P,C1,2*%
%TO.N,/GND*%
X125487500Y-93300000D03*
%TD*%
D17*
%TO.P,J4,1,Pin_1*%
%TO.N,/GND*%
X176000000Y-102400000D03*
D18*
%TO.P,J4,2,Pin_2*%
%TO.N,/3V3*%
X176000000Y-98900000D03*
%TO.P,J4,3,Pin_3*%
%TO.N,/IR*%
X176000000Y-95400000D03*
%TO.P,J4,4,Pin_4*%
%TO.N,/RGB-B*%
X176000000Y-91900000D03*
%TO.P,J4,5,Pin_5*%
%TO.N,/RGB-G*%
X176000000Y-88400000D03*
%TO.P,J4,6,Pin_6*%
%TO.N,/RGB-R*%
X176000000Y-84900000D03*
%TO.P,J4,7,Pin_7*%
%TO.N,/VCC*%
X176000000Y-81400000D03*
%TD*%
D10*
%TO.P,Q1,1,G*%
%TO.N,/FET1*%
X137560000Y-82345000D03*
D11*
%TO.P,Q1,2,D*%
%TO.N,/RGB-B*%
X140100000Y-82345000D03*
%TO.P,Q1,3,S*%
%TO.N,/GND*%
X142640000Y-82345000D03*
%TD*%
D19*
%TO.P,H1,1,1*%
%TO.N,/VCC*%
X120600000Y-92600000D03*
D20*
X120600000Y-92600000D03*
%TD*%
D21*
%TO.P,J3,1,Pin_1*%
%TO.N,/VCC*%
X131000000Y-83942500D03*
D22*
%TO.P,J3,2,Pin_2*%
%TO.N,/GND*%
X125000000Y-83942500D03*
D23*
%TO.P,J3,3,Pin_3*%
X128000000Y-88642500D03*
%TD*%
D24*
%TO.P,R4,1*%
%TO.N,Net-(U1-GPIO2)*%
X156312500Y-85100000D03*
%TO.P,R4,2*%
%TO.N,/3V3*%
X154487500Y-85100000D03*
%TD*%
D15*
%TO.P,R2,1*%
%TO.N,/3V3*%
X169487500Y-103600000D03*
%TO.P,R2,2*%
%TO.N,Net-(U1-EN)*%
X171312500Y-103600000D03*
%TD*%
D16*
%TO.P,C4,1*%
%TO.N,/3V3*%
X131712500Y-98200000D03*
%TO.P,C4,2*%
%TO.N,/GND*%
X125487500Y-98200000D03*
%TD*%
D12*
%TO.P,C5,1*%
%TO.N,/3V3*%
X137250000Y-95800000D03*
%TO.P,C5,2*%
%TO.N,/GND*%
X139150000Y-95800000D03*
%TD*%
D15*
%TO.P,R8,1*%
%TO.N,/FET3*%
X164087500Y-85100000D03*
%TO.P,R8,2*%
%TO.N,/GND*%
X165912500Y-85100000D03*
%TD*%
D25*
%TO.P,U1,1,~{RST}*%
%TO.N,/RST*%
X151500000Y-103200000D03*
%TO.P,U1,2,ADC*%
%TO.N,unconnected-(U1-ADC-Pad2)*%
X153500000Y-103200000D03*
%TO.P,U1,3,EN*%
%TO.N,Net-(U1-EN)*%
X155500000Y-103200000D03*
%TO.P,U1,4,GPIO16*%
%TO.N,unconnected-(U1-GPIO16-Pad4)*%
X157500000Y-103200000D03*
%TO.P,U1,5,GPIO14*%
%TO.N,/FET3*%
X159500000Y-103200000D03*
%TO.P,U1,6,GPIO12*%
%TO.N,/FET1*%
X161500000Y-103200000D03*
%TO.P,U1,7,GPIO13*%
%TO.N,/FET2*%
X163500000Y-103200000D03*
%TO.P,U1,8,VCC*%
%TO.N,/3V3*%
X165500000Y-103200000D03*
D26*
%TO.P,U1,9,CS0*%
%TO.N,unconnected-(U1-CS0-Pad9)*%
X167000000Y-100600000D03*
%TO.P,U1,10,MISO*%
%TO.N,unconnected-(U1-MISO-Pad10)*%
X167000000Y-98600000D03*
%TO.P,U1,11,GPIO9*%
%TO.N,unconnected-(U1-GPIO9-Pad11)*%
X167000000Y-96600000D03*
%TO.P,U1,12,GPIO10*%
%TO.N,unconnected-(U1-GPIO10-Pad12)*%
X167000000Y-94600000D03*
%TO.P,U1,13,MOSI*%
%TO.N,unconnected-(U1-MOSI-Pad13)*%
X167000000Y-92600000D03*
%TO.P,U1,14,SCLK*%
%TO.N,unconnected-(U1-SCLK-Pad14)*%
X167000000Y-90600000D03*
D25*
%TO.P,U1,15,GND*%
%TO.N,/GND*%
X165500000Y-88000000D03*
%TO.P,U1,16,GPIO15*%
%TO.N,Net-(U1-GPIO15)*%
X163500000Y-88000000D03*
%TO.P,U1,17,GPIO2*%
%TO.N,Net-(U1-GPIO2)*%
X161500000Y-88000000D03*
%TO.P,U1,18,GPIO0*%
%TO.N,/FLS*%
X159500000Y-88000000D03*
%TO.P,U1,19,GPIO4*%
%TO.N,/IR*%
X157500000Y-88000000D03*
%TO.P,U1,20,GPIO5*%
%TO.N,unconnected-(U1-GPIO5-Pad20)*%
X155500000Y-88000000D03*
%TO.P,U1,21,GPIO3/RXD*%
%TO.N,/RX*%
X153500000Y-88000000D03*
%TO.P,U1,22,GPIO1/TXD*%
%TO.N,/TX*%
X151500000Y-88000000D03*
%TD*%
D27*
%TO.P,J1,1,Pin_1*%
%TO.N,/3V3*%
X127250000Y-102600000D03*
D28*
%TO.P,J1,2,Pin_2*%
%TO.N,/GND*%
X129790000Y-102600000D03*
%TO.P,J1,3,Pin_3*%
%TO.N,/RX*%
X132330000Y-102600000D03*
%TO.P,J1,4,Pin_4*%
%TO.N,/TX*%
X134870000Y-102600000D03*
%TO.P,J1,5,Pin_5*%
%TO.N,/FLS*%
X137410000Y-102600000D03*
%TO.P,J1,6,Pin_6*%
%TO.N,/RST*%
X139950000Y-102600000D03*
%TD*%
D24*
%TO.P,R5,1*%
%TO.N,Net-(U1-GPIO15)*%
X160112500Y-85100000D03*
%TO.P,R5,2*%
%TO.N,/GND*%
X158287500Y-85100000D03*
%TD*%
D29*
%TO.P,U3,1,VI*%
%TO.N,/VCC*%
X134950000Y-88700000D03*
%TO.P,U3,2,GND*%
%TO.N,/GND*%
X134950000Y-91000000D03*
D30*
X141250000Y-91000000D03*
D29*
%TO.P,U3,3,VO*%
%TO.N,/3V3*%
X134950000Y-93300000D03*
%TD*%
D19*
%TO.P,H2,1,1*%
%TO.N,/GND*%
X120600000Y-100900000D03*
D20*
X120600000Y-100900000D03*
%TD*%
D31*
%TO.P,R3,1*%
%TO.N,/FLS*%
X137400000Y-99412500D03*
%TO.P,R3,2*%
%TO.N,/3V3*%
X137400000Y-97587500D03*
%TD*%
D10*
%TO.P,Q3,1,G*%
%TO.N,/FET3*%
X162400000Y-82300000D03*
D11*
%TO.P,Q3,2,D*%
%TO.N,/RGB-R*%
X164940000Y-82300000D03*
%TO.P,Q3,3,S*%
%TO.N,/GND*%
X167480000Y-82300000D03*
%TD*%
D15*
%TO.P,R6,1*%
%TO.N,/FET1*%
X137387500Y-85100000D03*
%TO.P,R6,2*%
%TO.N,/GND*%
X139212500Y-85100000D03*
%TD*%
D32*
%TO.N,/GND*%
X133500000Y-97800000D03*
D33*
%TO.N,/3V3*%
X165500000Y-102500000D03*
X155700000Y-91000000D03*
X160500000Y-101000000D03*
X152700000Y-100400000D03*
%TO.N,/RX*%
X153500000Y-88000000D03*
%TO.N,/TX*%
X151500000Y-87800000D03*
%TO.N,/FLS*%
X159400000Y-91400000D03*
%TO.N,/VCC*%
X129200000Y-94300000D03*
%TO.N,Net-(U1-EN)*%
X171300000Y-103600000D03*
X155500000Y-103500000D03*
%TO.N,/FET3*%
X161300000Y-96100000D03*
X159500000Y-102400000D03*
%TD*%
D34*
%TO.N,/GND*%
X155000000Y-82400000D02*
X155040000Y-82400000D01*
X152412500Y-84887500D02*
X152412500Y-85100000D01*
X155040000Y-82400000D02*
X154900000Y-82400000D01*
X152412500Y-85100000D02*
X152412500Y-84987500D01*
X154900000Y-82400000D02*
X152412500Y-84887500D01*
D35*
%TO.N,/3V3*%
X137400000Y-97587500D02*
X133787500Y-101200000D01*
X131900000Y-101200000D02*
X127500000Y-101200000D01*
X133787500Y-101200000D02*
X131900000Y-101200000D01*
X136500000Y-93300000D02*
X134950000Y-93300000D01*
X137350000Y-95800000D02*
X137250000Y-95700000D01*
X137250000Y-95700000D02*
X137250000Y-94050000D01*
X159900000Y-100400000D02*
X160500000Y-101000000D01*
X169450000Y-99950000D02*
X170500000Y-98900000D01*
X137400000Y-97587500D02*
X140000000Y-97587500D01*
X150350000Y-104000000D02*
X150550000Y-103800000D01*
X152700000Y-100400000D02*
X159900000Y-100400000D01*
X169450000Y-101400000D02*
X169450000Y-103562500D01*
X165500000Y-103200000D02*
X166900000Y-103200000D01*
D34*
X169450000Y-103562500D02*
X169487500Y-103600000D01*
X154487500Y-85100000D02*
X154487500Y-89787500D01*
D35*
X166900000Y-103200000D02*
X168200000Y-101900000D01*
X134600000Y-93350000D02*
X134650000Y-93300000D01*
X137250000Y-94050000D02*
X136500000Y-93300000D01*
X150550000Y-103800000D02*
X150550000Y-101500000D01*
D34*
X168950000Y-101900000D02*
X169450000Y-101400000D01*
X154487500Y-89787500D02*
X155700000Y-91000000D01*
D35*
X151650000Y-100400000D02*
X152700000Y-100400000D01*
X168200000Y-101900000D02*
X168950000Y-101900000D01*
X140000000Y-97587500D02*
X142200000Y-99787500D01*
X150550000Y-101500000D02*
X151650000Y-100400000D01*
X169450000Y-101400000D02*
X169450000Y-99950000D01*
X142500000Y-104000000D02*
X150350000Y-104000000D01*
X127500000Y-101200000D02*
X127250000Y-101450000D01*
X142200000Y-99787500D02*
X142200000Y-103700000D01*
X170500000Y-98900000D02*
X176000000Y-98900000D01*
X142200000Y-103700000D02*
X142500000Y-104000000D01*
X131900000Y-101200000D02*
X131900000Y-98387500D01*
X131900000Y-98387500D02*
X131712500Y-98200000D01*
X127250000Y-101450000D02*
X127250000Y-102300000D01*
D34*
%TO.N,/FLS*%
X159500000Y-91300000D02*
X159500000Y-88000000D01*
X159400000Y-91400000D02*
X159500000Y-91300000D01*
X137400000Y-99412500D02*
X137410000Y-99422500D01*
X137410000Y-99422500D02*
X137410000Y-102300000D01*
%TO.N,/RST*%
X139950000Y-102300000D02*
X139950000Y-103150000D01*
X140000000Y-99412500D02*
X139950000Y-99462500D01*
X151500000Y-104500000D02*
X151500000Y-103200000D01*
X151400000Y-104600000D02*
X151500000Y-104500000D01*
X141400000Y-104600000D02*
X151400000Y-104600000D01*
X139950000Y-99462500D02*
X139950000Y-102300000D01*
X139950000Y-103150000D02*
X141400000Y-104600000D01*
%TO.N,/IR*%
X163175000Y-96825000D02*
X160325000Y-96825000D01*
X160325000Y-96825000D02*
X157500000Y-94000000D01*
X175800000Y-95600000D02*
X164400000Y-95600000D01*
X176000000Y-95400000D02*
X175800000Y-95600000D01*
X164400000Y-95600000D02*
X163175000Y-96825000D01*
X157500000Y-94000000D02*
X157500000Y-88000000D01*
D36*
%TO.N,/VCC*%
X131700000Y-90000000D02*
X131700000Y-93287500D01*
X134650000Y-88700000D02*
X133000000Y-88700000D01*
X133000000Y-88700000D02*
X131700000Y-90000000D01*
X132950000Y-95950000D02*
X134800000Y-95950000D01*
X131700000Y-93287500D02*
X131712500Y-93300000D01*
D37*
X131000000Y-83942500D02*
X132642500Y-83942500D01*
D36*
X131712500Y-93300000D02*
X131712500Y-94712500D01*
D37*
X132642500Y-83942500D02*
X134700000Y-86000000D01*
D36*
X131712500Y-94712500D02*
X132950000Y-95950000D01*
D37*
X134700000Y-86000000D02*
X134700000Y-88650000D01*
D34*
X131550000Y-89850000D02*
X132000000Y-89850000D01*
%TO.N,Net-(U1-EN)*%
X155500000Y-103500000D02*
X155500000Y-103200000D01*
%TO.N,Net-(U1-GPIO2)*%
X161500000Y-87600000D02*
X161500000Y-88000000D01*
X157512500Y-86300000D02*
X160200000Y-86300000D01*
X160200000Y-86300000D02*
X161500000Y-87600000D01*
X156312500Y-85100000D02*
X157512500Y-86300000D01*
%TO.N,Net-(U1-GPIO15)*%
X163500000Y-87200000D02*
X163500000Y-88000000D01*
X162425000Y-86125000D02*
X163500000Y-87200000D01*
X161137500Y-86125000D02*
X162425000Y-86125000D01*
X160112500Y-85100000D02*
X161137500Y-86125000D01*
%TO.N,/FET1*%
X161500000Y-100974695D02*
X150500000Y-89974695D01*
X161500000Y-103200000D02*
X161500000Y-100974695D01*
X138412500Y-86425000D02*
X137387500Y-85400000D01*
X137387500Y-85400000D02*
X137460000Y-85327500D01*
X149625000Y-86425000D02*
X138412500Y-86425000D01*
X137460000Y-85327500D02*
X137460000Y-82400000D01*
X150500000Y-87300000D02*
X149625000Y-86425000D01*
X150500000Y-89974695D02*
X150500000Y-87300000D01*
%TO.N,/FET2*%
X151912500Y-86425000D02*
X150587500Y-85100000D01*
X152600000Y-91438299D02*
X152600000Y-86700000D01*
X152600000Y-86700000D02*
X152325000Y-86425000D01*
X163500000Y-103200000D02*
X163500000Y-102338299D01*
X149960000Y-84472500D02*
X149960000Y-82400000D01*
X163500000Y-102338299D02*
X152600000Y-91438299D01*
X150587500Y-85100000D02*
X149960000Y-84472500D01*
X152325000Y-86425000D02*
X151912500Y-86425000D01*
%TO.N,/FET3*%
X164500000Y-86200000D02*
X164087500Y-85787500D01*
X161300000Y-96100000D02*
X164500000Y-92900000D01*
X164087500Y-85787500D02*
X164087500Y-85100000D01*
X162460000Y-82400000D02*
X162460000Y-84460000D01*
X164500000Y-92900000D02*
X164500000Y-86200000D01*
X163100000Y-85100000D02*
X164087500Y-85100000D01*
X162460000Y-84460000D02*
X163100000Y-85100000D01*
%TD*%
%TA.AperFunction,Conductor*%
%TO.N,/GND*%
G36*
X181042539Y-79020185D02*
G01*
X181088294Y-79072989D01*
X181099500Y-79124500D01*
X181099500Y-104675500D01*
X181079815Y-104742539D01*
X181027011Y-104788294D01*
X180975500Y-104799500D01*
X172186230Y-104799500D01*
X172119191Y-104779815D01*
X172073436Y-104727011D01*
X172063492Y-104657853D01*
X172092517Y-104594297D01*
X172098549Y-104587819D01*
X172128886Y-104557482D01*
X172167712Y-104518656D01*
X172259814Y-104369334D01*
X172314999Y-104202797D01*
X172325500Y-104100009D01*
X172325499Y-103099992D01*
X172324333Y-103088581D01*
X172314999Y-102997203D01*
X172314998Y-102997200D01*
X172304198Y-102964607D01*
X172259814Y-102830666D01*
X172167712Y-102681344D01*
X172098695Y-102612326D01*
X172065210Y-102551004D01*
X172070194Y-102481312D01*
X172098695Y-102436964D01*
X172192317Y-102343342D01*
X172284356Y-102194124D01*
X172284358Y-102194119D01*
X172339505Y-102027697D01*
X172339506Y-102027690D01*
X172349999Y-101924986D01*
X172350000Y-101924973D01*
X172350000Y-101650000D01*
X171224000Y-101650000D01*
X171156961Y-101630315D01*
X171111206Y-101577511D01*
X171100000Y-101526000D01*
X171100000Y-100175000D01*
X171600000Y-100175000D01*
X171600000Y-101150000D01*
X172349999Y-101150000D01*
X172349999Y-100875028D01*
X172349998Y-100875013D01*
X172339505Y-100772302D01*
X172284358Y-100605880D01*
X172284356Y-100605875D01*
X172192315Y-100456654D01*
X172068345Y-100332684D01*
X171919124Y-100240643D01*
X171919119Y-100240641D01*
X171752697Y-100185494D01*
X171752690Y-100185493D01*
X171649986Y-100175000D01*
X171600000Y-100175000D01*
X171100000Y-100175000D01*
X171099999Y-100174999D01*
X171050029Y-100175000D01*
X171050011Y-100175001D01*
X170947302Y-100185494D01*
X170780880Y-100240641D01*
X170780875Y-100240643D01*
X170631654Y-100332684D01*
X170507683Y-100456655D01*
X170507681Y-100456658D01*
X170505829Y-100459661D01*
X170504021Y-100461286D01*
X170503202Y-100462323D01*
X170503024Y-100462182D01*
X170453880Y-100506383D01*
X170384917Y-100517603D01*
X170320836Y-100489757D01*
X170294755Y-100459656D01*
X170292712Y-100456344D01*
X170266183Y-100429815D01*
X170236817Y-100400448D01*
X170203333Y-100339124D01*
X170200499Y-100312771D01*
X170200499Y-100312226D01*
X170220184Y-100245189D01*
X170236813Y-100224552D01*
X170774547Y-99686819D01*
X170835871Y-99653334D01*
X170862229Y-99650500D01*
X174398142Y-99650500D01*
X174465181Y-99670185D01*
X174505529Y-99712500D01*
X174512609Y-99724763D01*
X174591041Y-99860612D01*
X174749950Y-100059877D01*
X174936783Y-100233232D01*
X175147366Y-100376805D01*
X175320126Y-100460002D01*
X175329010Y-100464280D01*
X175380869Y-100511102D01*
X175399182Y-100578529D01*
X175378134Y-100645153D01*
X175324408Y-100689822D01*
X175275208Y-100700000D01*
X174752155Y-100700000D01*
X174692627Y-100706401D01*
X174692620Y-100706403D01*
X174557913Y-100756645D01*
X174557906Y-100756649D01*
X174442812Y-100842809D01*
X174442809Y-100842812D01*
X174356649Y-100957906D01*
X174356645Y-100957913D01*
X174306403Y-101092620D01*
X174306401Y-101092627D01*
X174300000Y-101152155D01*
X174300000Y-102150000D01*
X175454118Y-102150000D01*
X175415444Y-102243369D01*
X175394823Y-102400000D01*
X175415444Y-102556631D01*
X175454118Y-102650000D01*
X174300000Y-102650000D01*
X174300000Y-103647844D01*
X174306401Y-103707372D01*
X174306403Y-103707379D01*
X174356645Y-103842086D01*
X174356649Y-103842093D01*
X174442809Y-103957187D01*
X174442812Y-103957190D01*
X174557906Y-104043350D01*
X174557913Y-104043354D01*
X174692620Y-104093596D01*
X174692627Y-104093598D01*
X174752155Y-104099999D01*
X174752172Y-104100000D01*
X175750000Y-104100000D01*
X175750000Y-102945881D01*
X175843369Y-102984556D01*
X175960677Y-103000000D01*
X176039323Y-103000000D01*
X176156631Y-102984556D01*
X176249999Y-102945881D01*
X176250000Y-104100000D01*
X177247828Y-104100000D01*
X177247844Y-104099999D01*
X177307372Y-104093598D01*
X177307379Y-104093596D01*
X177442086Y-104043354D01*
X177442093Y-104043350D01*
X177557187Y-103957190D01*
X177557190Y-103957187D01*
X177643350Y-103842093D01*
X177643354Y-103842086D01*
X177693596Y-103707379D01*
X177693598Y-103707372D01*
X177699999Y-103647844D01*
X177700000Y-103647827D01*
X177700000Y-102650000D01*
X176545882Y-102650000D01*
X176584556Y-102556631D01*
X176605177Y-102400000D01*
X176584556Y-102243369D01*
X176545882Y-102150000D01*
X177700000Y-102150000D01*
X177700000Y-101152172D01*
X177699999Y-101152155D01*
X177693598Y-101092627D01*
X177693596Y-101092620D01*
X177643354Y-100957913D01*
X177643350Y-100957906D01*
X177557190Y-100842812D01*
X177557187Y-100842809D01*
X177442093Y-100756649D01*
X177442086Y-100756645D01*
X177307379Y-100706403D01*
X177307372Y-100706401D01*
X177247844Y-100700000D01*
X176724792Y-100700000D01*
X176657753Y-100680315D01*
X176611998Y-100627511D01*
X176602054Y-100558353D01*
X176631079Y-100494797D01*
X176670990Y-100464280D01*
X176677207Y-100461286D01*
X176852634Y-100376805D01*
X177063217Y-100233232D01*
X177250050Y-100059877D01*
X177408959Y-99860612D01*
X177536393Y-99639888D01*
X177629508Y-99402637D01*
X177686222Y-99154157D01*
X177705268Y-98900000D01*
X177705267Y-98899993D01*
X177691663Y-98718459D01*
X177686222Y-98645843D01*
X177629508Y-98397363D01*
X177536393Y-98160112D01*
X177408959Y-97939388D01*
X177250050Y-97740123D01*
X177063217Y-97566768D01*
X176852634Y-97423195D01*
X176852630Y-97423193D01*
X176852627Y-97423191D01*
X176852626Y-97423190D01*
X176623006Y-97312612D01*
X176623008Y-97312612D01*
X176528875Y-97283576D01*
X176479969Y-97268490D01*
X176421711Y-97229921D01*
X176393553Y-97165976D01*
X176404437Y-97096959D01*
X176450906Y-97044782D01*
X176479970Y-97031509D01*
X176623004Y-96987389D01*
X176852634Y-96876805D01*
X177063217Y-96733232D01*
X177250050Y-96559877D01*
X177408959Y-96360612D01*
X177536393Y-96139888D01*
X177629508Y-95902637D01*
X177686222Y-95654157D01*
X177698789Y-95486455D01*
X177705268Y-95400004D01*
X177705268Y-95399995D01*
X177688641Y-95178124D01*
X177686222Y-95145843D01*
X177629508Y-94897363D01*
X177536393Y-94660112D01*
X177408959Y-94439388D01*
X177250050Y-94240123D01*
X177063217Y-94066768D01*
X176852634Y-93923195D01*
X176852630Y-93923193D01*
X176852627Y-93923191D01*
X176852626Y-93923190D01*
X176623006Y-93812612D01*
X176623008Y-93812612D01*
X176479970Y-93768491D01*
X176421711Y-93729921D01*
X176393553Y-93665976D01*
X176404437Y-93596959D01*
X176450906Y-93544782D01*
X176479970Y-93531509D01*
X176623004Y-93487389D01*
X176852634Y-93376805D01*
X177063217Y-93233232D01*
X177250050Y-93059877D01*
X177408959Y-92860612D01*
X177536393Y-92639888D01*
X177629508Y-92402637D01*
X177686222Y-92154157D01*
X177698367Y-91992086D01*
X177705268Y-91900004D01*
X177705268Y-91899995D01*
X177686222Y-91645845D01*
X177675758Y-91600000D01*
X177629508Y-91397363D01*
X177536393Y-91160112D01*
X177408959Y-90939388D01*
X177250050Y-90740123D01*
X177063217Y-90566768D01*
X176852634Y-90423195D01*
X176852630Y-90423193D01*
X176852627Y-90423191D01*
X176852626Y-90423190D01*
X176623006Y-90312612D01*
X176623008Y-90312612D01*
X176479970Y-90268491D01*
X176421711Y-90229921D01*
X176393553Y-90165976D01*
X176404437Y-90096959D01*
X176450906Y-90044782D01*
X176479970Y-90031509D01*
X176623004Y-89987389D01*
X176817352Y-89893796D01*
X176852626Y-89876809D01*
X176852626Y-89876808D01*
X176852634Y-89876805D01*
X177063217Y-89733232D01*
X177250050Y-89559877D01*
X177408959Y-89360612D01*
X177536393Y-89139888D01*
X177629508Y-88902637D01*
X177686222Y-88654157D01*
X177705268Y-88400000D01*
X177686222Y-88145843D01*
X177629508Y-87897363D01*
X177536393Y-87660112D01*
X177408959Y-87439388D01*
X177250050Y-87240123D01*
X177063217Y-87066768D01*
X176852634Y-86923195D01*
X176852630Y-86923193D01*
X176852627Y-86923191D01*
X176852626Y-86923190D01*
X176623006Y-86812612D01*
X176623008Y-86812612D01*
X176479970Y-86768491D01*
X176421711Y-86729921D01*
X176393553Y-86665976D01*
X176404437Y-86596959D01*
X176450906Y-86544782D01*
X176479970Y-86531509D01*
X176623004Y-86487389D01*
X176852634Y-86376805D01*
X177063217Y-86233232D01*
X177250050Y-86059877D01*
X177408959Y-85860612D01*
X177536393Y-85639888D01*
X177629508Y-85402637D01*
X177686222Y-85154157D01*
X177699903Y-84971590D01*
X177705268Y-84900004D01*
X177705268Y-84899995D01*
X177688432Y-84675337D01*
X177686222Y-84645843D01*
X177629508Y-84397363D01*
X177536393Y-84160112D01*
X177408959Y-83939388D01*
X177250050Y-83740123D01*
X177063217Y-83566768D01*
X176852634Y-83423195D01*
X176852630Y-83423193D01*
X176852627Y-83423191D01*
X176852626Y-83423190D01*
X176623006Y-83312612D01*
X176623008Y-83312612D01*
X176479970Y-83268491D01*
X176421711Y-83229921D01*
X176393553Y-83165976D01*
X176404437Y-83096959D01*
X176450906Y-83044782D01*
X176479970Y-83031509D01*
X176623004Y-82987389D01*
X176834905Y-82885343D01*
X176852626Y-82876809D01*
X176852626Y-82876808D01*
X176852634Y-82876805D01*
X177063217Y-82733232D01*
X177250050Y-82559877D01*
X177408959Y-82360612D01*
X177536393Y-82139888D01*
X177629508Y-81902637D01*
X177686222Y-81654157D01*
X177703264Y-81426745D01*
X177705268Y-81400004D01*
X177705268Y-81399995D01*
X177691290Y-81213475D01*
X177686222Y-81145843D01*
X177629508Y-80897363D01*
X177536393Y-80660112D01*
X177408959Y-80439388D01*
X177250050Y-80240123D01*
X177063217Y-80066768D01*
X176852634Y-79923195D01*
X176852630Y-79923193D01*
X176852627Y-79923191D01*
X176852626Y-79923190D01*
X176623006Y-79812612D01*
X176623008Y-79812612D01*
X176379466Y-79737489D01*
X176379462Y-79737488D01*
X176379458Y-79737487D01*
X176258231Y-79719214D01*
X176127440Y-79699500D01*
X176127435Y-79699500D01*
X175872565Y-79699500D01*
X175872559Y-79699500D01*
X175715609Y-79723157D01*
X175620542Y-79737487D01*
X175620538Y-79737488D01*
X175620539Y-79737488D01*
X175620533Y-79737489D01*
X175376992Y-79812612D01*
X175147373Y-79923190D01*
X175147372Y-79923191D01*
X174936782Y-80066768D01*
X174749952Y-80240121D01*
X174749950Y-80240123D01*
X174591041Y-80439388D01*
X174463608Y-80660109D01*
X174370492Y-80897362D01*
X174370490Y-80897369D01*
X174313777Y-81145845D01*
X174294732Y-81399995D01*
X174294732Y-81400004D01*
X174313777Y-81654154D01*
X174358689Y-81850928D01*
X174370492Y-81902637D01*
X174462930Y-82138164D01*
X174463608Y-82139890D01*
X174466344Y-82144629D01*
X174591041Y-82360612D01*
X174749950Y-82559877D01*
X174936783Y-82733232D01*
X175147366Y-82876805D01*
X175147371Y-82876807D01*
X175147372Y-82876808D01*
X175147373Y-82876809D01*
X175251049Y-82926736D01*
X175376992Y-82987387D01*
X175376993Y-82987387D01*
X175376996Y-82987389D01*
X175478011Y-83018548D01*
X175520029Y-83031509D01*
X175578288Y-83070080D01*
X175606446Y-83134024D01*
X175595562Y-83203041D01*
X175549093Y-83255218D01*
X175520029Y-83268491D01*
X175376992Y-83312612D01*
X175147373Y-83423190D01*
X175147372Y-83423191D01*
X174936782Y-83566768D01*
X174749952Y-83740121D01*
X174749950Y-83740123D01*
X174591041Y-83939388D01*
X174463608Y-84160109D01*
X174370492Y-84397362D01*
X174370490Y-84397369D01*
X174313777Y-84645845D01*
X174294732Y-84899995D01*
X174294732Y-84900004D01*
X174313777Y-85154154D01*
X174365412Y-85380383D01*
X174370492Y-85402637D01*
X174463607Y-85639888D01*
X174591041Y-85860612D01*
X174749950Y-86059877D01*
X174936783Y-86233232D01*
X175147366Y-86376805D01*
X175147371Y-86376807D01*
X175147372Y-86376808D01*
X175147373Y-86376809D01*
X175269328Y-86435538D01*
X175376992Y-86487387D01*
X175376993Y-86487387D01*
X175376996Y-86487389D01*
X175476147Y-86517973D01*
X175520029Y-86531509D01*
X175578288Y-86570080D01*
X175606446Y-86634024D01*
X175595562Y-86703041D01*
X175549093Y-86755218D01*
X175520029Y-86768491D01*
X175376992Y-86812612D01*
X175147373Y-86923190D01*
X175147372Y-86923191D01*
X174936782Y-87066768D01*
X174749952Y-87240121D01*
X174749950Y-87240123D01*
X174591041Y-87439388D01*
X174463608Y-87660109D01*
X174370492Y-87897362D01*
X174370490Y-87897369D01*
X174313777Y-88145845D01*
X174294732Y-88399995D01*
X174294732Y-88400004D01*
X174313777Y-88654154D01*
X174360171Y-88857420D01*
X174370492Y-88902637D01*
X174463607Y-89139888D01*
X174591041Y-89360612D01*
X174749950Y-89559877D01*
X174936783Y-89733232D01*
X175147366Y-89876805D01*
X175147371Y-89876807D01*
X175147372Y-89876808D01*
X175147373Y-89876809D01*
X175226124Y-89914733D01*
X175376996Y-89987389D01*
X175520029Y-90031508D01*
X175578287Y-90070078D01*
X175606445Y-90134023D01*
X175595562Y-90203039D01*
X175549094Y-90255216D01*
X175520030Y-90268490D01*
X175376990Y-90312613D01*
X175147373Y-90423190D01*
X175147372Y-90423191D01*
X174936782Y-90566768D01*
X174749952Y-90740121D01*
X174749950Y-90740123D01*
X174591041Y-90939388D01*
X174463608Y-91160109D01*
X174370492Y-91397362D01*
X174370490Y-91397369D01*
X174313777Y-91645845D01*
X174294732Y-91899995D01*
X174294732Y-91900004D01*
X174313777Y-92154154D01*
X174361988Y-92365381D01*
X174370492Y-92402637D01*
X174443849Y-92589547D01*
X174463608Y-92639890D01*
X174477949Y-92664729D01*
X174591041Y-92860612D01*
X174749950Y-93059877D01*
X174936783Y-93233232D01*
X175147366Y-93376805D01*
X175147371Y-93376807D01*
X175147372Y-93376808D01*
X175147373Y-93376809D01*
X175269328Y-93435538D01*
X175376992Y-93487387D01*
X175376993Y-93487387D01*
X175376996Y-93487389D01*
X175455532Y-93511614D01*
X175520029Y-93531509D01*
X175578288Y-93570080D01*
X175606446Y-93634024D01*
X175595562Y-93703041D01*
X175549093Y-93755218D01*
X175520029Y-93768491D01*
X175376992Y-93812612D01*
X175147373Y-93923190D01*
X175147372Y-93923191D01*
X175147366Y-93923194D01*
X175147366Y-93923195D01*
X175134868Y-93931716D01*
X174936782Y-94066768D01*
X174749952Y-94240121D01*
X174749950Y-94240123D01*
X174591041Y-94439388D01*
X174463608Y-94660109D01*
X174371104Y-94895803D01*
X174328288Y-94951016D01*
X174262418Y-94974317D01*
X174255676Y-94974500D01*
X168524500Y-94974500D01*
X168457461Y-94954815D01*
X168411706Y-94902011D01*
X168400500Y-94850500D01*
X168400499Y-94052129D01*
X168400498Y-94052123D01*
X168400497Y-94052116D01*
X168394091Y-93992517D01*
X168392364Y-93987888D01*
X168343797Y-93857671D01*
X168343793Y-93857664D01*
X168257547Y-93742456D01*
X168257548Y-93742456D01*
X168257546Y-93742454D01*
X168199854Y-93699265D01*
X168157984Y-93643333D01*
X168153000Y-93573641D01*
X168186485Y-93512318D01*
X168199854Y-93500734D01*
X168257546Y-93457546D01*
X168343796Y-93342331D01*
X168394091Y-93207483D01*
X168400500Y-93147873D01*
X168400499Y-92052128D01*
X168394091Y-91992517D01*
X168393931Y-91992089D01*
X168343797Y-91857671D01*
X168343793Y-91857664D01*
X168257547Y-91742456D01*
X168257548Y-91742456D01*
X168257546Y-91742454D01*
X168199854Y-91699265D01*
X168157984Y-91643333D01*
X168153000Y-91573641D01*
X168186485Y-91512318D01*
X168199854Y-91500734D01*
X168257546Y-91457546D01*
X168343796Y-91342331D01*
X168394091Y-91207483D01*
X168400500Y-91147873D01*
X168400499Y-90052128D01*
X168394091Y-89992517D01*
X168392264Y-89987619D01*
X168343797Y-89857671D01*
X168343793Y-89857664D01*
X168257547Y-89742455D01*
X168257544Y-89742452D01*
X168142335Y-89656206D01*
X168142328Y-89656202D01*
X168007482Y-89605908D01*
X168007483Y-89605908D01*
X167947883Y-89599501D01*
X167947881Y-89599500D01*
X167947873Y-89599500D01*
X167947865Y-89599500D01*
X166581884Y-89599500D01*
X166514845Y-89579815D01*
X166469090Y-89527011D01*
X166459146Y-89457853D01*
X166465703Y-89432166D01*
X166493595Y-89357383D01*
X166493598Y-89357372D01*
X166499999Y-89297844D01*
X166500000Y-89297827D01*
X166500000Y-88250000D01*
X165750000Y-88250000D01*
X165750000Y-89691102D01*
X165730315Y-89758141D01*
X165725267Y-89765413D01*
X165656203Y-89857669D01*
X165656202Y-89857671D01*
X165605908Y-89992517D01*
X165599501Y-90052116D01*
X165599501Y-90052123D01*
X165599500Y-90052135D01*
X165599500Y-91147870D01*
X165599501Y-91147876D01*
X165605908Y-91207483D01*
X165656202Y-91342328D01*
X165656206Y-91342335D01*
X165742452Y-91457544D01*
X165742453Y-91457544D01*
X165742454Y-91457546D01*
X165747425Y-91461267D01*
X165800145Y-91500734D01*
X165842015Y-91556668D01*
X165846999Y-91626360D01*
X165813513Y-91687683D01*
X165800145Y-91699266D01*
X165742452Y-91742455D01*
X165656206Y-91857664D01*
X165656202Y-91857671D01*
X165605908Y-91992517D01*
X165599782Y-92049500D01*
X165599501Y-92052123D01*
X165599500Y-92052135D01*
X165599500Y-93147870D01*
X165599501Y-93147876D01*
X165605908Y-93207483D01*
X165656202Y-93342328D01*
X165656206Y-93342335D01*
X165742452Y-93457544D01*
X165742453Y-93457544D01*
X165742454Y-93457546D01*
X165771615Y-93479376D01*
X165800145Y-93500734D01*
X165842015Y-93556668D01*
X165846999Y-93626360D01*
X165813513Y-93687683D01*
X165800145Y-93699266D01*
X165742452Y-93742455D01*
X165656206Y-93857664D01*
X165656202Y-93857671D01*
X165605908Y-93992517D01*
X165600134Y-94046231D01*
X165599500Y-94052127D01*
X165599500Y-94511571D01*
X165599501Y-94850500D01*
X165579817Y-94917539D01*
X165527013Y-94963294D01*
X165475501Y-94974500D01*
X164482743Y-94974500D01*
X164467122Y-94972775D01*
X164467095Y-94973061D01*
X164459333Y-94972326D01*
X164390172Y-94974500D01*
X164360649Y-94974500D01*
X164353778Y-94975367D01*
X164347959Y-94975825D01*
X164301374Y-94977289D01*
X164301368Y-94977290D01*
X164282126Y-94982880D01*
X164263087Y-94986823D01*
X164243217Y-94989334D01*
X164243203Y-94989337D01*
X164199883Y-95006488D01*
X164194358Y-95008380D01*
X164149613Y-95021380D01*
X164149610Y-95021381D01*
X164132366Y-95031579D01*
X164114905Y-95040133D01*
X164096274Y-95047510D01*
X164096262Y-95047517D01*
X164058570Y-95074902D01*
X164053687Y-95078109D01*
X164013580Y-95101829D01*
X163999414Y-95115995D01*
X163984624Y-95128627D01*
X163968414Y-95140404D01*
X163968411Y-95140407D01*
X163938710Y-95176309D01*
X163934777Y-95180631D01*
X162952228Y-96163181D01*
X162890905Y-96196666D01*
X162864547Y-96199500D01*
X162384452Y-96199500D01*
X162317413Y-96179815D01*
X162271658Y-96127011D01*
X162261714Y-96057853D01*
X162290739Y-95994297D01*
X162296771Y-95987819D01*
X163571820Y-94712770D01*
X164883788Y-93400801D01*
X164896042Y-93390986D01*
X164895859Y-93390764D01*
X164901866Y-93385792D01*
X164901877Y-93385786D01*
X164942684Y-93342331D01*
X164949227Y-93335364D01*
X164959671Y-93324918D01*
X164970120Y-93314471D01*
X164974379Y-93308978D01*
X164978152Y-93304561D01*
X165010062Y-93270582D01*
X165019713Y-93253024D01*
X165030396Y-93236761D01*
X165042673Y-93220936D01*
X165061185Y-93178153D01*
X165063738Y-93172941D01*
X165086197Y-93132092D01*
X165091180Y-93112680D01*
X165097481Y-93094280D01*
X165105437Y-93075896D01*
X165112729Y-93029852D01*
X165113906Y-93024171D01*
X165125500Y-92979019D01*
X165125500Y-92958982D01*
X165127027Y-92939582D01*
X165130160Y-92919804D01*
X165125775Y-92873415D01*
X165125500Y-92867577D01*
X165125500Y-89874000D01*
X165145185Y-89806961D01*
X165197989Y-89761206D01*
X165249500Y-89750000D01*
X165250000Y-89750000D01*
X165250000Y-87874000D01*
X165269685Y-87806961D01*
X165322489Y-87761206D01*
X165374000Y-87750000D01*
X166500000Y-87750000D01*
X166500000Y-86702172D01*
X166499999Y-86702155D01*
X166493598Y-86642627D01*
X166493596Y-86642620D01*
X166443354Y-86507913D01*
X166443352Y-86507910D01*
X166392560Y-86440061D01*
X166368142Y-86374597D01*
X166382993Y-86306323D01*
X166432398Y-86256918D01*
X166452822Y-86248043D01*
X166494119Y-86234358D01*
X166494124Y-86234356D01*
X166643345Y-86142315D01*
X166767315Y-86018345D01*
X166859356Y-85869124D01*
X166859358Y-85869119D01*
X166914505Y-85702697D01*
X166914506Y-85702690D01*
X166924999Y-85599986D01*
X166925000Y-85599973D01*
X166925000Y-85350000D01*
X165786500Y-85350000D01*
X165719461Y-85330315D01*
X165673706Y-85277511D01*
X165662500Y-85226000D01*
X165662500Y-83900000D01*
X166162500Y-83900000D01*
X166162500Y-84850000D01*
X166924999Y-84850000D01*
X166924999Y-84600028D01*
X166924998Y-84600013D01*
X166914505Y-84497302D01*
X166859358Y-84330880D01*
X166859356Y-84330875D01*
X166767315Y-84181654D01*
X166643345Y-84057684D01*
X166494124Y-83965643D01*
X166494119Y-83965641D01*
X166327697Y-83910494D01*
X166327690Y-83910493D01*
X166224986Y-83900000D01*
X166162500Y-83900000D01*
X165662500Y-83900000D01*
X165662499Y-83899999D01*
X165613755Y-83900000D01*
X165546716Y-83880316D01*
X165500960Y-83827513D01*
X165491016Y-83758354D01*
X165520040Y-83694798D01*
X165554735Y-83666946D01*
X165737439Y-83568072D01*
X165927463Y-83420171D01*
X166090551Y-83243010D01*
X166106489Y-83218613D01*
X166159631Y-83173258D01*
X166228862Y-83163831D01*
X166292199Y-83193330D01*
X166314106Y-83218611D01*
X166329847Y-83242704D01*
X166329851Y-83242710D01*
X166492873Y-83419797D01*
X166492883Y-83419806D01*
X166682831Y-83567649D01*
X166682840Y-83567655D01*
X166894531Y-83682215D01*
X166894545Y-83682221D01*
X167122207Y-83760379D01*
X167230000Y-83778366D01*
X167230000Y-82791683D01*
X167258819Y-82809209D01*
X167404404Y-82850000D01*
X167517622Y-82850000D01*
X167629783Y-82834584D01*
X167730000Y-82791053D01*
X167730000Y-83778365D01*
X167837792Y-83760379D01*
X168065454Y-83682221D01*
X168065468Y-83682215D01*
X168277159Y-83567655D01*
X168277168Y-83567649D01*
X168467116Y-83419806D01*
X168467126Y-83419797D01*
X168630148Y-83242710D01*
X168630156Y-83242699D01*
X168761813Y-83041184D01*
X168858508Y-82820740D01*
X168917599Y-82587395D01*
X168917599Y-82587394D01*
X168920697Y-82550000D01*
X167974852Y-82550000D01*
X168023559Y-82412953D01*
X168033877Y-82262114D01*
X168003116Y-82114085D01*
X167969910Y-82050000D01*
X168920697Y-82050000D01*
X168917599Y-82012605D01*
X168917599Y-82012604D01*
X168858508Y-81779259D01*
X168761813Y-81558815D01*
X168630156Y-81357300D01*
X168630148Y-81357289D01*
X168467126Y-81180202D01*
X168467116Y-81180193D01*
X168277168Y-81032350D01*
X168277159Y-81032344D01*
X168065468Y-80917784D01*
X168065454Y-80917778D01*
X167837791Y-80839619D01*
X167730000Y-80821633D01*
X167730000Y-81808316D01*
X167701181Y-81790791D01*
X167555596Y-81750000D01*
X167442378Y-81750000D01*
X167330217Y-81765416D01*
X167230000Y-81808946D01*
X167230000Y-80821633D01*
X167229999Y-80821633D01*
X167122208Y-80839619D01*
X166894545Y-80917778D01*
X166894531Y-80917784D01*
X166682840Y-81032344D01*
X166682831Y-81032350D01*
X166492883Y-81180193D01*
X166492873Y-81180202D01*
X166329851Y-81357289D01*
X166329846Y-81357297D01*
X166314104Y-81381390D01*
X166260955Y-81426745D01*
X166191724Y-81436165D01*
X166128389Y-81406660D01*
X166106489Y-81381384D01*
X166090555Y-81356994D01*
X165994018Y-81252127D01*
X165927463Y-81179829D01*
X165793358Y-81075451D01*
X165737441Y-81031929D01*
X165525665Y-80917321D01*
X165525656Y-80917318D01*
X165297916Y-80839134D01*
X165098800Y-80805908D01*
X165060399Y-80799500D01*
X164819601Y-80799500D01*
X164781200Y-80805908D01*
X164582083Y-80839134D01*
X164354343Y-80917318D01*
X164354334Y-80917321D01*
X164142559Y-81031929D01*
X164000069Y-81142833D01*
X163935075Y-81168475D01*
X163866535Y-81154908D01*
X163816210Y-81106440D01*
X163807725Y-81088311D01*
X163796298Y-81057673D01*
X163796293Y-81057664D01*
X163710047Y-80942455D01*
X163710044Y-80942452D01*
X163594835Y-80856206D01*
X163594828Y-80856202D01*
X163459982Y-80805908D01*
X163459983Y-80805908D01*
X163400383Y-80799501D01*
X163400381Y-80799500D01*
X163400373Y-80799500D01*
X163400364Y-80799500D01*
X161399629Y-80799500D01*
X161399623Y-80799501D01*
X161340016Y-80805908D01*
X161205171Y-80856202D01*
X161205164Y-80856206D01*
X161089955Y-80942452D01*
X161089952Y-80942455D01*
X161003706Y-81057664D01*
X161003702Y-81057671D01*
X160953408Y-81192517D01*
X160947001Y-81252116D01*
X160947000Y-81252135D01*
X160947000Y-83347870D01*
X160947001Y-83347876D01*
X160953408Y-83407483D01*
X161003702Y-83542328D01*
X161003706Y-83542335D01*
X161089952Y-83657544D01*
X161089955Y-83657547D01*
X161205164Y-83743793D01*
X161205171Y-83743797D01*
X161244196Y-83758352D01*
X161340017Y-83794091D01*
X161399627Y-83800500D01*
X161710500Y-83800499D01*
X161777539Y-83820183D01*
X161823294Y-83872987D01*
X161834500Y-83924499D01*
X161834500Y-84377255D01*
X161832775Y-84392872D01*
X161833061Y-84392899D01*
X161832326Y-84400665D01*
X161834500Y-84469814D01*
X161834500Y-84499343D01*
X161834501Y-84499360D01*
X161835368Y-84506231D01*
X161835826Y-84512050D01*
X161837290Y-84558624D01*
X161837291Y-84558627D01*
X161842880Y-84577867D01*
X161846824Y-84596911D01*
X161849336Y-84616791D01*
X161866490Y-84660119D01*
X161868382Y-84665647D01*
X161881381Y-84710388D01*
X161891580Y-84727634D01*
X161900136Y-84745100D01*
X161905087Y-84757603D01*
X161907514Y-84763732D01*
X161934898Y-84801423D01*
X161938106Y-84806307D01*
X161961827Y-84846416D01*
X161961833Y-84846424D01*
X161975990Y-84860580D01*
X161988628Y-84875376D01*
X162000405Y-84891586D01*
X162000406Y-84891587D01*
X162036309Y-84921288D01*
X162040620Y-84925210D01*
X162254242Y-85138832D01*
X162403229Y-85287819D01*
X162436714Y-85349142D01*
X162431730Y-85418834D01*
X162389858Y-85474767D01*
X162324394Y-85499184D01*
X162315548Y-85499500D01*
X161447952Y-85499500D01*
X161380913Y-85479815D01*
X161360271Y-85463181D01*
X161161818Y-85264727D01*
X161128333Y-85203404D01*
X161125499Y-85177046D01*
X161125499Y-84599998D01*
X161125498Y-84599981D01*
X161114999Y-84497203D01*
X161114998Y-84497200D01*
X161087152Y-84413167D01*
X161059814Y-84330666D01*
X160967712Y-84181344D01*
X160843656Y-84057288D01*
X160729921Y-83987136D01*
X160694336Y-83965187D01*
X160694331Y-83965185D01*
X160638426Y-83946660D01*
X160527797Y-83910001D01*
X160527795Y-83910000D01*
X160425010Y-83899500D01*
X159799998Y-83899500D01*
X159799980Y-83899501D01*
X159697203Y-83910000D01*
X159697200Y-83910001D01*
X159530668Y-83965185D01*
X159530663Y-83965187D01*
X159381345Y-84057287D01*
X159287327Y-84151305D01*
X159226003Y-84184789D01*
X159156312Y-84179805D01*
X159111965Y-84151304D01*
X159018345Y-84057684D01*
X158869124Y-83965643D01*
X158869119Y-83965641D01*
X158702697Y-83910494D01*
X158702690Y-83910493D01*
X158599986Y-83900000D01*
X158537500Y-83900000D01*
X158537500Y-85226000D01*
X158517815Y-85293039D01*
X158465011Y-85338794D01*
X158413500Y-85350000D01*
X158161500Y-85350000D01*
X158094461Y-85330315D01*
X158048706Y-85277511D01*
X158037500Y-85226000D01*
X158037500Y-83900000D01*
X158037499Y-83899999D01*
X157975028Y-83900000D01*
X157975011Y-83900001D01*
X157872302Y-83910494D01*
X157705880Y-83965641D01*
X157705875Y-83965643D01*
X157556654Y-84057684D01*
X157432682Y-84181656D01*
X157405831Y-84225189D01*
X157353883Y-84271913D01*
X157284920Y-84283134D01*
X157220838Y-84255290D01*
X157194754Y-84225187D01*
X157167712Y-84181344D01*
X157043657Y-84057289D01*
X157043656Y-84057288D01*
X156929921Y-83987136D01*
X156894336Y-83965187D01*
X156894331Y-83965185D01*
X156838426Y-83946660D01*
X156727797Y-83910001D01*
X156727795Y-83910000D01*
X156625010Y-83899500D01*
X155999998Y-83899500D01*
X155999980Y-83899501D01*
X155897203Y-83910000D01*
X155897200Y-83910001D01*
X155730668Y-83965185D01*
X155730663Y-83965187D01*
X155581342Y-84057289D01*
X155487681Y-84150951D01*
X155426358Y-84184436D01*
X155356666Y-84179452D01*
X155312319Y-84150951D01*
X155218656Y-84057288D01*
X155218654Y-84057287D01*
X155216584Y-84056010D01*
X155215461Y-84054762D01*
X155212989Y-84052807D01*
X155213323Y-84052384D01*
X155169858Y-84004064D01*
X155158634Y-83935102D01*
X155186475Y-83871019D01*
X155244543Y-83832161D01*
X155261269Y-83828161D01*
X155397792Y-83805379D01*
X155625454Y-83727221D01*
X155625468Y-83727215D01*
X155837159Y-83612655D01*
X155837168Y-83612649D01*
X156027116Y-83464806D01*
X156027126Y-83464797D01*
X156190148Y-83287710D01*
X156190156Y-83287699D01*
X156321813Y-83086184D01*
X156418508Y-82865740D01*
X156477599Y-82632395D01*
X156477599Y-82632394D01*
X156480697Y-82595000D01*
X155534852Y-82595000D01*
X155583559Y-82457953D01*
X155593877Y-82307114D01*
X155563116Y-82159085D01*
X155529910Y-82095000D01*
X156480697Y-82095000D01*
X156477599Y-82057605D01*
X156477599Y-82057604D01*
X156418508Y-81824259D01*
X156321813Y-81603815D01*
X156190156Y-81402300D01*
X156190148Y-81402289D01*
X156027126Y-81225202D01*
X156027116Y-81225193D01*
X155837168Y-81077350D01*
X155837159Y-81077344D01*
X155625468Y-80962784D01*
X155625454Y-80962778D01*
X155397791Y-80884619D01*
X155290000Y-80866633D01*
X155290000Y-81853316D01*
X155261181Y-81835791D01*
X155115596Y-81795000D01*
X155002378Y-81795000D01*
X154890217Y-81810416D01*
X154790000Y-81853946D01*
X154790000Y-80866633D01*
X154789999Y-80866633D01*
X154682208Y-80884619D01*
X154454545Y-80962778D01*
X154454531Y-80962784D01*
X154242840Y-81077344D01*
X154242831Y-81077350D01*
X154052883Y-81225193D01*
X154052873Y-81225202D01*
X153889851Y-81402289D01*
X153889846Y-81402297D01*
X153874104Y-81426390D01*
X153820955Y-81471745D01*
X153751724Y-81481165D01*
X153688389Y-81451660D01*
X153666489Y-81426384D01*
X153650555Y-81401994D01*
X153554018Y-81297127D01*
X153487463Y-81224829D01*
X153335356Y-81106440D01*
X153297441Y-81076929D01*
X153085665Y-80962321D01*
X153085656Y-80962318D01*
X152857916Y-80884134D01*
X152658800Y-80850908D01*
X152620399Y-80844500D01*
X152379601Y-80844500D01*
X152341200Y-80850908D01*
X152142083Y-80884134D01*
X151914343Y-80962318D01*
X151914334Y-80962321D01*
X151702559Y-81076929D01*
X151560069Y-81187833D01*
X151495075Y-81213475D01*
X151426535Y-81199908D01*
X151376210Y-81151440D01*
X151367725Y-81133311D01*
X151356298Y-81102673D01*
X151356293Y-81102664D01*
X151270047Y-80987455D01*
X151270044Y-80987452D01*
X151154835Y-80901206D01*
X151154828Y-80901202D01*
X151019982Y-80850908D01*
X151019983Y-80850908D01*
X150960383Y-80844501D01*
X150960381Y-80844500D01*
X150960373Y-80844500D01*
X150960364Y-80844500D01*
X148959629Y-80844500D01*
X148959623Y-80844501D01*
X148900016Y-80850908D01*
X148765171Y-80901202D01*
X148765164Y-80901206D01*
X148649955Y-80987452D01*
X148649952Y-80987455D01*
X148563706Y-81102664D01*
X148563702Y-81102671D01*
X148513408Y-81237517D01*
X148507001Y-81297116D01*
X148507000Y-81297135D01*
X148507000Y-83392870D01*
X148507001Y-83392876D01*
X148513408Y-83452483D01*
X148563702Y-83587328D01*
X148563706Y-83587335D01*
X148649952Y-83702544D01*
X148649955Y-83702547D01*
X148765164Y-83788793D01*
X148765171Y-83788797D01*
X148796546Y-83800499D01*
X148900017Y-83839091D01*
X148959627Y-83845500D01*
X149210501Y-83845499D01*
X149277539Y-83865183D01*
X149323294Y-83917987D01*
X149334500Y-83969499D01*
X149334500Y-84389755D01*
X149332775Y-84405372D01*
X149333061Y-84405399D01*
X149332326Y-84413165D01*
X149334500Y-84482314D01*
X149334500Y-84511843D01*
X149334501Y-84511860D01*
X149335368Y-84518731D01*
X149335826Y-84524550D01*
X149337290Y-84571124D01*
X149337291Y-84571127D01*
X149342880Y-84590367D01*
X149346824Y-84609411D01*
X149347757Y-84616791D01*
X149349336Y-84629291D01*
X149366490Y-84672619D01*
X149368382Y-84678147D01*
X149377749Y-84710388D01*
X149381382Y-84722890D01*
X149384187Y-84727634D01*
X149391580Y-84740134D01*
X149400138Y-84757603D01*
X149407514Y-84776232D01*
X149434898Y-84813923D01*
X149438106Y-84818807D01*
X149461827Y-84858916D01*
X149461833Y-84858924D01*
X149475990Y-84873080D01*
X149488628Y-84887876D01*
X149497439Y-84900004D01*
X149500406Y-84904087D01*
X149529540Y-84928189D01*
X149568648Y-84986087D01*
X149574500Y-85023732D01*
X149574500Y-85600001D01*
X149574501Y-85600019D01*
X149580925Y-85662899D01*
X149568155Y-85731592D01*
X149520274Y-85782476D01*
X149457567Y-85799500D01*
X140341930Y-85799500D01*
X140274891Y-85779815D01*
X140229136Y-85727011D01*
X140218572Y-85662897D01*
X140224999Y-85599986D01*
X140225000Y-85599973D01*
X140225000Y-85350000D01*
X139086500Y-85350000D01*
X139019461Y-85330315D01*
X138973706Y-85277511D01*
X138962500Y-85226000D01*
X138962500Y-83900000D01*
X138959399Y-83896899D01*
X138902915Y-83880314D01*
X138857160Y-83827510D01*
X138847216Y-83758352D01*
X138870686Y-83701690D01*
X138956296Y-83587331D01*
X138967725Y-83556687D01*
X139009594Y-83500755D01*
X139075058Y-83476336D01*
X139143331Y-83491186D01*
X139160069Y-83502167D01*
X139302552Y-83613066D01*
X139302559Y-83613070D01*
X139302561Y-83613072D01*
X139446262Y-83690839D01*
X139495852Y-83740057D01*
X139510960Y-83808274D01*
X139486790Y-83873829D01*
X139474926Y-83887573D01*
X139462500Y-83899999D01*
X139462500Y-84850000D01*
X140224999Y-84850000D01*
X140224999Y-84600028D01*
X140224998Y-84600013D01*
X140214505Y-84497302D01*
X140159358Y-84330880D01*
X140159356Y-84330875D01*
X140067315Y-84181654D01*
X139942842Y-84057181D01*
X139909357Y-83995858D01*
X139914341Y-83926166D01*
X139956213Y-83870233D01*
X140021677Y-83845816D01*
X140030523Y-83845500D01*
X140220398Y-83845500D01*
X140220399Y-83845500D01*
X140457913Y-83805866D01*
X140685664Y-83727679D01*
X140897439Y-83613072D01*
X141087463Y-83465171D01*
X141250551Y-83288010D01*
X141266489Y-83263613D01*
X141319631Y-83218258D01*
X141388862Y-83208831D01*
X141452199Y-83238330D01*
X141474106Y-83263611D01*
X141489847Y-83287704D01*
X141489851Y-83287710D01*
X141652873Y-83464797D01*
X141652883Y-83464806D01*
X141842831Y-83612649D01*
X141842840Y-83612655D01*
X142054531Y-83727215D01*
X142054545Y-83727221D01*
X142282207Y-83805379D01*
X142390000Y-83823366D01*
X142390000Y-82836683D01*
X142418819Y-82854209D01*
X142564404Y-82895000D01*
X142677622Y-82895000D01*
X142789783Y-82879584D01*
X142890000Y-82836053D01*
X142890000Y-83823365D01*
X142997792Y-83805379D01*
X143225454Y-83727221D01*
X143225468Y-83727215D01*
X143437159Y-83612655D01*
X143437168Y-83612649D01*
X143627116Y-83464806D01*
X143627126Y-83464797D01*
X143790148Y-83287710D01*
X143790156Y-83287699D01*
X143921813Y-83086184D01*
X144018508Y-82865740D01*
X144077599Y-82632395D01*
X144077599Y-82632394D01*
X144080697Y-82595000D01*
X143134852Y-82595000D01*
X143183559Y-82457953D01*
X143193877Y-82307114D01*
X143163116Y-82159085D01*
X143129910Y-82095000D01*
X144080697Y-82095000D01*
X144077599Y-82057605D01*
X144077599Y-82057604D01*
X144018508Y-81824259D01*
X143921813Y-81603815D01*
X143790156Y-81402300D01*
X143790148Y-81402289D01*
X143627126Y-81225202D01*
X143627116Y-81225193D01*
X143437168Y-81077350D01*
X143437159Y-81077344D01*
X143225468Y-80962784D01*
X143225454Y-80962778D01*
X142997791Y-80884619D01*
X142890000Y-80866633D01*
X142890000Y-81853316D01*
X142861181Y-81835791D01*
X142715596Y-81795000D01*
X142602378Y-81795000D01*
X142490217Y-81810416D01*
X142390000Y-81853946D01*
X142390000Y-80866633D01*
X142389999Y-80866633D01*
X142282208Y-80884619D01*
X142054545Y-80962778D01*
X142054531Y-80962784D01*
X141842840Y-81077344D01*
X141842831Y-81077350D01*
X141652883Y-81225193D01*
X141652873Y-81225202D01*
X141489851Y-81402289D01*
X141489846Y-81402297D01*
X141474104Y-81426390D01*
X141420955Y-81471745D01*
X141351724Y-81481165D01*
X141288389Y-81451660D01*
X141266489Y-81426384D01*
X141250555Y-81401994D01*
X141154018Y-81297127D01*
X141087463Y-81224829D01*
X140935356Y-81106440D01*
X140897441Y-81076929D01*
X140685665Y-80962321D01*
X140685656Y-80962318D01*
X140457916Y-80884134D01*
X140258800Y-80850908D01*
X140220399Y-80844500D01*
X139979601Y-80844500D01*
X139941200Y-80850908D01*
X139742083Y-80884134D01*
X139514343Y-80962318D01*
X139514334Y-80962321D01*
X139302559Y-81076929D01*
X139160069Y-81187833D01*
X139095075Y-81213475D01*
X139026535Y-81199908D01*
X138976210Y-81151440D01*
X138967725Y-81133311D01*
X138956298Y-81102673D01*
X138956293Y-81102664D01*
X138870047Y-80987455D01*
X138870044Y-80987452D01*
X138754835Y-80901206D01*
X138754828Y-80901202D01*
X138619982Y-80850908D01*
X138619983Y-80850908D01*
X138560383Y-80844501D01*
X138560381Y-80844500D01*
X138560373Y-80844500D01*
X138560364Y-80844500D01*
X136559629Y-80844500D01*
X136559623Y-80844501D01*
X136500016Y-80850908D01*
X136365171Y-80901202D01*
X136365164Y-80901206D01*
X136249955Y-80987452D01*
X136249952Y-80987455D01*
X136163706Y-81102664D01*
X136163702Y-81102671D01*
X136113408Y-81237517D01*
X136107001Y-81297116D01*
X136107000Y-81297135D01*
X136107000Y-83392870D01*
X136107001Y-83392876D01*
X136113408Y-83452483D01*
X136163702Y-83587328D01*
X136163706Y-83587335D01*
X136249952Y-83702544D01*
X136249955Y-83702547D01*
X136365164Y-83788793D01*
X136365171Y-83788797D01*
X136396546Y-83800499D01*
X136500017Y-83839091D01*
X136559627Y-83845500D01*
X136568763Y-83845499D01*
X136635801Y-83865178D01*
X136681560Y-83917978D01*
X136691509Y-83987136D01*
X136662489Y-84050694D01*
X136656452Y-84057180D01*
X136532287Y-84181345D01*
X136440187Y-84330663D01*
X136440185Y-84330668D01*
X136424748Y-84377255D01*
X136385001Y-84497203D01*
X136385001Y-84497204D01*
X136385000Y-84497204D01*
X136374500Y-84599983D01*
X136374500Y-85600001D01*
X136374501Y-85600019D01*
X136385000Y-85702796D01*
X136385001Y-85702799D01*
X136440185Y-85869331D01*
X136440187Y-85869336D01*
X136455245Y-85893749D01*
X136532288Y-86018656D01*
X136656344Y-86142712D01*
X136805666Y-86234814D01*
X136972203Y-86289999D01*
X137074991Y-86300500D01*
X137352047Y-86300499D01*
X137419086Y-86320183D01*
X137439727Y-86336817D01*
X137699868Y-86596959D01*
X137911697Y-86808788D01*
X137921522Y-86821051D01*
X137921743Y-86820869D01*
X137926714Y-86826878D01*
X137952717Y-86851295D01*
X137977135Y-86874226D01*
X137998029Y-86895120D01*
X138003511Y-86899373D01*
X138007943Y-86903157D01*
X138041918Y-86935062D01*
X138059476Y-86944714D01*
X138075733Y-86955393D01*
X138091564Y-86967673D01*
X138111237Y-86976186D01*
X138134333Y-86986182D01*
X138139577Y-86988750D01*
X138180408Y-87011197D01*
X138193023Y-87014435D01*
X138199805Y-87016177D01*
X138218219Y-87022481D01*
X138236604Y-87030438D01*
X138282657Y-87037732D01*
X138288326Y-87038906D01*
X138333481Y-87050500D01*
X138353516Y-87050500D01*
X138372913Y-87052026D01*
X138392696Y-87055160D01*
X138439083Y-87050775D01*
X138444922Y-87050500D01*
X149314548Y-87050500D01*
X149381587Y-87070185D01*
X149402229Y-87086819D01*
X149583728Y-87268319D01*
X149617213Y-87329642D01*
X149612229Y-87399334D01*
X149570357Y-87455267D01*
X149504893Y-87479684D01*
X149496047Y-87480000D01*
X142880000Y-87480000D01*
X142880000Y-88734682D01*
X142860315Y-88801721D01*
X142807511Y-88847476D01*
X142738353Y-88857420D01*
X142674797Y-88828395D01*
X142656734Y-88808994D01*
X142607187Y-88742809D01*
X142492093Y-88656649D01*
X142492086Y-88656645D01*
X142357379Y-88606403D01*
X142357372Y-88606401D01*
X142297844Y-88600000D01*
X141500000Y-88600000D01*
X141500000Y-93400000D01*
X142297828Y-93400000D01*
X142297844Y-93399999D01*
X142357372Y-93393598D01*
X142357379Y-93393596D01*
X142492086Y-93343354D01*
X142492093Y-93343350D01*
X142607186Y-93257190D01*
X142656733Y-93191006D01*
X142712667Y-93149135D01*
X142782359Y-93144151D01*
X142843682Y-93177636D01*
X142877166Y-93238960D01*
X142880000Y-93265317D01*
X142880000Y-99106770D01*
X142860315Y-99173809D01*
X142807511Y-99219564D01*
X142738353Y-99229508D01*
X142674797Y-99200483D01*
X142668319Y-99194451D01*
X141236818Y-97762950D01*
X141203333Y-97701627D01*
X141200499Y-97675269D01*
X141200499Y-97274998D01*
X141200498Y-97274981D01*
X141189999Y-97172203D01*
X141189998Y-97172200D01*
X141166239Y-97100500D01*
X141134814Y-97005666D01*
X141042712Y-96856344D01*
X140918656Y-96732288D01*
X140815493Y-96668657D01*
X140769336Y-96640187D01*
X140769331Y-96640185D01*
X140758702Y-96636663D01*
X140602797Y-96585001D01*
X140602795Y-96585000D01*
X140500016Y-96574500D01*
X140261434Y-96574500D01*
X140194395Y-96554815D01*
X140148640Y-96502011D01*
X140138924Y-96434441D01*
X140138818Y-96434431D01*
X140138861Y-96434004D01*
X140138696Y-96432853D01*
X140139357Y-96429151D01*
X140149999Y-96324986D01*
X140150000Y-96324973D01*
X140150000Y-96050000D01*
X139024000Y-96050000D01*
X138956961Y-96030315D01*
X138911206Y-95977511D01*
X138900000Y-95926000D01*
X138900000Y-94575000D01*
X139400000Y-94575000D01*
X139400000Y-95550000D01*
X140149999Y-95550000D01*
X140149999Y-95275028D01*
X140149998Y-95275013D01*
X140139505Y-95172302D01*
X140084358Y-95005880D01*
X140084356Y-95005875D01*
X139992315Y-94856654D01*
X139868345Y-94732684D01*
X139719124Y-94640643D01*
X139719119Y-94640641D01*
X139552697Y-94585494D01*
X139552690Y-94585493D01*
X139449986Y-94575000D01*
X139400000Y-94575000D01*
X138900000Y-94575000D01*
X138899999Y-94574999D01*
X138850029Y-94575000D01*
X138850011Y-94575001D01*
X138747302Y-94585494D01*
X138580880Y-94640641D01*
X138580875Y-94640643D01*
X138431654Y-94732684D01*
X138307683Y-94856655D01*
X138307679Y-94856660D01*
X138305826Y-94859665D01*
X138304018Y-94861290D01*
X138303202Y-94862323D01*
X138303025Y-94862183D01*
X138253874Y-94906385D01*
X138184911Y-94917601D01*
X138120831Y-94889752D01*
X138094753Y-94859653D01*
X138094737Y-94859628D01*
X138092712Y-94856344D01*
X138036819Y-94800451D01*
X138003334Y-94739128D01*
X138000500Y-94712770D01*
X138000500Y-94113705D01*
X138001809Y-94095735D01*
X138005289Y-94071974D01*
X138000736Y-94019939D01*
X138000500Y-94014532D01*
X138000500Y-94006296D01*
X138000500Y-94006291D01*
X137996691Y-93973705D01*
X137989998Y-93897203D01*
X137989995Y-93897194D01*
X137988538Y-93890135D01*
X137988598Y-93890122D01*
X137986966Y-93882764D01*
X137986908Y-93882778D01*
X137985241Y-93875747D01*
X137985241Y-93875745D01*
X137958969Y-93803563D01*
X137947114Y-93767785D01*
X137934815Y-93730668D01*
X137931762Y-93724121D01*
X137931815Y-93724095D01*
X137928531Y-93717311D01*
X137928479Y-93717338D01*
X137925236Y-93710882D01*
X137883034Y-93646716D01*
X137842714Y-93581347D01*
X137838234Y-93575681D01*
X137838280Y-93575643D01*
X137833519Y-93569799D01*
X137833474Y-93569838D01*
X137828834Y-93564308D01*
X137826931Y-93562513D01*
X137807093Y-93543796D01*
X137772982Y-93511613D01*
X137075729Y-92814361D01*
X137063949Y-92800730D01*
X137056482Y-92790701D01*
X137049612Y-92781472D01*
X137049610Y-92781470D01*
X137009587Y-92747886D01*
X137005612Y-92744244D01*
X137002690Y-92741322D01*
X136999780Y-92738411D01*
X136974040Y-92718059D01*
X136974039Y-92718059D01*
X136915214Y-92668698D01*
X136915213Y-92668697D01*
X136915209Y-92668694D01*
X136909180Y-92664729D01*
X136909212Y-92664680D01*
X136902853Y-92660628D01*
X136902822Y-92660679D01*
X136896680Y-92656891D01*
X136896678Y-92656890D01*
X136896677Y-92656889D01*
X136857474Y-92638608D01*
X136827058Y-92624424D01*
X136778418Y-92599997D01*
X136758433Y-92589960D01*
X136758431Y-92589959D01*
X136758430Y-92589959D01*
X136751645Y-92587489D01*
X136751665Y-92587433D01*
X136744549Y-92584959D01*
X136744531Y-92585015D01*
X136737671Y-92582742D01*
X136709841Y-92576996D01*
X136662434Y-92567207D01*
X136613472Y-92555603D01*
X136587719Y-92549499D01*
X136580547Y-92548661D01*
X136580553Y-92548601D01*
X136573055Y-92547835D01*
X136573050Y-92547895D01*
X136558661Y-92546636D01*
X136558879Y-92544137D01*
X136502720Y-92529390D01*
X136455463Y-92477925D01*
X136447298Y-92449731D01*
X136445876Y-92450068D01*
X136444092Y-92442520D01*
X136430180Y-92405221D01*
X136415321Y-92365381D01*
X136393797Y-92307671D01*
X136393795Y-92307668D01*
X136358967Y-92261144D01*
X136331081Y-92223893D01*
X136306664Y-92158431D01*
X136321515Y-92090158D01*
X136331082Y-92075271D01*
X136393352Y-91992089D01*
X136393354Y-91992086D01*
X136443596Y-91857379D01*
X136443598Y-91857372D01*
X136449999Y-91797844D01*
X136450000Y-91797827D01*
X136450000Y-91250000D01*
X139750000Y-91250000D01*
X139750000Y-92947844D01*
X139756401Y-93007372D01*
X139756403Y-93007379D01*
X139806645Y-93142086D01*
X139806649Y-93142093D01*
X139892809Y-93257187D01*
X139892812Y-93257190D01*
X140007906Y-93343350D01*
X140007913Y-93343354D01*
X140142620Y-93393596D01*
X140142627Y-93393598D01*
X140202155Y-93399999D01*
X140202172Y-93400000D01*
X141000000Y-93400000D01*
X141000000Y-91250000D01*
X139750000Y-91250000D01*
X136450000Y-91250000D01*
X133450000Y-91250000D01*
X133450000Y-91797844D01*
X133456401Y-91857372D01*
X133456403Y-91857379D01*
X133506645Y-91992086D01*
X133506646Y-91992088D01*
X133568918Y-92075272D01*
X133593335Y-92140736D01*
X133578484Y-92209009D01*
X133568918Y-92223894D01*
X133506204Y-92307669D01*
X133506202Y-92307671D01*
X133490681Y-92349287D01*
X133448810Y-92405221D01*
X133383345Y-92429638D01*
X133315072Y-92414786D01*
X133265667Y-92365381D01*
X133250499Y-92305954D01*
X133250499Y-92224998D01*
X133250498Y-92224981D01*
X133239999Y-92122203D01*
X133239998Y-92122200D01*
X133229380Y-92090158D01*
X133184814Y-91955666D01*
X133092712Y-91806344D01*
X132968656Y-91682288D01*
X132819334Y-91590186D01*
X132810489Y-91587255D01*
X132785494Y-91578972D01*
X132728050Y-91539199D01*
X132701228Y-91474683D01*
X132700500Y-91461267D01*
X132700500Y-90465783D01*
X132720185Y-90398744D01*
X132736819Y-90378102D01*
X133052408Y-90062513D01*
X133369220Y-89745700D01*
X133430541Y-89712217D01*
X133500232Y-89717201D01*
X133556165Y-89759071D01*
X133568917Y-89776105D01*
X133593335Y-89841569D01*
X133578484Y-89909842D01*
X133568918Y-89924728D01*
X133506646Y-90007911D01*
X133506645Y-90007913D01*
X133456403Y-90142620D01*
X133456401Y-90142627D01*
X133450000Y-90202155D01*
X133450000Y-90750000D01*
X136450000Y-90750000D01*
X139750000Y-90750000D01*
X141000000Y-90750000D01*
X141000000Y-88600000D01*
X140202155Y-88600000D01*
X140142627Y-88606401D01*
X140142620Y-88606403D01*
X140007913Y-88656645D01*
X140007906Y-88656649D01*
X139892812Y-88742809D01*
X139892809Y-88742812D01*
X139806649Y-88857906D01*
X139806645Y-88857913D01*
X139756403Y-88992620D01*
X139756401Y-88992627D01*
X139750000Y-89052155D01*
X139750000Y-90750000D01*
X136450000Y-90750000D01*
X136450000Y-90202172D01*
X136449999Y-90202155D01*
X136443598Y-90142627D01*
X136443596Y-90142620D01*
X136393354Y-90007913D01*
X136393352Y-90007910D01*
X136331082Y-89924727D01*
X136306665Y-89859262D01*
X136321517Y-89790989D01*
X136331079Y-89776108D01*
X136393796Y-89692331D01*
X136444091Y-89557483D01*
X136450500Y-89497873D01*
X136450499Y-87902128D01*
X136444091Y-87842517D01*
X136430829Y-87806961D01*
X136393797Y-87707671D01*
X136393793Y-87707664D01*
X136307547Y-87592455D01*
X136307544Y-87592452D01*
X136192335Y-87506206D01*
X136192328Y-87506202D01*
X136057482Y-87455908D01*
X136049938Y-87454126D01*
X136050474Y-87451853D01*
X135996688Y-87429571D01*
X135956843Y-87372177D01*
X135950500Y-87333024D01*
X135950500Y-86073696D01*
X135950889Y-86066758D01*
X135955237Y-86028172D01*
X135954595Y-86018656D01*
X135951704Y-85975772D01*
X135950639Y-85959976D01*
X135950500Y-85955821D01*
X135950500Y-85943850D01*
X135950500Y-85943845D01*
X135946721Y-85901859D01*
X135945404Y-85882327D01*
X135940097Y-85803592D01*
X135939028Y-85799350D01*
X135935768Y-85780158D01*
X135935726Y-85779699D01*
X135935377Y-85775812D01*
X135909167Y-85680844D01*
X135885096Y-85585316D01*
X135883290Y-85581340D01*
X135876654Y-85563039D01*
X135875493Y-85558830D01*
X135852851Y-85511814D01*
X135832749Y-85470071D01*
X135792012Y-85380383D01*
X135792009Y-85380378D01*
X135792007Y-85380374D01*
X135789516Y-85376780D01*
X135779726Y-85359967D01*
X135777829Y-85356027D01*
X135732066Y-85293039D01*
X135719917Y-85276317D01*
X135663825Y-85195353D01*
X135663822Y-85195349D01*
X135663819Y-85195345D01*
X135660729Y-85192255D01*
X135648093Y-85177461D01*
X135645522Y-85173922D01*
X135624849Y-85154157D01*
X135574320Y-85105846D01*
X133578856Y-83110382D01*
X133574219Y-83105193D01*
X133550007Y-83074832D01*
X133498531Y-83029859D01*
X133495497Y-83027023D01*
X133487029Y-83018555D01*
X133454681Y-82991549D01*
X133380496Y-82926735D01*
X133376741Y-82924491D01*
X133360873Y-82913232D01*
X133357519Y-82910432D01*
X133357517Y-82910431D01*
X133357515Y-82910429D01*
X133313304Y-82885343D01*
X133264712Y-82835138D01*
X133250499Y-82777495D01*
X133250499Y-82144629D01*
X133250498Y-82144623D01*
X133250497Y-82144616D01*
X133244091Y-82085017D01*
X133204571Y-81979059D01*
X133193797Y-81950171D01*
X133193793Y-81950164D01*
X133107547Y-81834955D01*
X133107544Y-81834952D01*
X132992335Y-81748706D01*
X132992328Y-81748702D01*
X132857482Y-81698408D01*
X132857483Y-81698408D01*
X132797883Y-81692001D01*
X132797881Y-81692000D01*
X132797873Y-81692000D01*
X132797864Y-81692000D01*
X129202129Y-81692000D01*
X129202123Y-81692001D01*
X129142516Y-81698408D01*
X129007671Y-81748702D01*
X129007664Y-81748706D01*
X128892455Y-81834952D01*
X128892452Y-81834955D01*
X128806206Y-81950164D01*
X128806202Y-81950171D01*
X128755908Y-82085017D01*
X128750009Y-82139890D01*
X128749501Y-82144623D01*
X128749500Y-82144635D01*
X128749500Y-85740370D01*
X128749501Y-85740376D01*
X128755908Y-85799983D01*
X128806202Y-85934828D01*
X128806206Y-85934835D01*
X128892452Y-86050044D01*
X128892455Y-86050047D01*
X129007664Y-86136293D01*
X129007673Y-86136298D01*
X129056506Y-86154511D01*
X129112440Y-86196381D01*
X129136858Y-86261845D01*
X129122007Y-86330118D01*
X129072603Y-86379524D01*
X129006598Y-86394518D01*
X128968592Y-86392500D01*
X128250000Y-86392500D01*
X128250000Y-88142500D01*
X127750000Y-88142500D01*
X127750000Y-86392500D01*
X127749999Y-86392500D01*
X127031409Y-86392501D01*
X126978809Y-86395294D01*
X126749012Y-86439737D01*
X126530024Y-86522379D01*
X126328158Y-86640839D01*
X126328151Y-86640844D01*
X126149213Y-86791711D01*
X126149211Y-86791713D01*
X125998344Y-86970651D01*
X125998339Y-86970658D01*
X125879879Y-87172524D01*
X125797237Y-87391512D01*
X125752794Y-87621308D01*
X125752794Y-87621309D01*
X125750000Y-87673909D01*
X125750000Y-88392500D01*
X126566314Y-88392500D01*
X126540507Y-88432656D01*
X126500000Y-88570611D01*
X126500000Y-88714389D01*
X126540507Y-88852344D01*
X126566314Y-88892500D01*
X125750001Y-88892500D01*
X125750001Y-89611091D01*
X125752794Y-89663690D01*
X125797237Y-89893487D01*
X125879879Y-90112475D01*
X125998339Y-90314341D01*
X125998344Y-90314348D01*
X126149211Y-90493286D01*
X126149213Y-90493288D01*
X126328151Y-90644155D01*
X126328158Y-90644160D01*
X126530024Y-90762620D01*
X126749012Y-90845262D01*
X126978808Y-90889705D01*
X127031408Y-90892499D01*
X127749999Y-90892499D01*
X127749999Y-90892498D01*
X127750000Y-89142500D01*
X128250000Y-89142500D01*
X128250000Y-90892499D01*
X128968591Y-90892499D01*
X129021190Y-90889705D01*
X129250987Y-90845262D01*
X129469975Y-90762620D01*
X129671841Y-90644160D01*
X129671848Y-90644155D01*
X129850786Y-90493288D01*
X129850788Y-90493286D01*
X130001655Y-90314348D01*
X130001660Y-90314341D01*
X130120120Y-90112475D01*
X130202762Y-89893487D01*
X130247205Y-89663691D01*
X130247205Y-89663690D01*
X130250000Y-89611091D01*
X130250000Y-88892500D01*
X129433686Y-88892500D01*
X129459493Y-88852344D01*
X129500000Y-88714389D01*
X129500000Y-88570611D01*
X129459493Y-88432656D01*
X129433686Y-88392500D01*
X130249999Y-88392500D01*
X130249999Y-87673909D01*
X130247205Y-87621309D01*
X130202762Y-87391512D01*
X130120120Y-87172524D01*
X130001660Y-86970658D01*
X130001655Y-86970651D01*
X129850788Y-86791713D01*
X129850786Y-86791711D01*
X129671848Y-86640844D01*
X129671841Y-86640839D01*
X129469975Y-86522379D01*
X129250984Y-86439736D01*
X129245840Y-86438741D01*
X129183760Y-86406680D01*
X129148869Y-86346146D01*
X129152244Y-86276358D01*
X129192814Y-86219473D01*
X129257697Y-86193552D01*
X129269374Y-86192999D01*
X132797872Y-86192999D01*
X132857483Y-86186591D01*
X132972652Y-86143635D01*
X133042340Y-86138652D01*
X133103660Y-86172134D01*
X133103663Y-86172137D01*
X133413180Y-86481654D01*
X133446665Y-86542977D01*
X133449499Y-86569335D01*
X133449499Y-87086819D01*
X133449500Y-87575500D01*
X133429816Y-87642539D01*
X133377012Y-87688294D01*
X133325500Y-87699500D01*
X133012717Y-87699500D01*
X132923637Y-87697243D01*
X132923628Y-87697243D01*
X132863260Y-87708064D01*
X132858595Y-87708718D01*
X132797563Y-87714925D01*
X132797555Y-87714927D01*
X132764781Y-87725210D01*
X132757154Y-87727082D01*
X132723350Y-87733141D01*
X132666384Y-87755894D01*
X132661948Y-87757473D01*
X132603414Y-87775840D01*
X132603412Y-87775841D01*
X132573385Y-87792506D01*
X132566293Y-87795874D01*
X132534383Y-87808621D01*
X132483154Y-87842383D01*
X132479126Y-87844824D01*
X132425502Y-87874588D01*
X132425499Y-87874590D01*
X132399427Y-87896970D01*
X132393160Y-87901695D01*
X132364482Y-87920598D01*
X132364475Y-87920603D01*
X132321116Y-87963962D01*
X132317661Y-87967164D01*
X132271106Y-88007132D01*
X132271105Y-88007133D01*
X132250076Y-88034300D01*
X132244884Y-88040194D01*
X131001532Y-89283546D01*
X130936946Y-89344942D01*
X130901899Y-89395294D01*
X130899062Y-89399056D01*
X130860302Y-89446592D01*
X130860299Y-89446597D01*
X130844392Y-89477047D01*
X130840324Y-89483761D01*
X130820702Y-89511954D01*
X130796509Y-89568330D01*
X130794488Y-89572584D01*
X130766091Y-89626951D01*
X130766090Y-89626952D01*
X130756640Y-89659975D01*
X130754007Y-89667371D01*
X130740459Y-89698943D01*
X130728113Y-89759019D01*
X130726990Y-89763595D01*
X130710113Y-89822577D01*
X130710113Y-89822579D01*
X130707503Y-89856841D01*
X130706414Y-89864608D01*
X130705183Y-89870604D01*
X130699499Y-89898258D01*
X130699500Y-89959597D01*
X130699321Y-89964306D01*
X130694662Y-90025473D01*
X130699002Y-90059549D01*
X130699499Y-90067389D01*
X130699499Y-91469551D01*
X130679814Y-91536590D01*
X130627010Y-91582345D01*
X130614509Y-91587255D01*
X130605668Y-91590184D01*
X130456342Y-91682289D01*
X130332289Y-91806342D01*
X130240187Y-91955663D01*
X130240185Y-91955668D01*
X130227975Y-91992516D01*
X130185001Y-92122203D01*
X130185001Y-92122204D01*
X130185000Y-92122204D01*
X130174500Y-92224983D01*
X130174500Y-93724109D01*
X130154815Y-93791148D01*
X130102011Y-93836903D01*
X130032853Y-93846847D01*
X129969297Y-93817822D01*
X129943112Y-93786108D01*
X129932941Y-93768491D01*
X129932533Y-93767784D01*
X129805871Y-93627112D01*
X129804836Y-93626360D01*
X129652734Y-93515851D01*
X129652729Y-93515848D01*
X129479807Y-93438857D01*
X129479802Y-93438855D01*
X129334001Y-93407865D01*
X129294646Y-93399500D01*
X129105354Y-93399500D01*
X129072897Y-93406398D01*
X128920197Y-93438855D01*
X128920192Y-93438857D01*
X128747270Y-93515848D01*
X128747265Y-93515851D01*
X128594129Y-93627111D01*
X128467466Y-93767785D01*
X128372821Y-93931715D01*
X128372818Y-93931722D01*
X128318833Y-94097872D01*
X128314326Y-94111744D01*
X128300833Y-94240121D01*
X128295347Y-94292326D01*
X128294540Y-94300000D01*
X128314326Y-94488256D01*
X128314327Y-94488259D01*
X128372818Y-94668277D01*
X128372821Y-94668284D01*
X128467467Y-94832216D01*
X128593623Y-94972326D01*
X128594129Y-94972888D01*
X128747265Y-95084148D01*
X128747270Y-95084151D01*
X128920192Y-95161142D01*
X128920197Y-95161144D01*
X129105354Y-95200500D01*
X129105355Y-95200500D01*
X129294644Y-95200500D01*
X129294646Y-95200500D01*
X129479803Y-95161144D01*
X129652730Y-95084151D01*
X129805871Y-94972888D01*
X129932533Y-94832216D01*
X130027179Y-94668284D01*
X130027179Y-94668282D01*
X130030428Y-94662656D01*
X130031477Y-94663262D01*
X130072394Y-94615124D01*
X130139243Y-94594802D01*
X130206467Y-94613847D01*
X130245963Y-94653700D01*
X130314077Y-94764132D01*
X130332288Y-94793656D01*
X130456344Y-94917712D01*
X130605666Y-95009814D01*
X130716058Y-95046394D01*
X130773503Y-95086167D01*
X130785472Y-95103921D01*
X130805008Y-95139117D01*
X130808379Y-95146214D01*
X130821122Y-95178114D01*
X130821127Y-95178124D01*
X130854877Y-95229333D01*
X130857318Y-95233363D01*
X130887088Y-95286998D01*
X130887089Y-95286999D01*
X130887091Y-95287002D01*
X130909468Y-95313067D01*
X130914193Y-95319335D01*
X130925045Y-95335800D01*
X130933098Y-95348019D01*
X130976478Y-95391399D01*
X130979669Y-95394843D01*
X131007371Y-95427111D01*
X131019634Y-95441395D01*
X131046794Y-95462418D01*
X131052690Y-95467611D01*
X131797898Y-96212819D01*
X131831383Y-96274142D01*
X131826399Y-96343834D01*
X131784527Y-96399767D01*
X131719063Y-96424184D01*
X131710217Y-96424500D01*
X130874998Y-96424500D01*
X130874981Y-96424501D01*
X130772203Y-96435000D01*
X130772200Y-96435001D01*
X130605668Y-96490185D01*
X130605663Y-96490187D01*
X130456342Y-96582289D01*
X130332289Y-96706342D01*
X130240187Y-96855663D01*
X130240185Y-96855668D01*
X130239961Y-96856344D01*
X130185001Y-97022203D01*
X130185001Y-97022204D01*
X130185000Y-97022204D01*
X130174500Y-97124983D01*
X130174500Y-99275001D01*
X130174501Y-99275018D01*
X130185000Y-99377796D01*
X130185001Y-99377799D01*
X130240185Y-99544331D01*
X130240187Y-99544336D01*
X130270876Y-99594091D01*
X130332288Y-99693656D01*
X130456344Y-99817712D01*
X130605666Y-99909814D01*
X130772203Y-99964999D01*
X130874991Y-99975500D01*
X131025500Y-99975499D01*
X131092539Y-99995183D01*
X131138294Y-100047987D01*
X131149500Y-100099499D01*
X131149500Y-100325500D01*
X131129815Y-100392539D01*
X131077011Y-100438294D01*
X131025500Y-100449500D01*
X127563705Y-100449500D01*
X127545735Y-100448191D01*
X127521972Y-100444710D01*
X127476890Y-100448655D01*
X127469933Y-100449264D01*
X127464532Y-100449500D01*
X127456288Y-100449500D01*
X127423707Y-100453308D01*
X127347199Y-100460001D01*
X127340133Y-100461461D01*
X127340121Y-100461404D01*
X127332754Y-100463038D01*
X127332768Y-100463094D01*
X127325751Y-100464756D01*
X127253573Y-100491026D01*
X127180662Y-100515187D01*
X127174119Y-100518238D01*
X127174094Y-100518186D01*
X127167314Y-100521468D01*
X127167340Y-100521520D01*
X127160881Y-100524764D01*
X127096709Y-100566970D01*
X127031345Y-100607288D01*
X127025677Y-100611770D01*
X127025641Y-100611724D01*
X127019798Y-100616484D01*
X127019835Y-100616528D01*
X127014310Y-100621164D01*
X127014304Y-100621169D01*
X127014304Y-100621170D01*
X126961600Y-100677031D01*
X126961600Y-100677032D01*
X126764361Y-100874270D01*
X126750731Y-100886050D01*
X126731469Y-100900390D01*
X126697893Y-100940405D01*
X126694241Y-100944390D01*
X126688407Y-100950224D01*
X126668058Y-100975960D01*
X126618695Y-101034789D01*
X126614729Y-101040819D01*
X126614682Y-101040788D01*
X126610630Y-101047147D01*
X126610679Y-101047177D01*
X126606889Y-101053321D01*
X126574424Y-101122942D01*
X126545191Y-101181150D01*
X126497513Y-101232225D01*
X126434381Y-101249500D01*
X126352130Y-101249500D01*
X126352123Y-101249501D01*
X126292516Y-101255908D01*
X126157671Y-101306202D01*
X126157664Y-101306206D01*
X126042455Y-101392452D01*
X126042452Y-101392455D01*
X125956206Y-101507664D01*
X125956202Y-101507671D01*
X125905908Y-101642517D01*
X125899501Y-101702116D01*
X125899500Y-101702135D01*
X125899500Y-103497870D01*
X125899501Y-103497876D01*
X125905908Y-103557483D01*
X125956202Y-103692328D01*
X125956206Y-103692335D01*
X126042452Y-103807544D01*
X126042455Y-103807547D01*
X126157664Y-103893793D01*
X126157671Y-103893797D01*
X126292517Y-103944091D01*
X126292516Y-103944091D01*
X126299444Y-103944835D01*
X126352127Y-103950500D01*
X128147872Y-103950499D01*
X128207483Y-103944091D01*
X128342331Y-103893796D01*
X128457546Y-103807546D01*
X128543796Y-103692331D01*
X128593002Y-103560401D01*
X128634872Y-103504468D01*
X128700337Y-103480050D01*
X128768610Y-103494901D01*
X128796865Y-103516053D01*
X128918917Y-103638105D01*
X129112421Y-103773600D01*
X129326507Y-103873429D01*
X129326516Y-103873433D01*
X129539998Y-103930635D01*
X129539999Y-103930634D01*
X129539999Y-103035501D01*
X129647685Y-103084680D01*
X129754237Y-103100000D01*
X129825763Y-103100000D01*
X129932315Y-103084680D01*
X130040000Y-103035501D01*
X130040000Y-103930633D01*
X130253483Y-103873433D01*
X130253492Y-103873429D01*
X130467578Y-103773600D01*
X130661082Y-103638105D01*
X130828105Y-103471082D01*
X130958119Y-103285405D01*
X131012696Y-103241781D01*
X131082195Y-103234588D01*
X131144549Y-103266110D01*
X131161269Y-103285405D01*
X131291505Y-103471401D01*
X131458599Y-103638495D01*
X131555384Y-103706264D01*
X131652165Y-103774032D01*
X131652167Y-103774033D01*
X131652170Y-103774035D01*
X131866337Y-103873903D01*
X131866343Y-103873904D01*
X131866344Y-103873905D01*
X131883411Y-103878478D01*
X132094592Y-103935063D01*
X132271034Y-103950500D01*
X132329999Y-103955659D01*
X132330000Y-103955659D01*
X132330001Y-103955659D01*
X132374005Y-103951809D01*
X132565408Y-103935063D01*
X132793663Y-103873903D01*
X133007830Y-103774035D01*
X133201401Y-103638495D01*
X133368495Y-103471401D01*
X133498426Y-103285841D01*
X133553002Y-103242217D01*
X133622500Y-103235023D01*
X133684855Y-103266546D01*
X133701575Y-103285842D01*
X133831281Y-103471082D01*
X133831505Y-103471401D01*
X133998599Y-103638495D01*
X134095384Y-103706264D01*
X134192165Y-103774032D01*
X134192167Y-103774033D01*
X134192170Y-103774035D01*
X134406337Y-103873903D01*
X134406343Y-103873904D01*
X134406344Y-103873905D01*
X134423411Y-103878478D01*
X134634592Y-103935063D01*
X134811034Y-103950500D01*
X134869999Y-103955659D01*
X134870000Y-103955659D01*
X134870001Y-103955659D01*
X134914005Y-103951809D01*
X135105408Y-103935063D01*
X135333663Y-103873903D01*
X135547830Y-103774035D01*
X135741401Y-103638495D01*
X135908495Y-103471401D01*
X136038426Y-103285840D01*
X136093001Y-103242217D01*
X136162499Y-103235023D01*
X136224854Y-103266546D01*
X136241574Y-103285841D01*
X136286321Y-103349746D01*
X136371505Y-103471401D01*
X136538599Y-103638495D01*
X136635384Y-103706264D01*
X136732165Y-103774032D01*
X136732167Y-103774033D01*
X136732170Y-103774035D01*
X136946337Y-103873903D01*
X136946343Y-103873904D01*
X136946344Y-103873905D01*
X136963411Y-103878478D01*
X137174592Y-103935063D01*
X137351034Y-103950500D01*
X137409999Y-103955659D01*
X137410000Y-103955659D01*
X137410001Y-103955659D01*
X137454005Y-103951809D01*
X137645408Y-103935063D01*
X137873663Y-103873903D01*
X138087830Y-103774035D01*
X138281401Y-103638495D01*
X138448495Y-103471401D01*
X138578426Y-103285841D01*
X138633002Y-103242217D01*
X138702500Y-103235023D01*
X138764855Y-103266546D01*
X138781575Y-103285842D01*
X138911281Y-103471082D01*
X138911505Y-103471401D01*
X139078599Y-103638495D01*
X139175384Y-103706264D01*
X139272165Y-103774032D01*
X139272167Y-103774033D01*
X139272170Y-103774035D01*
X139486337Y-103873903D01*
X139486343Y-103873904D01*
X139486344Y-103873905D01*
X139503411Y-103878478D01*
X139714592Y-103935063D01*
X139818541Y-103944157D01*
X139883609Y-103969609D01*
X139895414Y-103980004D01*
X140503229Y-104587819D01*
X140536714Y-104649142D01*
X140531730Y-104718834D01*
X140489858Y-104774767D01*
X140424394Y-104799184D01*
X140415548Y-104799500D01*
X117024500Y-104799500D01*
X116957461Y-104779815D01*
X116911706Y-104727011D01*
X116900500Y-104675500D01*
X116900500Y-100900002D01*
X117295153Y-100900002D01*
X117314526Y-101257314D01*
X117314527Y-101257331D01*
X117372415Y-101610431D01*
X117372421Y-101610457D01*
X117468147Y-101955232D01*
X117468149Y-101955239D01*
X117600597Y-102287659D01*
X117600606Y-102287677D01*
X117768218Y-102603827D01*
X117969033Y-102900007D01*
X118096441Y-103050003D01*
X118096442Y-103050004D01*
X119302265Y-101844179D01*
X119465130Y-102034870D01*
X119655818Y-102197732D01*
X118447255Y-103406295D01*
X118447256Y-103406296D01*
X118460485Y-103418828D01*
X118460486Y-103418829D01*
X118745367Y-103635388D01*
X118745370Y-103635390D01*
X119051990Y-103819876D01*
X119376739Y-103970122D01*
X119376744Y-103970123D01*
X119715855Y-104084383D01*
X120065339Y-104161311D01*
X120421075Y-104199999D01*
X120421085Y-104200000D01*
X120778915Y-104200000D01*
X120778924Y-104199999D01*
X121134660Y-104161311D01*
X121484144Y-104084383D01*
X121823255Y-103970123D01*
X121823260Y-103970122D01*
X122148009Y-103819876D01*
X122454629Y-103635390D01*
X122454632Y-103635388D01*
X122739504Y-103418836D01*
X122752742Y-103406294D01*
X121544180Y-102197733D01*
X121734870Y-102034870D01*
X121897733Y-101844180D01*
X123103556Y-103050003D01*
X123230964Y-102900008D01*
X123230975Y-102899994D01*
X123431781Y-102603827D01*
X123599393Y-102287677D01*
X123599402Y-102287659D01*
X123731850Y-101955239D01*
X123731852Y-101955232D01*
X123827578Y-101610457D01*
X123827584Y-101610431D01*
X123885472Y-101257331D01*
X123885473Y-101257314D01*
X123904847Y-100900002D01*
X123904847Y-100899997D01*
X123885473Y-100542685D01*
X123885472Y-100542668D01*
X123827584Y-100189568D01*
X123827578Y-100189542D01*
X123731852Y-99844767D01*
X123731850Y-99844760D01*
X123599402Y-99512340D01*
X123599392Y-99512318D01*
X123431781Y-99196172D01*
X123230966Y-98899992D01*
X123103557Y-98749995D01*
X123103556Y-98749994D01*
X121897732Y-99955818D01*
X121734870Y-99765130D01*
X121544179Y-99602265D01*
X122696446Y-98450000D01*
X123950001Y-98450000D01*
X123950001Y-99274986D01*
X123960494Y-99377697D01*
X124015641Y-99544119D01*
X124015643Y-99544124D01*
X124107684Y-99693345D01*
X124231654Y-99817315D01*
X124380875Y-99909356D01*
X124380880Y-99909358D01*
X124547302Y-99964505D01*
X124547309Y-99964506D01*
X124650019Y-99974999D01*
X125237499Y-99974999D01*
X125237500Y-99974998D01*
X125237500Y-98450000D01*
X125737500Y-98450000D01*
X125737500Y-99974999D01*
X126324972Y-99974999D01*
X126324986Y-99974998D01*
X126427697Y-99964505D01*
X126594119Y-99909358D01*
X126594124Y-99909356D01*
X126743345Y-99817315D01*
X126867315Y-99693345D01*
X126959356Y-99544124D01*
X126959358Y-99544119D01*
X127014505Y-99377697D01*
X127014506Y-99377690D01*
X127024999Y-99274986D01*
X127025000Y-99274973D01*
X127025000Y-98450000D01*
X125737500Y-98450000D01*
X125237500Y-98450000D01*
X123950001Y-98450000D01*
X122696446Y-98450000D01*
X122752743Y-98393703D01*
X122752742Y-98393702D01*
X122739514Y-98381171D01*
X122739513Y-98381170D01*
X122454632Y-98164611D01*
X122454629Y-98164609D01*
X122148009Y-97980123D01*
X122082900Y-97950000D01*
X123950000Y-97950000D01*
X125237500Y-97950000D01*
X125237500Y-96425000D01*
X125737500Y-96425000D01*
X125737500Y-97950000D01*
X127024999Y-97950000D01*
X127024999Y-97125028D01*
X127024998Y-97125013D01*
X127014505Y-97022302D01*
X126959358Y-96855880D01*
X126959356Y-96855875D01*
X126867315Y-96706654D01*
X126743345Y-96582684D01*
X126594124Y-96490643D01*
X126594119Y-96490641D01*
X126427697Y-96435494D01*
X126427690Y-96435493D01*
X126324986Y-96425000D01*
X125737500Y-96425000D01*
X125237500Y-96425000D01*
X124650028Y-96425000D01*
X124650012Y-96425001D01*
X124547302Y-96435494D01*
X124380880Y-96490641D01*
X124380875Y-96490643D01*
X124231654Y-96582684D01*
X124107684Y-96706654D01*
X124015643Y-96855875D01*
X124015641Y-96855880D01*
X123960494Y-97022302D01*
X123960493Y-97022309D01*
X123950000Y-97125013D01*
X123950000Y-97950000D01*
X122082900Y-97950000D01*
X121823260Y-97829877D01*
X121823255Y-97829876D01*
X121484144Y-97715616D01*
X121134660Y-97638688D01*
X120778924Y-97600000D01*
X120421075Y-97600000D01*
X120065339Y-97638688D01*
X119715855Y-97715616D01*
X119376744Y-97829876D01*
X119376739Y-97829877D01*
X119051990Y-97980123D01*
X118745370Y-98164609D01*
X118745367Y-98164611D01*
X118460491Y-98381166D01*
X118447256Y-98393703D01*
X118447255Y-98393703D01*
X119655819Y-99602266D01*
X119465130Y-99765130D01*
X119302266Y-99955818D01*
X118096442Y-98749994D01*
X118096441Y-98749995D01*
X117969040Y-98899983D01*
X117969033Y-98899993D01*
X117768218Y-99196172D01*
X117600608Y-99512318D01*
X117600597Y-99512340D01*
X117468149Y-99844760D01*
X117468147Y-99844767D01*
X117372421Y-100189542D01*
X117372415Y-100189568D01*
X117314527Y-100542668D01*
X117314526Y-100542685D01*
X117295153Y-100899997D01*
X117295153Y-100900002D01*
X116900500Y-100900002D01*
X116900500Y-92600002D01*
X117294652Y-92600002D01*
X117297939Y-92660628D01*
X117313511Y-92947844D01*
X117314028Y-92957368D01*
X117314029Y-92957385D01*
X117371926Y-93310539D01*
X117371932Y-93310565D01*
X117467672Y-93655392D01*
X117467674Y-93655399D01*
X117600142Y-93987870D01*
X117600151Y-93987888D01*
X117767784Y-94304077D01*
X117767787Y-94304082D01*
X117767789Y-94304085D01*
X117958588Y-94585493D01*
X117968634Y-94600309D01*
X117968641Y-94600319D01*
X118188922Y-94859653D01*
X118200332Y-94873086D01*
X118460163Y-95119211D01*
X118460170Y-95119216D01*
X118460172Y-95119218D01*
X118486349Y-95139117D01*
X118745081Y-95335800D01*
X119051747Y-95520315D01*
X119051749Y-95520316D01*
X119051751Y-95520317D01*
X119051755Y-95520319D01*
X119332041Y-95649992D01*
X119376565Y-95670591D01*
X119715726Y-95784868D01*
X120065254Y-95861805D01*
X120421052Y-95900500D01*
X120421058Y-95900500D01*
X120778942Y-95900500D01*
X120778948Y-95900500D01*
X121134746Y-95861805D01*
X121484274Y-95784868D01*
X121823435Y-95670591D01*
X122148253Y-95520315D01*
X122454919Y-95335800D01*
X122739837Y-95119211D01*
X122999668Y-94873086D01*
X123231365Y-94600311D01*
X123432211Y-94304085D01*
X123599853Y-93987880D01*
X123710809Y-93709401D01*
X123753907Y-93654412D01*
X123819896Y-93631451D01*
X123887823Y-93647812D01*
X123936122Y-93698300D01*
X123950000Y-93755301D01*
X123950000Y-94374971D01*
X123950001Y-94374987D01*
X123960494Y-94477697D01*
X124015641Y-94644119D01*
X124015643Y-94644124D01*
X124107684Y-94793345D01*
X124231654Y-94917315D01*
X124380875Y-95009356D01*
X124380880Y-95009358D01*
X124547302Y-95064505D01*
X124547309Y-95064506D01*
X124650019Y-95074999D01*
X125237499Y-95074999D01*
X125237500Y-95074998D01*
X125237500Y-93550000D01*
X125737500Y-93550000D01*
X125737500Y-95074999D01*
X126324972Y-95074999D01*
X126324986Y-95074998D01*
X126427697Y-95064505D01*
X126594119Y-95009358D01*
X126594124Y-95009356D01*
X126743345Y-94917315D01*
X126867315Y-94793345D01*
X126959356Y-94644124D01*
X126959358Y-94644119D01*
X127014505Y-94477697D01*
X127014506Y-94477690D01*
X127024999Y-94374986D01*
X127025000Y-94374973D01*
X127025000Y-93550000D01*
X125737500Y-93550000D01*
X125237500Y-93550000D01*
X125237500Y-91525000D01*
X125737500Y-91525000D01*
X125737500Y-93050000D01*
X127024999Y-93050000D01*
X127024999Y-92225028D01*
X127024998Y-92225013D01*
X127014505Y-92122302D01*
X126959358Y-91955880D01*
X126959356Y-91955875D01*
X126867315Y-91806654D01*
X126743345Y-91682684D01*
X126594124Y-91590643D01*
X126594119Y-91590641D01*
X126427697Y-91535494D01*
X126427690Y-91535493D01*
X126324986Y-91525000D01*
X125737500Y-91525000D01*
X125237500Y-91525000D01*
X124650028Y-91525000D01*
X124650012Y-91525001D01*
X124547302Y-91535494D01*
X124380880Y-91590641D01*
X124380875Y-91590643D01*
X124231654Y-91682684D01*
X124107682Y-91806656D01*
X124048071Y-91903301D01*
X123996123Y-91950025D01*
X123927160Y-91961246D01*
X123863078Y-91933403D01*
X123824223Y-91875334D01*
X123823053Y-91871376D01*
X123819247Y-91857669D01*
X123740388Y-91573641D01*
X123732327Y-91544607D01*
X123732325Y-91544600D01*
X123728696Y-91535493D01*
X123673660Y-91397362D01*
X123599857Y-91212129D01*
X123599848Y-91212111D01*
X123599653Y-91211744D01*
X123504212Y-91031722D01*
X123432215Y-90895922D01*
X123432213Y-90895919D01*
X123432211Y-90895915D01*
X123231365Y-90599689D01*
X123231361Y-90599684D01*
X123231358Y-90599680D01*
X122999668Y-90326914D01*
X122984570Y-90312612D01*
X122739837Y-90080789D01*
X122739830Y-90080783D01*
X122739827Y-90080781D01*
X122643970Y-90007913D01*
X122454919Y-89864200D01*
X122148253Y-89679685D01*
X122148252Y-89679684D01*
X122148248Y-89679682D01*
X122148244Y-89679680D01*
X121823447Y-89529414D01*
X121823441Y-89529411D01*
X121823435Y-89529409D01*
X121653854Y-89472270D01*
X121484273Y-89415131D01*
X121134744Y-89338194D01*
X120778949Y-89299500D01*
X120778948Y-89299500D01*
X120421052Y-89299500D01*
X120421050Y-89299500D01*
X120065255Y-89338194D01*
X119715726Y-89415131D01*
X119459970Y-89501306D01*
X119376565Y-89529409D01*
X119376562Y-89529410D01*
X119376563Y-89529410D01*
X119376552Y-89529414D01*
X119051755Y-89679680D01*
X119051751Y-89679682D01*
X118839241Y-89807546D01*
X118745081Y-89864200D01*
X118700277Y-89898259D01*
X118460172Y-90080781D01*
X118460163Y-90080789D01*
X118200331Y-90326914D01*
X117968641Y-90599680D01*
X117968634Y-90599690D01*
X117767790Y-90895913D01*
X117767784Y-90895922D01*
X117600151Y-91212111D01*
X117600142Y-91212129D01*
X117467674Y-91544600D01*
X117467672Y-91544607D01*
X117371932Y-91889434D01*
X117371926Y-91889460D01*
X117314029Y-92242614D01*
X117314028Y-92242631D01*
X117294652Y-92599997D01*
X117294652Y-92600002D01*
X116900500Y-92600002D01*
X116900500Y-83692499D01*
X122999999Y-83692499D01*
X123000000Y-83692500D01*
X124500000Y-83692500D01*
X124500000Y-84192500D01*
X123000001Y-84192500D01*
X123000001Y-85006692D01*
X123010400Y-85138832D01*
X123065377Y-85357019D01*
X123158428Y-85561874D01*
X123158431Y-85561880D01*
X123286559Y-85746823D01*
X123286569Y-85746835D01*
X123445664Y-85905930D01*
X123445676Y-85905940D01*
X123630619Y-86034068D01*
X123630625Y-86034071D01*
X123835480Y-86127122D01*
X124053667Y-86182099D01*
X124185807Y-86192500D01*
X124749999Y-86192499D01*
X124750000Y-86192498D01*
X124750000Y-85376186D01*
X124790156Y-85401993D01*
X124928111Y-85442500D01*
X125071889Y-85442500D01*
X125209844Y-85401993D01*
X125250000Y-85376186D01*
X125250000Y-86192499D01*
X125814192Y-86192499D01*
X125946332Y-86182099D01*
X126164519Y-86127122D01*
X126369374Y-86034071D01*
X126369380Y-86034068D01*
X126554323Y-85905940D01*
X126554335Y-85905930D01*
X126713430Y-85746835D01*
X126713440Y-85746823D01*
X126841568Y-85561880D01*
X126841571Y-85561874D01*
X126934622Y-85357019D01*
X126989599Y-85138832D01*
X127000000Y-85006694D01*
X127000000Y-84192500D01*
X125500000Y-84192500D01*
X125500000Y-83692500D01*
X126999999Y-83692500D01*
X126999999Y-82878308D01*
X126989599Y-82746167D01*
X126934622Y-82527980D01*
X126841571Y-82323125D01*
X126841568Y-82323119D01*
X126713440Y-82138176D01*
X126713430Y-82138164D01*
X126554335Y-81979069D01*
X126554323Y-81979059D01*
X126369380Y-81850931D01*
X126369374Y-81850928D01*
X126164519Y-81757877D01*
X125946332Y-81702900D01*
X125814194Y-81692500D01*
X125250000Y-81692500D01*
X125250000Y-82508813D01*
X125209844Y-82483007D01*
X125071889Y-82442500D01*
X124928111Y-82442500D01*
X124790156Y-82483007D01*
X124749999Y-82508814D01*
X124749999Y-81692500D01*
X124185808Y-81692501D01*
X124053667Y-81702900D01*
X123835480Y-81757877D01*
X123630625Y-81850928D01*
X123630619Y-81850931D01*
X123445676Y-81979059D01*
X123445664Y-81979069D01*
X123286569Y-82138164D01*
X123286559Y-82138176D01*
X123158431Y-82323119D01*
X123158428Y-82323125D01*
X123065377Y-82527980D01*
X123010400Y-82746167D01*
X123000000Y-82878306D01*
X122999999Y-83692499D01*
X116900500Y-83692499D01*
X116900500Y-79124500D01*
X116920185Y-79057461D01*
X116972989Y-79011706D01*
X117024500Y-79000500D01*
X180975500Y-79000500D01*
X181042539Y-79020185D01*
G37*
%TD.AperFunction*%
%TA.AperFunction,Conductor*%
G36*
X133689285Y-96970185D02*
G01*
X133735040Y-97022989D01*
X133744984Y-97092147D01*
X133727785Y-97139597D01*
X133640643Y-97280875D01*
X133640641Y-97280880D01*
X133585494Y-97447302D01*
X133585493Y-97447309D01*
X133575000Y-97550013D01*
X133575000Y-97600000D01*
X134926000Y-97600000D01*
X134993039Y-97619685D01*
X135038794Y-97672489D01*
X135050000Y-97724000D01*
X135050000Y-98824769D01*
X135030315Y-98891808D01*
X135013681Y-98912450D01*
X133512951Y-100413181D01*
X133451628Y-100446666D01*
X133425270Y-100449500D01*
X132774500Y-100449500D01*
X132707461Y-100429815D01*
X132661706Y-100377011D01*
X132650500Y-100325500D01*
X132650500Y-100055300D01*
X132670185Y-99988261D01*
X132722989Y-99942506D01*
X132735482Y-99937599D01*
X132819334Y-99909814D01*
X132968656Y-99817712D01*
X133092712Y-99693656D01*
X133184814Y-99544334D01*
X133239999Y-99377797D01*
X133250500Y-99275009D01*
X133250499Y-98100000D01*
X133575001Y-98100000D01*
X133575001Y-98149986D01*
X133585494Y-98252697D01*
X133640641Y-98419119D01*
X133640643Y-98419124D01*
X133732684Y-98568345D01*
X133856654Y-98692315D01*
X134005875Y-98784356D01*
X134005880Y-98784358D01*
X134172302Y-98839505D01*
X134172309Y-98839506D01*
X134275019Y-98849999D01*
X134549999Y-98849999D01*
X134550000Y-98849998D01*
X134550000Y-98100000D01*
X133575001Y-98100000D01*
X133250499Y-98100000D01*
X133250499Y-97124992D01*
X133247997Y-97100500D01*
X133246629Y-97087100D01*
X133259399Y-97018407D01*
X133307281Y-96967524D01*
X133369987Y-96950500D01*
X133622246Y-96950500D01*
X133689285Y-96970185D01*
G37*
%TD.AperFunction*%
%TA.AperFunction,Conductor*%
G36*
X153852199Y-83238330D02*
G01*
X153874106Y-83263611D01*
X153889847Y-83287704D01*
X153889851Y-83287710D01*
X154052873Y-83464797D01*
X154052883Y-83464806D01*
X154242831Y-83612649D01*
X154242840Y-83612655D01*
X154342237Y-83666445D01*
X154391828Y-83715664D01*
X154406936Y-83783880D01*
X154382766Y-83849436D01*
X154326991Y-83891518D01*
X154283221Y-83899500D01*
X154174999Y-83899500D01*
X154174980Y-83899501D01*
X154072203Y-83910000D01*
X154072200Y-83910001D01*
X153905668Y-83965185D01*
X153905663Y-83965187D01*
X153756342Y-84057289D01*
X153632289Y-84181342D01*
X153555245Y-84306251D01*
X153503297Y-84352975D01*
X153434334Y-84364198D01*
X153370252Y-84336354D01*
X153344167Y-84306251D01*
X153267315Y-84181654D01*
X153143345Y-84057684D01*
X153002202Y-83970626D01*
X152955477Y-83918678D01*
X152944256Y-83849715D01*
X152972099Y-83785633D01*
X153027035Y-83747806D01*
X153085664Y-83727679D01*
X153297439Y-83613072D01*
X153487463Y-83465171D01*
X153650551Y-83288010D01*
X153666489Y-83263613D01*
X153719631Y-83218258D01*
X153788862Y-83208831D01*
X153852199Y-83238330D01*
G37*
%TD.AperFunction*%
%TD*%
M02*
