%TF.GenerationSoftware,KiCad,Pcbnew,7.0.6*%
%TF.CreationDate,2024-04-30T22:33:33+02:00*%
%TF.ProjectId,MatchboxV2_HC,4d617463-6862-46f7-9856-325f48432e6b,rev?*%
%TF.SameCoordinates,Original*%
%TF.FileFunction,Copper,L2,Bot*%
%TF.FilePolarity,Positive*%
%FSLAX46Y46*%
G04 Gerber Fmt 4.6, Leading zero omitted, Abs format (unit mm)*
G04 Created by KiCad (PCBNEW 7.0.6) date 2024-04-30 22:33:33*
%MOMM*%
%LPD*%
G01*
G04 APERTURE LIST*
G04 Aperture macros list*
%AMRoundRect*
0 Rectangle with rounded corners*
0 $1 Rounding radius*
0 $2 $3 $4 $5 $6 $7 $8 $9 X,Y pos of 4 corners*
0 Add a 4 corners polygon primitive as box body*
4,1,4,$2,$3,$4,$5,$6,$7,$8,$9,$2,$3,0*
0 Add four circle primitives for the rounded corners*
1,1,$1+$1,$2,$3*
1,1,$1+$1,$4,$5*
1,1,$1+$1,$6,$7*
1,1,$1+$1,$8,$9*
0 Add four rect primitives between the rounded corners*
20,1,$1+$1,$2,$3,$4,$5,0*
20,1,$1+$1,$4,$5,$6,$7,0*
20,1,$1+$1,$6,$7,$8,$9,0*
20,1,$1+$1,$8,$9,$2,$3,0*%
G04 Aperture macros list end*
%TA.AperFunction,ComponentPad*%
%ADD10R,1.905000X2.000000*%
%TD*%
%TA.AperFunction,ComponentPad*%
%ADD11O,1.905000X2.000000*%
%TD*%
%TA.AperFunction,ComponentPad*%
%ADD12R,2.400000X2.400000*%
%TD*%
%TA.AperFunction,ComponentPad*%
%ADD13C,2.400000*%
%TD*%
%TA.AperFunction,ComponentPad*%
%ADD14C,3.600000*%
%TD*%
%TA.AperFunction,ConnectorPad*%
%ADD15C,5.600000*%
%TD*%
%TA.AperFunction,ComponentPad*%
%ADD16R,3.500000X3.500000*%
%TD*%
%TA.AperFunction,ComponentPad*%
%ADD17RoundRect,0.750000X-0.750000X-1.000000X0.750000X-1.000000X0.750000X1.000000X-0.750000X1.000000X0*%
%TD*%
%TA.AperFunction,ComponentPad*%
%ADD18RoundRect,0.875000X-0.875000X-0.875000X0.875000X-0.875000X0.875000X0.875000X-0.875000X0.875000X0*%
%TD*%
%TA.AperFunction,ComponentPad*%
%ADD19R,1.700000X1.700000*%
%TD*%
%TA.AperFunction,ComponentPad*%
%ADD20O,1.700000X1.700000*%
%TD*%
%TA.AperFunction,ViaPad*%
%ADD21C,0.600000*%
%TD*%
%TA.AperFunction,ViaPad*%
%ADD22C,0.800000*%
%TD*%
%TA.AperFunction,Conductor*%
%ADD23C,0.500000*%
%TD*%
%TA.AperFunction,Conductor*%
%ADD24C,0.250000*%
%TD*%
%TA.AperFunction,Conductor*%
%ADD25C,2.000000*%
%TD*%
%TA.AperFunction,Conductor*%
%ADD26C,3.800000*%
%TD*%
%TA.AperFunction,Conductor*%
%ADD27C,1.500000*%
%TD*%
%TA.AperFunction,Conductor*%
%ADD28C,4.000000*%
%TD*%
G04 APERTURE END LIST*
D10*
%TO.P,Q2,1,G*%
%TO.N,/FET2*%
X149960000Y-82345000D03*
D11*
%TO.P,Q2,2,D*%
%TO.N,/RGB-G*%
X152500000Y-82345000D03*
%TO.P,Q2,3,S*%
%TO.N,/GND*%
X155040000Y-82345000D03*
%TD*%
D12*
%TO.P,J4,1,Pin_1*%
%TO.N,/GND*%
X176000000Y-102400000D03*
D13*
%TO.P,J4,2,Pin_2*%
%TO.N,/3V3*%
X176000000Y-98900000D03*
%TO.P,J4,3,Pin_3*%
%TO.N,/IR*%
X176000000Y-95400000D03*
%TO.P,J4,4,Pin_4*%
%TO.N,/RGB-B*%
X176000000Y-91900000D03*
%TO.P,J4,5,Pin_5*%
%TO.N,/RGB-G*%
X176000000Y-88400000D03*
%TO.P,J4,6,Pin_6*%
%TO.N,/RGB-R*%
X176000000Y-84900000D03*
%TO.P,J4,7,Pin_7*%
%TO.N,/VCC*%
X176000000Y-81400000D03*
%TD*%
D10*
%TO.P,Q1,1,G*%
%TO.N,/FET1*%
X137560000Y-82345000D03*
D11*
%TO.P,Q1,2,D*%
%TO.N,/RGB-B*%
X140100000Y-82345000D03*
%TO.P,Q1,3,S*%
%TO.N,/GND*%
X142640000Y-82345000D03*
%TD*%
D14*
%TO.P,H1,1,1*%
%TO.N,/VCC*%
X120600000Y-92600000D03*
D15*
X120600000Y-92600000D03*
%TD*%
D16*
%TO.P,J3,1,Pin_1*%
%TO.N,/VCC*%
X131000000Y-83942500D03*
D17*
%TO.P,J3,2,Pin_2*%
%TO.N,/GND*%
X125000000Y-83942500D03*
D18*
%TO.P,J3,3,Pin_3*%
X128000000Y-88642500D03*
%TD*%
D19*
%TO.P,J1,1,Pin_1*%
%TO.N,/3V3*%
X127250000Y-102600000D03*
D20*
%TO.P,J1,2,Pin_2*%
%TO.N,/GND*%
X129790000Y-102600000D03*
%TO.P,J1,3,Pin_3*%
%TO.N,/RX*%
X132330000Y-102600000D03*
%TO.P,J1,4,Pin_4*%
%TO.N,/TX*%
X134870000Y-102600000D03*
%TO.P,J1,5,Pin_5*%
%TO.N,/FLS*%
X137410000Y-102600000D03*
%TO.P,J1,6,Pin_6*%
%TO.N,/RST*%
X139950000Y-102600000D03*
%TD*%
D14*
%TO.P,H2,1,1*%
%TO.N,/GND*%
X120600000Y-100900000D03*
D15*
X120600000Y-100900000D03*
%TD*%
D10*
%TO.P,Q3,1,G*%
%TO.N,/FET3*%
X162400000Y-82300000D03*
D11*
%TO.P,Q3,2,D*%
%TO.N,/RGB-R*%
X164940000Y-82300000D03*
%TO.P,Q3,3,S*%
%TO.N,/GND*%
X167480000Y-82300000D03*
%TD*%
D21*
%TO.N,/GND*%
X133500000Y-97800000D03*
D22*
%TO.N,/3V3*%
X165500000Y-102500000D03*
X155700000Y-91000000D03*
X160500000Y-101000000D03*
X152700000Y-100400000D03*
%TO.N,/RX*%
X153500000Y-88000000D03*
%TO.N,/TX*%
X151500000Y-87800000D03*
%TO.N,/FLS*%
X159400000Y-91400000D03*
%TO.N,/VCC*%
X129200000Y-94300000D03*
%TO.N,Net-(U1-EN)*%
X171300000Y-103600000D03*
X155500000Y-103500000D03*
%TO.N,/FET3*%
X161300000Y-96100000D03*
X159500000Y-102400000D03*
%TD*%
D23*
%TO.N,/3V3*%
X160500000Y-101000000D02*
X165000000Y-101000000D01*
D24*
X158400000Y-91400000D02*
X158400000Y-94700000D01*
X158000000Y-91000000D02*
X158400000Y-91400000D01*
X158400000Y-94700000D02*
X152700000Y-100400000D01*
X155700000Y-91000000D02*
X158000000Y-91000000D01*
D23*
X165000000Y-101000000D02*
X165500000Y-101500000D01*
X165500000Y-101500000D02*
X165500000Y-102500000D01*
D24*
%TO.N,/RX*%
X153500000Y-88000000D02*
X152900000Y-88000000D01*
X142641826Y-86905000D02*
X142305000Y-87241826D01*
X142305000Y-87241826D02*
X142305000Y-91095000D01*
X151805000Y-86905000D02*
X142641826Y-86905000D01*
X132330000Y-101070000D02*
X132330000Y-102300000D01*
X142305000Y-91095000D02*
X132330000Y-101070000D01*
X152900000Y-88000000D02*
X151805000Y-86905000D01*
%TO.N,/TX*%
X142755000Y-87428222D02*
X142828222Y-87355000D01*
X134870000Y-99230000D02*
X142755000Y-91345000D01*
X142828222Y-87355000D02*
X151055000Y-87355000D01*
X151055000Y-87355000D02*
X151500000Y-87800000D01*
X142755000Y-91345000D02*
X142755000Y-87428222D01*
X134870000Y-102300000D02*
X134870000Y-99230000D01*
%TO.N,/FLS*%
X150455000Y-103845000D02*
X138955000Y-103845000D01*
X159400000Y-91400000D02*
X159400000Y-94900000D01*
X138955000Y-103845000D02*
X137410000Y-102300000D01*
X159400000Y-94900000D02*
X150455000Y-103845000D01*
D25*
%TO.N,/VCC*%
X131000000Y-83900000D02*
X131000000Y-81300000D01*
D26*
X134700000Y-92700000D02*
X133200000Y-94200000D01*
D25*
X131000000Y-81300000D02*
X132200000Y-80100000D01*
D26*
X134700000Y-87642500D02*
X134700000Y-92700000D01*
D25*
X132200000Y-80100000D02*
X174700000Y-80100000D01*
X174700000Y-80100000D02*
X176000000Y-81400000D01*
D26*
X129100000Y-94200000D02*
X122800000Y-94200000D01*
X133200000Y-94200000D02*
X129300000Y-94200000D01*
D27*
X131000000Y-83900000D02*
X131000000Y-83942500D01*
D26*
X131000000Y-83942500D02*
X134700000Y-87642500D01*
D28*
X122500000Y-93900000D02*
X120900000Y-92300000D01*
D26*
X122800000Y-94200000D02*
X122500000Y-93900000D01*
D24*
%TO.N,Net-(U1-EN)*%
X171300000Y-103600000D02*
X155500000Y-103600000D01*
D27*
%TO.N,/RGB-B*%
X157550000Y-86650000D02*
X162800000Y-91900000D01*
X153450000Y-86650000D02*
X157550000Y-86650000D01*
X140000000Y-82400000D02*
X140000000Y-82598041D01*
X162800000Y-91900000D02*
X176000000Y-91900000D01*
X142301959Y-84900000D02*
X151700000Y-84900000D01*
X151700000Y-84900000D02*
X153450000Y-86650000D01*
X140000000Y-82598041D02*
X142301959Y-84900000D01*
%TO.N,/RGB-G*%
X152500000Y-82400000D02*
X152500000Y-82598041D01*
X162250000Y-88400000D02*
X176000000Y-88400000D01*
X154251959Y-84350000D02*
X158200000Y-84350000D01*
X152500000Y-82598041D02*
X154251959Y-84350000D01*
X158200000Y-84350000D02*
X162250000Y-88400000D01*
D24*
%TO.N,/FET3*%
X159500000Y-97900000D02*
X161300000Y-96100000D01*
X159500000Y-102400000D02*
X159500000Y-97900000D01*
D27*
%TO.N,/RGB-R*%
X167301959Y-84900000D02*
X176000000Y-84900000D01*
X165000000Y-82598041D02*
X167301959Y-84900000D01*
X165000000Y-82400000D02*
X165000000Y-82598041D01*
%TD*%
%TA.AperFunction,Conductor*%
%TO.N,/GND*%
G36*
X130945148Y-79020185D02*
G01*
X130990903Y-79072989D01*
X131000847Y-79142147D01*
X130971822Y-79205703D01*
X130965790Y-79212181D01*
X130007588Y-80170382D01*
X130001827Y-80175471D01*
X129980256Y-80192262D01*
X129917049Y-80260922D01*
X129895102Y-80282869D01*
X129895098Y-80282874D01*
X129875033Y-80306564D01*
X129844641Y-80339578D01*
X129811834Y-80375216D01*
X129796892Y-80398087D01*
X129792297Y-80404250D01*
X129774635Y-80425104D01*
X129726860Y-80505278D01*
X129675828Y-80583390D01*
X129675824Y-80583397D01*
X129664853Y-80608409D01*
X129661335Y-80615244D01*
X129647348Y-80638717D01*
X129647343Y-80638726D01*
X129613420Y-80725663D01*
X129575935Y-80811123D01*
X129569226Y-80837616D01*
X129566881Y-80844935D01*
X129556953Y-80870379D01*
X129556948Y-80870395D01*
X129537801Y-80961711D01*
X129514892Y-81052175D01*
X129514890Y-81052185D01*
X129512635Y-81079408D01*
X129511526Y-81087016D01*
X129505920Y-81113750D01*
X129505919Y-81113763D01*
X129502062Y-81207009D01*
X129499500Y-81237936D01*
X129499500Y-81268964D01*
X129495642Y-81362219D01*
X129495643Y-81362221D01*
X129499023Y-81389345D01*
X129499499Y-81397019D01*
X129499499Y-81568000D01*
X129479814Y-81635039D01*
X129427010Y-81680794D01*
X129375500Y-81692000D01*
X129202130Y-81692000D01*
X129202123Y-81692001D01*
X129142516Y-81698408D01*
X129007671Y-81748702D01*
X129007664Y-81748706D01*
X128892455Y-81834952D01*
X128892452Y-81834955D01*
X128806206Y-81950164D01*
X128806202Y-81950171D01*
X128755908Y-82085017D01*
X128749501Y-82144616D01*
X128749499Y-82144635D01*
X128749499Y-83083539D01*
X128741168Y-83128222D01*
X128705249Y-83221203D01*
X128705246Y-83221212D01*
X128631851Y-83520573D01*
X128631848Y-83520588D01*
X128597338Y-83826869D01*
X128597337Y-83826877D01*
X128602279Y-84135073D01*
X128602279Y-84135080D01*
X128646590Y-84440107D01*
X128729543Y-84736966D01*
X128729544Y-84736967D01*
X128739677Y-84760887D01*
X128749500Y-84809256D01*
X128749500Y-85740370D01*
X128749501Y-85740376D01*
X128755908Y-85799983D01*
X128806202Y-85934828D01*
X128806206Y-85934835D01*
X128892452Y-86050044D01*
X128892455Y-86050047D01*
X129007664Y-86136293D01*
X129007673Y-86136298D01*
X129056506Y-86154511D01*
X129112440Y-86196381D01*
X129136858Y-86261845D01*
X129122007Y-86330118D01*
X129072603Y-86379524D01*
X129006598Y-86394518D01*
X128968592Y-86392500D01*
X128250000Y-86392500D01*
X128250000Y-88142500D01*
X127750000Y-88142500D01*
X127750000Y-86392500D01*
X127749999Y-86392500D01*
X127031409Y-86392501D01*
X126978809Y-86395294D01*
X126749012Y-86439737D01*
X126530024Y-86522379D01*
X126328158Y-86640839D01*
X126328151Y-86640844D01*
X126149213Y-86791711D01*
X126149211Y-86791713D01*
X125998344Y-86970651D01*
X125998339Y-86970658D01*
X125879879Y-87172524D01*
X125797237Y-87391512D01*
X125752794Y-87621308D01*
X125752794Y-87621309D01*
X125750000Y-87673909D01*
X125750000Y-88392500D01*
X126566314Y-88392500D01*
X126540507Y-88432656D01*
X126500000Y-88570611D01*
X126500000Y-88714389D01*
X126540507Y-88852344D01*
X126566314Y-88892500D01*
X125750001Y-88892500D01*
X125750001Y-89611091D01*
X125752794Y-89663690D01*
X125797237Y-89893487D01*
X125879879Y-90112475D01*
X125998339Y-90314341D01*
X125998344Y-90314348D01*
X126149211Y-90493286D01*
X126149213Y-90493288D01*
X126328151Y-90644155D01*
X126328158Y-90644160D01*
X126530024Y-90762620D01*
X126749012Y-90845262D01*
X126978808Y-90889705D01*
X127031408Y-90892499D01*
X127749999Y-90892499D01*
X127749999Y-90892498D01*
X127750000Y-89142500D01*
X128250000Y-89142500D01*
X128250000Y-90892499D01*
X128968591Y-90892499D01*
X129021190Y-90889705D01*
X129250987Y-90845262D01*
X129469975Y-90762620D01*
X129671841Y-90644160D01*
X129671848Y-90644155D01*
X129850786Y-90493288D01*
X129850788Y-90493286D01*
X130001655Y-90314348D01*
X130001660Y-90314341D01*
X130120120Y-90112475D01*
X130202762Y-89893487D01*
X130247205Y-89663691D01*
X130247205Y-89663690D01*
X130250000Y-89611091D01*
X130250000Y-88892500D01*
X129433686Y-88892500D01*
X129459493Y-88852344D01*
X129500000Y-88714389D01*
X129500000Y-88570611D01*
X129459493Y-88432656D01*
X129433686Y-88392500D01*
X130249999Y-88392500D01*
X130249999Y-87673909D01*
X130247205Y-87621309D01*
X130202762Y-87391512D01*
X130120120Y-87172524D01*
X130001660Y-86970658D01*
X130001655Y-86970651D01*
X129850788Y-86791713D01*
X129850786Y-86791711D01*
X129671848Y-86640844D01*
X129671841Y-86640839D01*
X129469975Y-86522379D01*
X129250984Y-86439736D01*
X129245840Y-86438741D01*
X129183760Y-86406680D01*
X129148869Y-86346146D01*
X129152244Y-86276358D01*
X129192814Y-86219473D01*
X129257697Y-86193552D01*
X129269376Y-86192999D01*
X129804317Y-86192999D01*
X129871356Y-86212684D01*
X129891998Y-86229318D01*
X132263181Y-88600501D01*
X132296666Y-88661824D01*
X132299500Y-88688182D01*
X132299500Y-91654317D01*
X132279815Y-91721356D01*
X132263183Y-91741996D01*
X132242001Y-91763179D01*
X132180679Y-91796666D01*
X132154318Y-91799500D01*
X123987103Y-91799500D01*
X123920064Y-91779815D01*
X123899422Y-91763181D01*
X123775184Y-91638943D01*
X123743384Y-91584434D01*
X123732325Y-91544601D01*
X123732325Y-91544600D01*
X123732324Y-91544597D01*
X123599853Y-91212120D01*
X123432211Y-90895915D01*
X123231365Y-90599689D01*
X123231361Y-90599684D01*
X123231358Y-90599680D01*
X122999668Y-90326914D01*
X122984570Y-90312612D01*
X122739837Y-90080789D01*
X122739830Y-90080783D01*
X122739827Y-90080781D01*
X122616970Y-89987388D01*
X122454919Y-89864200D01*
X122148253Y-89679685D01*
X122148252Y-89679684D01*
X122148248Y-89679682D01*
X122148244Y-89679680D01*
X121823447Y-89529414D01*
X121823441Y-89529411D01*
X121823435Y-89529409D01*
X121653854Y-89472270D01*
X121484273Y-89415131D01*
X121134744Y-89338194D01*
X120778949Y-89299500D01*
X120778948Y-89299500D01*
X120421052Y-89299500D01*
X120421050Y-89299500D01*
X120065255Y-89338194D01*
X119715726Y-89415131D01*
X119459970Y-89501306D01*
X119376565Y-89529409D01*
X119376562Y-89529410D01*
X119376563Y-89529410D01*
X119376552Y-89529414D01*
X119051755Y-89679680D01*
X119051751Y-89679682D01*
X118962751Y-89733232D01*
X118745081Y-89864200D01*
X118706555Y-89893487D01*
X118460172Y-90080781D01*
X118460163Y-90080789D01*
X118200331Y-90326914D01*
X117968641Y-90599680D01*
X117968634Y-90599690D01*
X117767790Y-90895913D01*
X117767784Y-90895922D01*
X117600151Y-91212111D01*
X117600142Y-91212129D01*
X117467674Y-91544600D01*
X117467672Y-91544607D01*
X117371932Y-91889434D01*
X117371926Y-91889460D01*
X117314029Y-92242614D01*
X117314028Y-92242627D01*
X117314028Y-92242629D01*
X117294652Y-92600000D01*
X117308429Y-92854111D01*
X117314028Y-92957368D01*
X117314029Y-92957385D01*
X117371926Y-93310539D01*
X117371932Y-93310565D01*
X117467672Y-93655392D01*
X117467674Y-93655399D01*
X117600142Y-93987870D01*
X117600151Y-93987888D01*
X117767784Y-94304077D01*
X117767787Y-94304082D01*
X117767789Y-94304085D01*
X117895697Y-94492736D01*
X117968634Y-94600309D01*
X117968641Y-94600319D01*
X118198141Y-94870507D01*
X118200332Y-94873086D01*
X118460163Y-95119211D01*
X118745081Y-95335800D01*
X119051747Y-95520315D01*
X119051749Y-95520316D01*
X119051751Y-95520317D01*
X119051755Y-95520319D01*
X119154350Y-95567784D01*
X119376565Y-95670591D01*
X119715726Y-95784868D01*
X120065254Y-95861805D01*
X120421052Y-95900500D01*
X120421058Y-95900500D01*
X120778943Y-95900500D01*
X120778948Y-95900500D01*
X120919847Y-95885175D01*
X120988619Y-95897495D01*
X121002941Y-95905884D01*
X121224626Y-96056542D01*
X121224628Y-96056543D01*
X121364138Y-96127627D01*
X121370640Y-96131455D01*
X121409260Y-96157485D01*
X121411660Y-96159187D01*
X121487747Y-96215972D01*
X121536014Y-96243155D01*
X121540235Y-96245761D01*
X121562194Y-96260561D01*
X121586166Y-96276718D01*
X121586175Y-96276722D01*
X121586184Y-96276728D01*
X121670997Y-96319259D01*
X121673629Y-96320659D01*
X121714247Y-96343534D01*
X121756318Y-96367228D01*
X121805743Y-96387238D01*
X121807660Y-96388014D01*
X121812182Y-96390059D01*
X121861697Y-96414890D01*
X121903862Y-96429644D01*
X121951276Y-96446235D01*
X121954032Y-96447273D01*
X122042025Y-96482899D01*
X122076464Y-96491929D01*
X122095604Y-96496949D01*
X122100357Y-96498401D01*
X122152628Y-96516692D01*
X122152630Y-96516692D01*
X122152634Y-96516694D01*
X122197864Y-96526257D01*
X122245476Y-96536325D01*
X122248376Y-96537011D01*
X122290190Y-96547975D01*
X122340179Y-96561084D01*
X122340185Y-96561084D01*
X122340192Y-96561086D01*
X122358273Y-96563416D01*
X122395117Y-96568166D01*
X122400002Y-96568997D01*
X122418615Y-96572932D01*
X122454201Y-96580457D01*
X122548805Y-96588054D01*
X122551744Y-96588361D01*
X122645883Y-96600500D01*
X122701274Y-96600500D01*
X122706236Y-96600698D01*
X122761446Y-96605133D01*
X122818360Y-96602394D01*
X122856237Y-96600572D01*
X122859217Y-96600500D01*
X129145883Y-96600500D01*
X133061706Y-96600500D01*
X133068644Y-96600889D01*
X133084377Y-96602662D01*
X133219232Y-96600500D01*
X133276974Y-96600500D01*
X133276979Y-96600500D01*
X133282021Y-96600175D01*
X133294732Y-96599359D01*
X133297676Y-96599242D01*
X133392572Y-96597721D01*
X133447391Y-96589757D01*
X133452316Y-96589242D01*
X133507601Y-96585693D01*
X133600754Y-96567551D01*
X133603671Y-96567055D01*
X133697604Y-96553410D01*
X133750948Y-96538502D01*
X133755754Y-96537364D01*
X133810151Y-96526772D01*
X133900242Y-96496859D01*
X133903053Y-96495999D01*
X133994467Y-96470456D01*
X134045472Y-96448847D01*
X134050124Y-96447094D01*
X134102683Y-96429644D01*
X134188197Y-96388461D01*
X134190857Y-96387258D01*
X134278284Y-96350223D01*
X134326124Y-96322259D01*
X134330479Y-96319943D01*
X134380393Y-96295907D01*
X134459962Y-96244111D01*
X134462425Y-96242591D01*
X134526774Y-96204980D01*
X134544388Y-96194686D01*
X134544389Y-96194685D01*
X134544388Y-96194685D01*
X134544396Y-96194681D01*
X134588248Y-96160845D01*
X134592302Y-96157968D01*
X134620075Y-96139890D01*
X134638720Y-96127754D01*
X134710987Y-96066230D01*
X134713260Y-96064387D01*
X134788433Y-96006387D01*
X134827611Y-95967207D01*
X134831242Y-95963856D01*
X134873424Y-95927948D01*
X134937242Y-95857676D01*
X134939244Y-95855574D01*
X136299625Y-94495192D01*
X136304794Y-94490572D01*
X136317181Y-94480696D01*
X136361695Y-94434730D01*
X136411031Y-94383788D01*
X136451840Y-94342979D01*
X136463560Y-94329649D01*
X136465564Y-94327476D01*
X136531614Y-94259276D01*
X136564752Y-94214871D01*
X136567864Y-94211033D01*
X136604446Y-94169433D01*
X136657485Y-94090737D01*
X136659195Y-94088326D01*
X136715972Y-94012253D01*
X136743159Y-93963977D01*
X136745746Y-93959785D01*
X136776718Y-93913835D01*
X136819275Y-93828967D01*
X136820659Y-93826368D01*
X136867223Y-93743691D01*
X136867223Y-93743689D01*
X136867228Y-93743682D01*
X136888027Y-93692304D01*
X136890051Y-93687829D01*
X136914889Y-93638303D01*
X136946235Y-93548719D01*
X136947273Y-93545967D01*
X136982899Y-93457975D01*
X136996950Y-93404387D01*
X136998398Y-93399651D01*
X137016694Y-93347366D01*
X137036337Y-93254454D01*
X137036999Y-93251662D01*
X137061084Y-93159821D01*
X137068171Y-93104844D01*
X137068991Y-93100015D01*
X137080456Y-93045800D01*
X137088055Y-92951174D01*
X137088354Y-92948304D01*
X137100500Y-92854117D01*
X137100500Y-92798723D01*
X137100699Y-92793759D01*
X137105133Y-92738555D01*
X137102533Y-92684541D01*
X137100572Y-92643762D01*
X137100500Y-92640782D01*
X137100500Y-87780791D01*
X137100890Y-87773844D01*
X137102662Y-87758118D01*
X137100500Y-87623267D01*
X137100500Y-87565521D01*
X137100154Y-87560148D01*
X137099359Y-87547768D01*
X137099242Y-87544818D01*
X137097721Y-87449928D01*
X137089757Y-87395110D01*
X137089241Y-87390169D01*
X137085693Y-87334899D01*
X137067547Y-87241726D01*
X137067057Y-87238842D01*
X137053410Y-87144895D01*
X137038499Y-87091537D01*
X137037365Y-87086744D01*
X137026772Y-87032349D01*
X137026769Y-87032339D01*
X137026769Y-87032338D01*
X136996861Y-86942263D01*
X136995999Y-86939446D01*
X136970456Y-86848033D01*
X136948843Y-86797015D01*
X136947103Y-86792401D01*
X136929644Y-86739817D01*
X136924878Y-86729921D01*
X136911934Y-86703041D01*
X136888458Y-86654293D01*
X136887257Y-86651640D01*
X136850222Y-86564216D01*
X136822262Y-86516379D01*
X136819943Y-86512020D01*
X136795907Y-86462107D01*
X136744130Y-86382564D01*
X136742564Y-86380026D01*
X136694681Y-86298103D01*
X136694680Y-86298102D01*
X136660841Y-86254246D01*
X136657974Y-86250206D01*
X136627754Y-86203780D01*
X136566236Y-86131518D01*
X136564363Y-86129207D01*
X136506390Y-86054070D01*
X136488498Y-86036178D01*
X136467205Y-86014885D01*
X136463847Y-86011245D01*
X136427952Y-85969080D01*
X136427951Y-85969079D01*
X136427948Y-85969076D01*
X136357667Y-85905249D01*
X136355544Y-85903224D01*
X133286818Y-82834498D01*
X133253333Y-82773175D01*
X133250499Y-82746817D01*
X133250499Y-82144629D01*
X133250498Y-82144623D01*
X133250497Y-82144616D01*
X133244091Y-82085017D01*
X133204571Y-81979059D01*
X133193797Y-81950171D01*
X133193793Y-81950164D01*
X133107548Y-81834956D01*
X133107546Y-81834955D01*
X133107546Y-81834954D01*
X133092599Y-81823765D01*
X133050730Y-81767833D01*
X133045746Y-81698142D01*
X133079231Y-81636819D01*
X133140554Y-81603334D01*
X133166912Y-81600500D01*
X135983000Y-81600500D01*
X136050039Y-81620185D01*
X136095794Y-81672989D01*
X136107000Y-81724500D01*
X136107000Y-83392870D01*
X136107001Y-83392876D01*
X136113408Y-83452483D01*
X136163702Y-83587328D01*
X136163706Y-83587335D01*
X136249952Y-83702544D01*
X136249955Y-83702547D01*
X136365164Y-83788793D01*
X136365171Y-83788797D01*
X136500017Y-83839091D01*
X136500016Y-83839091D01*
X136506944Y-83839835D01*
X136559627Y-83845500D01*
X138560372Y-83845499D01*
X138619983Y-83839091D01*
X138754831Y-83788796D01*
X138870046Y-83702546D01*
X138956296Y-83587331D01*
X138960725Y-83575455D01*
X139002593Y-83519521D01*
X139068056Y-83495101D01*
X139136330Y-83509950D01*
X139164589Y-83531104D01*
X141365601Y-85732116D01*
X141370238Y-85737304D01*
X141394451Y-85767666D01*
X141445926Y-85812639D01*
X141448959Y-85815474D01*
X141457430Y-85823945D01*
X141489778Y-85850951D01*
X141563963Y-85915765D01*
X141567712Y-85918005D01*
X141583581Y-85929264D01*
X141586939Y-85932067D01*
X141586942Y-85932070D01*
X141652162Y-85969076D01*
X141672641Y-85980696D01*
X141757195Y-86031215D01*
X141761285Y-86032749D01*
X141778909Y-86040995D01*
X141782708Y-86043151D01*
X141782709Y-86043151D01*
X141782714Y-86043154D01*
X141875721Y-86075698D01*
X141967935Y-86110307D01*
X141972225Y-86111085D01*
X141991053Y-86116055D01*
X141995177Y-86117498D01*
X142092498Y-86132912D01*
X142111145Y-86136296D01*
X142189410Y-86150500D01*
X142189412Y-86150500D01*
X142193781Y-86150500D01*
X142213179Y-86152026D01*
X142217500Y-86152711D01*
X142229082Y-86152451D01*
X142296546Y-86170626D01*
X142343475Y-86222390D01*
X142354968Y-86291308D01*
X142327377Y-86355499D01*
X142304756Y-86376734D01*
X142300401Y-86379898D01*
X142295515Y-86383108D01*
X142255405Y-86406829D01*
X142241241Y-86420994D01*
X142226449Y-86433628D01*
X142210238Y-86445405D01*
X142180532Y-86481312D01*
X142176600Y-86485634D01*
X141921211Y-86741023D01*
X141908948Y-86750848D01*
X141909131Y-86751070D01*
X141903120Y-86756041D01*
X141855771Y-86806463D01*
X141834889Y-86827345D01*
X141834877Y-86827358D01*
X141830621Y-86832843D01*
X141826837Y-86837273D01*
X141794937Y-86871244D01*
X141794936Y-86871246D01*
X141785284Y-86888802D01*
X141774610Y-86905052D01*
X141762329Y-86920887D01*
X141762324Y-86920894D01*
X141743815Y-86963664D01*
X141741245Y-86968910D01*
X141718803Y-87009732D01*
X141713822Y-87029133D01*
X141707521Y-87047536D01*
X141699562Y-87065928D01*
X141699561Y-87065931D01*
X141692271Y-87111953D01*
X141691087Y-87117672D01*
X141679501Y-87162798D01*
X141679500Y-87162808D01*
X141679500Y-87182842D01*
X141677973Y-87202241D01*
X141674840Y-87222020D01*
X141674840Y-87222021D01*
X141679225Y-87268409D01*
X141679500Y-87274247D01*
X141679500Y-90784546D01*
X141659815Y-90851585D01*
X141643181Y-90872227D01*
X131946208Y-100569199D01*
X131933951Y-100579020D01*
X131934134Y-100579241D01*
X131928123Y-100584213D01*
X131880772Y-100634636D01*
X131859889Y-100655519D01*
X131859877Y-100655532D01*
X131855621Y-100661017D01*
X131851837Y-100665447D01*
X131819937Y-100699418D01*
X131819936Y-100699420D01*
X131810284Y-100716976D01*
X131799610Y-100733226D01*
X131787329Y-100749061D01*
X131787324Y-100749068D01*
X131768815Y-100791838D01*
X131766245Y-100797084D01*
X131743803Y-100837906D01*
X131738822Y-100857307D01*
X131732521Y-100875710D01*
X131724562Y-100894102D01*
X131724561Y-100894105D01*
X131717271Y-100940127D01*
X131716087Y-100945846D01*
X131704501Y-100990972D01*
X131704500Y-100990982D01*
X131704500Y-101011016D01*
X131702973Y-101030416D01*
X131699839Y-101050194D01*
X131704224Y-101096580D01*
X131704499Y-101102417D01*
X131704499Y-101324773D01*
X131684814Y-101391812D01*
X131651623Y-101426348D01*
X131458594Y-101561508D01*
X131291508Y-101728594D01*
X131161269Y-101914595D01*
X131106692Y-101958219D01*
X131037193Y-101965412D01*
X130974839Y-101933890D01*
X130958119Y-101914594D01*
X130828113Y-101728926D01*
X130828108Y-101728920D01*
X130661082Y-101561894D01*
X130467578Y-101426399D01*
X130253492Y-101326570D01*
X130253486Y-101326567D01*
X130040000Y-101269364D01*
X130040000Y-102164498D01*
X129932315Y-102115320D01*
X129825763Y-102100000D01*
X129754237Y-102100000D01*
X129647685Y-102115320D01*
X129539999Y-102164498D01*
X129539999Y-101269364D01*
X129539998Y-101269364D01*
X129326505Y-101326570D01*
X129112422Y-101426399D01*
X129112420Y-101426400D01*
X128918926Y-101561886D01*
X128796865Y-101683947D01*
X128735542Y-101717431D01*
X128665850Y-101712447D01*
X128609917Y-101670575D01*
X128593002Y-101639598D01*
X128543797Y-101507671D01*
X128543793Y-101507664D01*
X128457547Y-101392455D01*
X128457544Y-101392452D01*
X128342335Y-101306206D01*
X128342328Y-101306202D01*
X128207482Y-101255908D01*
X128207483Y-101255908D01*
X128147883Y-101249501D01*
X128147881Y-101249500D01*
X128147873Y-101249500D01*
X128147864Y-101249500D01*
X126352129Y-101249500D01*
X126352123Y-101249501D01*
X126292516Y-101255908D01*
X126157671Y-101306202D01*
X126157664Y-101306206D01*
X126042455Y-101392452D01*
X126042452Y-101392455D01*
X125956206Y-101507664D01*
X125956202Y-101507671D01*
X125905908Y-101642517D01*
X125899501Y-101702116D01*
X125899500Y-101702135D01*
X125899500Y-103497870D01*
X125899501Y-103497876D01*
X125905908Y-103557483D01*
X125956202Y-103692328D01*
X125956206Y-103692335D01*
X126042452Y-103807544D01*
X126042455Y-103807547D01*
X126157664Y-103893793D01*
X126157671Y-103893797D01*
X126292517Y-103944091D01*
X126292516Y-103944091D01*
X126299444Y-103944835D01*
X126352127Y-103950500D01*
X128147872Y-103950499D01*
X128207483Y-103944091D01*
X128342331Y-103893796D01*
X128457546Y-103807546D01*
X128543796Y-103692331D01*
X128593002Y-103560401D01*
X128634872Y-103504468D01*
X128700337Y-103480050D01*
X128768610Y-103494901D01*
X128796865Y-103516053D01*
X128918917Y-103638105D01*
X129112421Y-103773600D01*
X129326507Y-103873429D01*
X129326516Y-103873433D01*
X129539998Y-103930635D01*
X129539999Y-103930634D01*
X129539999Y-103035501D01*
X129647685Y-103084680D01*
X129754237Y-103100000D01*
X129825763Y-103100000D01*
X129932315Y-103084680D01*
X130040000Y-103035501D01*
X130040000Y-103930633D01*
X130253483Y-103873433D01*
X130253492Y-103873429D01*
X130467578Y-103773600D01*
X130661082Y-103638105D01*
X130828105Y-103471082D01*
X130958119Y-103285405D01*
X131012696Y-103241781D01*
X131082195Y-103234588D01*
X131144549Y-103266110D01*
X131161269Y-103285405D01*
X131291505Y-103471401D01*
X131458599Y-103638495D01*
X131555384Y-103706264D01*
X131652165Y-103774032D01*
X131652167Y-103774033D01*
X131652170Y-103774035D01*
X131866337Y-103873903D01*
X132094592Y-103935063D01*
X132271034Y-103950500D01*
X132329999Y-103955659D01*
X132330000Y-103955659D01*
X132330001Y-103955659D01*
X132388966Y-103950500D01*
X132565408Y-103935063D01*
X132793663Y-103873903D01*
X133007830Y-103774035D01*
X133201401Y-103638495D01*
X133368495Y-103471401D01*
X133498426Y-103285841D01*
X133553002Y-103242217D01*
X133622500Y-103235023D01*
X133684855Y-103266546D01*
X133701575Y-103285842D01*
X133831281Y-103471082D01*
X133831505Y-103471401D01*
X133998599Y-103638495D01*
X134095384Y-103706264D01*
X134192165Y-103774032D01*
X134192167Y-103774033D01*
X134192170Y-103774035D01*
X134406337Y-103873903D01*
X134634592Y-103935063D01*
X134811034Y-103950500D01*
X134869999Y-103955659D01*
X134870000Y-103955659D01*
X134870001Y-103955659D01*
X134928966Y-103950500D01*
X135105408Y-103935063D01*
X135333663Y-103873903D01*
X135547830Y-103774035D01*
X135741401Y-103638495D01*
X135908495Y-103471401D01*
X136038426Y-103285840D01*
X136093001Y-103242217D01*
X136162499Y-103235023D01*
X136224854Y-103266546D01*
X136241574Y-103285841D01*
X136371505Y-103471401D01*
X136538599Y-103638495D01*
X136635384Y-103706264D01*
X136732165Y-103774032D01*
X136732167Y-103774033D01*
X136732170Y-103774035D01*
X136946337Y-103873903D01*
X137174592Y-103935063D01*
X137351034Y-103950500D01*
X137409999Y-103955659D01*
X137410000Y-103955659D01*
X137410001Y-103955659D01*
X137468966Y-103950500D01*
X137645408Y-103935063D01*
X137873663Y-103873903D01*
X137948862Y-103838836D01*
X138017938Y-103828345D01*
X138081722Y-103856864D01*
X138088947Y-103863538D01*
X138454197Y-104228788D01*
X138464022Y-104241051D01*
X138464243Y-104240869D01*
X138469214Y-104246878D01*
X138490043Y-104266437D01*
X138519635Y-104294226D01*
X138540529Y-104315120D01*
X138546011Y-104319373D01*
X138550443Y-104323157D01*
X138584418Y-104355062D01*
X138601976Y-104364714D01*
X138618233Y-104375393D01*
X138634064Y-104387673D01*
X138653737Y-104396186D01*
X138676833Y-104406182D01*
X138682077Y-104408750D01*
X138722908Y-104431197D01*
X138735523Y-104434435D01*
X138742305Y-104436177D01*
X138760719Y-104442481D01*
X138779104Y-104450438D01*
X138825157Y-104457732D01*
X138830826Y-104458906D01*
X138875981Y-104470500D01*
X138896016Y-104470500D01*
X138915413Y-104472026D01*
X138935196Y-104475160D01*
X138981583Y-104470775D01*
X138987422Y-104470500D01*
X150372257Y-104470500D01*
X150387877Y-104472224D01*
X150387904Y-104471939D01*
X150395660Y-104472671D01*
X150395667Y-104472673D01*
X150464814Y-104470500D01*
X150494350Y-104470500D01*
X150501228Y-104469630D01*
X150507041Y-104469172D01*
X150553627Y-104467709D01*
X150572869Y-104462117D01*
X150591912Y-104458174D01*
X150611792Y-104455664D01*
X150655122Y-104438507D01*
X150660646Y-104436617D01*
X150664396Y-104435527D01*
X150705390Y-104423618D01*
X150722629Y-104413422D01*
X150740103Y-104404862D01*
X150758727Y-104397488D01*
X150758727Y-104397487D01*
X150758732Y-104397486D01*
X150796449Y-104370082D01*
X150801305Y-104366892D01*
X150841420Y-104343170D01*
X150855589Y-104328999D01*
X150870379Y-104316368D01*
X150886587Y-104304594D01*
X150916299Y-104268676D01*
X150920212Y-104264376D01*
X151684588Y-103500000D01*
X154594540Y-103500000D01*
X154614326Y-103688256D01*
X154614327Y-103688259D01*
X154672818Y-103868277D01*
X154672821Y-103868284D01*
X154767467Y-104032216D01*
X154857506Y-104132214D01*
X154894129Y-104172888D01*
X155047265Y-104284148D01*
X155047270Y-104284151D01*
X155220192Y-104361142D01*
X155220197Y-104361144D01*
X155405354Y-104400500D01*
X155405355Y-104400500D01*
X155594644Y-104400500D01*
X155594646Y-104400500D01*
X155779803Y-104361144D01*
X155952730Y-104284151D01*
X155968231Y-104272889D01*
X156000862Y-104249182D01*
X156066669Y-104225702D01*
X156073747Y-104225500D01*
X170596252Y-104225500D01*
X170663291Y-104245185D01*
X170688400Y-104266526D01*
X170694126Y-104272885D01*
X170694130Y-104272889D01*
X170847265Y-104384148D01*
X170847270Y-104384151D01*
X171020192Y-104461142D01*
X171020197Y-104461144D01*
X171205354Y-104500500D01*
X171205355Y-104500500D01*
X171394644Y-104500500D01*
X171394646Y-104500500D01*
X171579803Y-104461144D01*
X171752730Y-104384151D01*
X171905871Y-104272888D01*
X172032533Y-104132216D01*
X172127179Y-103968284D01*
X172185674Y-103788256D01*
X172205460Y-103600000D01*
X172185674Y-103411744D01*
X172127179Y-103231716D01*
X172032533Y-103067784D01*
X171905871Y-102927112D01*
X171905870Y-102927111D01*
X171752734Y-102815851D01*
X171752729Y-102815848D01*
X171579807Y-102738857D01*
X171579802Y-102738855D01*
X171434001Y-102707865D01*
X171394646Y-102699500D01*
X171205354Y-102699500D01*
X171172897Y-102706398D01*
X171020197Y-102738855D01*
X171020192Y-102738857D01*
X170847270Y-102815848D01*
X170847265Y-102815851D01*
X170694130Y-102927110D01*
X170694126Y-102927114D01*
X170688400Y-102933474D01*
X170628913Y-102970121D01*
X170596252Y-102974500D01*
X166463339Y-102974500D01*
X166396300Y-102954815D01*
X166350545Y-102902011D01*
X166340601Y-102832853D01*
X166345408Y-102812182D01*
X166359673Y-102768277D01*
X166385674Y-102688256D01*
X166405460Y-102500000D01*
X166385674Y-102311744D01*
X166327179Y-102131716D01*
X166287401Y-102062818D01*
X166267113Y-102027677D01*
X166250500Y-101965677D01*
X166250500Y-101563705D01*
X166251809Y-101545735D01*
X166252129Y-101543547D01*
X166255289Y-101521977D01*
X166254037Y-101507671D01*
X166250736Y-101469934D01*
X166250500Y-101464528D01*
X166250500Y-101456297D01*
X166250500Y-101456291D01*
X166246693Y-101423724D01*
X166239999Y-101347203D01*
X166239999Y-101347201D01*
X166238539Y-101340129D01*
X166238597Y-101340116D01*
X166236965Y-101332757D01*
X166236906Y-101332772D01*
X166235242Y-101325753D01*
X166235241Y-101325745D01*
X166208974Y-101253576D01*
X166184814Y-101180666D01*
X166184809Y-101180659D01*
X166181760Y-101174118D01*
X166181815Y-101174091D01*
X166178533Y-101167313D01*
X166178480Y-101167340D01*
X166175235Y-101160880D01*
X166133028Y-101096708D01*
X166118336Y-101072888D01*
X166092712Y-101031345D01*
X166092711Y-101031344D01*
X166092710Y-101031342D01*
X166088234Y-101025682D01*
X166088281Y-101025644D01*
X166083519Y-101019799D01*
X166083474Y-101019838D01*
X166078834Y-101014309D01*
X166078832Y-101014307D01*
X166078830Y-101014304D01*
X166048061Y-100985275D01*
X166022966Y-100961598D01*
X165575729Y-100514361D01*
X165563949Y-100500730D01*
X165554017Y-100487389D01*
X165549612Y-100481472D01*
X165549610Y-100481470D01*
X165509587Y-100447886D01*
X165505612Y-100444244D01*
X165502690Y-100441322D01*
X165499780Y-100438411D01*
X165474040Y-100418059D01*
X165424878Y-100376807D01*
X165415214Y-100368698D01*
X165415213Y-100368697D01*
X165415209Y-100368694D01*
X165409180Y-100364729D01*
X165409212Y-100364680D01*
X165402853Y-100360628D01*
X165402822Y-100360679D01*
X165396680Y-100356891D01*
X165396678Y-100356890D01*
X165396677Y-100356889D01*
X165357474Y-100338608D01*
X165327058Y-100324424D01*
X165292894Y-100307267D01*
X165258433Y-100289960D01*
X165258431Y-100289959D01*
X165258430Y-100289959D01*
X165251645Y-100287489D01*
X165251665Y-100287433D01*
X165244549Y-100284959D01*
X165244531Y-100285015D01*
X165237671Y-100282742D01*
X165209841Y-100276996D01*
X165162434Y-100267207D01*
X165113472Y-100255603D01*
X165087719Y-100249499D01*
X165080547Y-100248661D01*
X165080553Y-100248601D01*
X165073055Y-100247835D01*
X165073050Y-100247895D01*
X165065860Y-100247265D01*
X164989083Y-100249500D01*
X161039337Y-100249500D01*
X160972298Y-100229815D01*
X160966452Y-100225818D01*
X160952734Y-100215851D01*
X160952729Y-100215848D01*
X160779807Y-100138857D01*
X160779802Y-100138855D01*
X160634000Y-100107865D01*
X160594646Y-100099500D01*
X160405354Y-100099500D01*
X160405352Y-100099500D01*
X160275280Y-100127147D01*
X160205613Y-100121831D01*
X160149880Y-100079693D01*
X160125775Y-100014113D01*
X160125500Y-100005857D01*
X160125500Y-98210452D01*
X160145185Y-98143413D01*
X160161819Y-98122771D01*
X161247772Y-97036819D01*
X161309095Y-97003334D01*
X161335453Y-97000500D01*
X161394644Y-97000500D01*
X161394646Y-97000500D01*
X161579803Y-96961144D01*
X161752730Y-96884151D01*
X161905871Y-96772888D01*
X162032533Y-96632216D01*
X162127179Y-96468284D01*
X162185674Y-96288256D01*
X162205460Y-96100000D01*
X162185674Y-95911744D01*
X162127179Y-95731716D01*
X162032533Y-95567784D01*
X161905871Y-95427112D01*
X161868560Y-95400004D01*
X161752734Y-95315851D01*
X161752729Y-95315848D01*
X161579807Y-95238857D01*
X161579802Y-95238855D01*
X161434000Y-95207865D01*
X161394646Y-95199500D01*
X161205354Y-95199500D01*
X161172897Y-95206398D01*
X161020197Y-95238855D01*
X161020192Y-95238857D01*
X160847270Y-95315848D01*
X160847265Y-95315851D01*
X160694129Y-95427111D01*
X160567466Y-95567785D01*
X160472821Y-95731715D01*
X160472818Y-95731722D01*
X160417979Y-95900500D01*
X160414326Y-95911744D01*
X160398285Y-96064365D01*
X160396679Y-96079649D01*
X160370094Y-96144263D01*
X160361039Y-96154368D01*
X159116208Y-97399199D01*
X159103951Y-97409020D01*
X159104134Y-97409241D01*
X159098123Y-97414213D01*
X159050772Y-97464636D01*
X159029889Y-97485519D01*
X159029877Y-97485532D01*
X159025621Y-97491017D01*
X159021837Y-97495447D01*
X158989937Y-97529418D01*
X158989936Y-97529420D01*
X158980284Y-97546976D01*
X158969610Y-97563226D01*
X158957329Y-97579061D01*
X158957324Y-97579068D01*
X158938815Y-97621838D01*
X158936245Y-97627084D01*
X158913803Y-97667906D01*
X158908822Y-97687307D01*
X158902521Y-97705710D01*
X158894562Y-97724102D01*
X158894561Y-97724105D01*
X158887271Y-97770127D01*
X158886087Y-97775846D01*
X158874501Y-97820972D01*
X158874500Y-97820982D01*
X158874500Y-97841016D01*
X158872973Y-97860415D01*
X158869840Y-97880194D01*
X158869840Y-97880195D01*
X158874225Y-97926583D01*
X158874500Y-97932421D01*
X158874500Y-101701312D01*
X158854815Y-101768351D01*
X158842650Y-101784284D01*
X158767466Y-101867784D01*
X158672821Y-102031715D01*
X158672818Y-102031722D01*
X158626249Y-102175048D01*
X158614326Y-102211744D01*
X158594540Y-102400000D01*
X158614326Y-102588256D01*
X158614327Y-102588259D01*
X158672818Y-102768277D01*
X158672821Y-102768284D01*
X158684493Y-102788500D01*
X158700966Y-102856400D01*
X158678113Y-102922427D01*
X158623192Y-102965618D01*
X158577106Y-102974500D01*
X156293788Y-102974500D01*
X156226749Y-102954815D01*
X156201638Y-102933472D01*
X156199230Y-102930798D01*
X156105871Y-102827112D01*
X156090369Y-102815849D01*
X155952734Y-102715851D01*
X155952729Y-102715848D01*
X155779807Y-102638857D01*
X155779802Y-102638855D01*
X155615003Y-102603827D01*
X155594646Y-102599500D01*
X155405354Y-102599500D01*
X155384997Y-102603827D01*
X155220197Y-102638855D01*
X155220192Y-102638857D01*
X155047270Y-102715848D01*
X155047265Y-102715851D01*
X154894129Y-102827111D01*
X154767466Y-102967785D01*
X154672821Y-103131715D01*
X154672818Y-103131722D01*
X154625345Y-103277830D01*
X154614326Y-103311744D01*
X154597579Y-103471082D01*
X154594764Y-103497873D01*
X154594540Y-103500000D01*
X151684588Y-103500000D01*
X159783788Y-95400801D01*
X159796042Y-95390986D01*
X159795859Y-95390764D01*
X159801866Y-95385792D01*
X159801877Y-95385786D01*
X159832775Y-95352882D01*
X159849227Y-95335364D01*
X159859671Y-95324918D01*
X159870120Y-95314471D01*
X159874379Y-95308978D01*
X159878152Y-95304561D01*
X159910062Y-95270582D01*
X159919713Y-95253024D01*
X159930396Y-95236761D01*
X159942673Y-95220936D01*
X159961185Y-95178153D01*
X159963738Y-95172941D01*
X159986197Y-95132092D01*
X159991180Y-95112680D01*
X159997481Y-95094280D01*
X160005437Y-95075896D01*
X160012729Y-95029852D01*
X160013906Y-95024171D01*
X160025500Y-94979019D01*
X160025500Y-94958982D01*
X160027027Y-94939582D01*
X160030160Y-94919804D01*
X160025775Y-94873415D01*
X160025500Y-94867577D01*
X160025500Y-92098687D01*
X160045185Y-92031648D01*
X160057350Y-92015715D01*
X160075891Y-91995122D01*
X160132533Y-91932216D01*
X160227179Y-91768284D01*
X160285674Y-91588256D01*
X160299787Y-91453976D01*
X160326369Y-91389367D01*
X160383666Y-91349381D01*
X160453485Y-91346721D01*
X160510787Y-91379261D01*
X161863642Y-92732116D01*
X161868279Y-92737304D01*
X161892492Y-92767666D01*
X161943967Y-92812639D01*
X161947000Y-92815474D01*
X161955470Y-92823944D01*
X161987813Y-92850946D01*
X161987814Y-92850947D01*
X162062004Y-92915765D01*
X162065750Y-92918003D01*
X162081624Y-92929265D01*
X162084981Y-92932068D01*
X162170659Y-92980683D01*
X162255236Y-93031215D01*
X162259327Y-93032750D01*
X162276955Y-93040996D01*
X162280755Y-93043153D01*
X162373746Y-93075692D01*
X162465976Y-93110307D01*
X162468565Y-93110776D01*
X162470274Y-93111087D01*
X162489089Y-93116053D01*
X162493217Y-93117498D01*
X162590526Y-93132910D01*
X162590527Y-93132910D01*
X162687450Y-93150500D01*
X162687453Y-93150500D01*
X162691828Y-93150500D01*
X162711231Y-93152028D01*
X162712938Y-93152297D01*
X162715540Y-93152710D01*
X162814002Y-93150500D01*
X174798953Y-93150500D01*
X174865992Y-93170185D01*
X174883290Y-93183598D01*
X174936783Y-93233232D01*
X175147366Y-93376805D01*
X175147371Y-93376807D01*
X175147372Y-93376808D01*
X175147373Y-93376809D01*
X175269328Y-93435538D01*
X175376992Y-93487387D01*
X175376993Y-93487387D01*
X175376996Y-93487389D01*
X175483360Y-93520197D01*
X175520029Y-93531509D01*
X175578288Y-93570080D01*
X175606446Y-93634024D01*
X175595562Y-93703041D01*
X175549093Y-93755218D01*
X175520029Y-93768491D01*
X175376992Y-93812612D01*
X175147373Y-93923190D01*
X175147372Y-93923191D01*
X174936782Y-94066768D01*
X174749952Y-94240121D01*
X174749950Y-94240123D01*
X174591041Y-94439388D01*
X174463608Y-94660109D01*
X174370492Y-94897362D01*
X174370490Y-94897369D01*
X174313777Y-95145845D01*
X174294732Y-95399995D01*
X174294732Y-95400004D01*
X174313777Y-95654154D01*
X174359740Y-95855532D01*
X174370492Y-95902637D01*
X174459468Y-96129343D01*
X174463608Y-96139890D01*
X174474756Y-96159199D01*
X174591041Y-96360612D01*
X174749950Y-96559877D01*
X174936783Y-96733232D01*
X175147366Y-96876805D01*
X175147371Y-96876807D01*
X175147372Y-96876808D01*
X175147373Y-96876809D01*
X175269328Y-96935538D01*
X175376992Y-96987387D01*
X175376993Y-96987387D01*
X175376996Y-96987389D01*
X175483360Y-97020197D01*
X175520029Y-97031509D01*
X175578288Y-97070080D01*
X175606446Y-97134024D01*
X175595562Y-97203041D01*
X175549093Y-97255218D01*
X175520029Y-97268491D01*
X175376992Y-97312612D01*
X175147373Y-97423190D01*
X175147372Y-97423191D01*
X174936782Y-97566768D01*
X174749952Y-97740121D01*
X174749950Y-97740123D01*
X174591041Y-97939388D01*
X174463608Y-98160109D01*
X174370492Y-98397362D01*
X174370490Y-98397369D01*
X174313777Y-98645845D01*
X174294732Y-98899995D01*
X174294732Y-98900004D01*
X174313777Y-99154154D01*
X174347065Y-99300000D01*
X174370492Y-99402637D01*
X174463607Y-99639888D01*
X174591041Y-99860612D01*
X174749950Y-100059877D01*
X174936783Y-100233232D01*
X175147366Y-100376805D01*
X175147369Y-100376806D01*
X175147370Y-100376807D01*
X175329010Y-100464280D01*
X175380869Y-100511102D01*
X175399182Y-100578529D01*
X175378134Y-100645153D01*
X175324408Y-100689822D01*
X175275208Y-100700000D01*
X174752155Y-100700000D01*
X174692627Y-100706401D01*
X174692620Y-100706403D01*
X174557913Y-100756645D01*
X174557906Y-100756649D01*
X174442812Y-100842809D01*
X174442809Y-100842812D01*
X174356649Y-100957906D01*
X174356645Y-100957913D01*
X174306403Y-101092620D01*
X174306401Y-101092627D01*
X174300000Y-101152155D01*
X174300000Y-102150000D01*
X175454118Y-102150000D01*
X175415444Y-102243369D01*
X175394823Y-102400000D01*
X175415444Y-102556631D01*
X175454118Y-102650000D01*
X174300000Y-102650000D01*
X174300000Y-103647844D01*
X174306401Y-103707372D01*
X174306403Y-103707379D01*
X174356645Y-103842086D01*
X174356649Y-103842093D01*
X174442809Y-103957187D01*
X174442812Y-103957190D01*
X174557906Y-104043350D01*
X174557913Y-104043354D01*
X174692620Y-104093596D01*
X174692627Y-104093598D01*
X174752155Y-104099999D01*
X174752172Y-104100000D01*
X175750000Y-104100000D01*
X175750000Y-102945881D01*
X175843369Y-102984556D01*
X175960677Y-103000000D01*
X176039323Y-103000000D01*
X176156631Y-102984556D01*
X176249999Y-102945881D01*
X176250000Y-104100000D01*
X177247828Y-104100000D01*
X177247844Y-104099999D01*
X177307372Y-104093598D01*
X177307379Y-104093596D01*
X177442086Y-104043354D01*
X177442093Y-104043350D01*
X177557187Y-103957190D01*
X177557190Y-103957187D01*
X177643350Y-103842093D01*
X177643354Y-103842086D01*
X177693596Y-103707379D01*
X177693598Y-103707372D01*
X177699999Y-103647844D01*
X177700000Y-103647827D01*
X177700000Y-102650000D01*
X176545882Y-102650000D01*
X176584556Y-102556631D01*
X176605177Y-102400000D01*
X176584556Y-102243369D01*
X176545882Y-102150000D01*
X177700000Y-102150000D01*
X177700000Y-101152172D01*
X177699999Y-101152155D01*
X177693598Y-101092627D01*
X177693596Y-101092620D01*
X177643354Y-100957913D01*
X177643350Y-100957906D01*
X177557190Y-100842812D01*
X177557187Y-100842809D01*
X177442093Y-100756649D01*
X177442086Y-100756645D01*
X177307379Y-100706403D01*
X177307372Y-100706401D01*
X177247844Y-100700000D01*
X176724792Y-100700000D01*
X176657753Y-100680315D01*
X176611998Y-100627511D01*
X176602054Y-100558353D01*
X176631079Y-100494797D01*
X176670990Y-100464280D01*
X176712616Y-100444234D01*
X176852634Y-100376805D01*
X177063217Y-100233232D01*
X177250050Y-100059877D01*
X177408959Y-99860612D01*
X177536393Y-99639888D01*
X177629508Y-99402637D01*
X177686222Y-99154157D01*
X177705268Y-98900000D01*
X177705267Y-98899993D01*
X177686222Y-98645845D01*
X177629509Y-98397369D01*
X177629508Y-98397363D01*
X177536393Y-98160112D01*
X177408959Y-97939388D01*
X177250050Y-97740123D01*
X177063217Y-97566768D01*
X176852634Y-97423195D01*
X176852630Y-97423193D01*
X176852627Y-97423191D01*
X176852626Y-97423190D01*
X176623006Y-97312612D01*
X176623008Y-97312612D01*
X176479970Y-97268491D01*
X176421711Y-97229921D01*
X176393553Y-97165976D01*
X176404437Y-97096959D01*
X176450906Y-97044782D01*
X176479970Y-97031509D01*
X176623004Y-96987389D01*
X176852634Y-96876805D01*
X177063217Y-96733232D01*
X177250050Y-96559877D01*
X177408959Y-96360612D01*
X177536393Y-96139888D01*
X177629508Y-95902637D01*
X177686222Y-95654157D01*
X177696252Y-95520315D01*
X177705268Y-95400004D01*
X177705268Y-95399995D01*
X177688644Y-95178169D01*
X177686222Y-95145843D01*
X177629508Y-94897363D01*
X177536393Y-94660112D01*
X177408959Y-94439388D01*
X177250050Y-94240123D01*
X177063217Y-94066768D01*
X176852634Y-93923195D01*
X176852630Y-93923193D01*
X176852627Y-93923191D01*
X176852626Y-93923190D01*
X176623006Y-93812612D01*
X176623008Y-93812612D01*
X176479970Y-93768491D01*
X176421711Y-93729921D01*
X176393553Y-93665976D01*
X176404437Y-93596959D01*
X176450906Y-93544782D01*
X176479970Y-93531509D01*
X176623004Y-93487389D01*
X176852634Y-93376805D01*
X177063217Y-93233232D01*
X177250050Y-93059877D01*
X177408959Y-92860612D01*
X177536393Y-92639888D01*
X177629508Y-92402637D01*
X177686222Y-92154157D01*
X177705268Y-91900000D01*
X177704478Y-91889460D01*
X177686222Y-91645845D01*
X177686071Y-91645185D01*
X177629508Y-91397363D01*
X177536393Y-91160112D01*
X177408959Y-90939388D01*
X177250050Y-90740123D01*
X177063217Y-90566768D01*
X176852634Y-90423195D01*
X176852630Y-90423193D01*
X176852627Y-90423191D01*
X176852626Y-90423190D01*
X176623006Y-90312612D01*
X176623008Y-90312612D01*
X176479970Y-90268491D01*
X176421711Y-90229921D01*
X176393553Y-90165976D01*
X176404437Y-90096959D01*
X176450906Y-90044782D01*
X176479970Y-90031509D01*
X176623004Y-89987389D01*
X176804458Y-89900005D01*
X176852626Y-89876809D01*
X176852626Y-89876808D01*
X176852634Y-89876805D01*
X177063217Y-89733232D01*
X177250050Y-89559877D01*
X177408959Y-89360612D01*
X177536393Y-89139888D01*
X177629508Y-88902637D01*
X177686222Y-88654157D01*
X177699806Y-88472888D01*
X177705268Y-88400004D01*
X177705268Y-88399995D01*
X177687903Y-88168278D01*
X177686222Y-88145843D01*
X177629508Y-87897363D01*
X177536393Y-87660112D01*
X177408959Y-87439388D01*
X177250050Y-87240123D01*
X177063217Y-87066768D01*
X176852634Y-86923195D01*
X176852630Y-86923193D01*
X176852627Y-86923191D01*
X176852626Y-86923190D01*
X176623006Y-86812612D01*
X176623008Y-86812612D01*
X176479970Y-86768491D01*
X176421711Y-86729921D01*
X176393553Y-86665976D01*
X176404437Y-86596959D01*
X176450906Y-86544782D01*
X176479970Y-86531509D01*
X176623004Y-86487389D01*
X176839546Y-86383108D01*
X176852626Y-86376809D01*
X176852626Y-86376808D01*
X176852634Y-86376805D01*
X177063217Y-86233232D01*
X177250050Y-86059877D01*
X177408959Y-85860612D01*
X177536393Y-85639888D01*
X177629508Y-85402637D01*
X177686222Y-85154157D01*
X177705268Y-84900000D01*
X177686222Y-84645843D01*
X177629508Y-84397363D01*
X177536393Y-84160112D01*
X177408959Y-83939388D01*
X177250050Y-83740123D01*
X177063217Y-83566768D01*
X176852634Y-83423195D01*
X176852630Y-83423193D01*
X176852627Y-83423191D01*
X176852626Y-83423190D01*
X176623006Y-83312612D01*
X176623008Y-83312612D01*
X176479970Y-83268491D01*
X176421711Y-83229921D01*
X176393553Y-83165976D01*
X176404437Y-83096959D01*
X176450906Y-83044782D01*
X176479970Y-83031509D01*
X176623004Y-82987389D01*
X176814852Y-82895000D01*
X176852626Y-82876809D01*
X176852626Y-82876808D01*
X176852634Y-82876805D01*
X177063217Y-82733232D01*
X177250050Y-82559877D01*
X177408959Y-82360612D01*
X177536393Y-82139888D01*
X177629508Y-81902637D01*
X177686222Y-81654157D01*
X177705268Y-81400000D01*
X177695448Y-81268964D01*
X177686222Y-81145845D01*
X177678899Y-81113763D01*
X177629508Y-80897363D01*
X177536393Y-80660112D01*
X177408959Y-80439388D01*
X177250050Y-80240123D01*
X177063217Y-80066768D01*
X176852634Y-79923195D01*
X176852630Y-79923193D01*
X176852627Y-79923191D01*
X176852626Y-79923190D01*
X176623007Y-79812612D01*
X176524607Y-79782259D01*
X176473477Y-79751449D01*
X175934209Y-79212181D01*
X175900724Y-79150858D01*
X175905708Y-79081166D01*
X175947580Y-79025233D01*
X176013044Y-79000816D01*
X176021890Y-79000500D01*
X180975500Y-79000500D01*
X181042539Y-79020185D01*
X181088294Y-79072989D01*
X181099500Y-79124500D01*
X181099500Y-104675500D01*
X181079815Y-104742539D01*
X181027011Y-104788294D01*
X180975500Y-104799500D01*
X117024500Y-104799500D01*
X116957461Y-104779815D01*
X116911706Y-104727011D01*
X116900500Y-104675500D01*
X116900500Y-100900002D01*
X117295153Y-100900002D01*
X117314526Y-101257314D01*
X117314527Y-101257331D01*
X117372415Y-101610431D01*
X117372421Y-101610457D01*
X117468147Y-101955232D01*
X117468149Y-101955239D01*
X117600597Y-102287659D01*
X117600606Y-102287677D01*
X117768218Y-102603827D01*
X117969033Y-102900007D01*
X118096441Y-103050003D01*
X118096442Y-103050004D01*
X119302265Y-101844179D01*
X119465130Y-102034870D01*
X119655818Y-102197732D01*
X118447255Y-103406295D01*
X118447256Y-103406296D01*
X118460485Y-103418828D01*
X118460486Y-103418829D01*
X118745367Y-103635388D01*
X118745370Y-103635390D01*
X119051990Y-103819876D01*
X119376739Y-103970122D01*
X119376744Y-103970123D01*
X119715855Y-104084383D01*
X120065339Y-104161311D01*
X120421075Y-104199999D01*
X120421085Y-104200000D01*
X120778915Y-104200000D01*
X120778924Y-104199999D01*
X121134660Y-104161311D01*
X121484144Y-104084383D01*
X121823255Y-103970123D01*
X121823260Y-103970122D01*
X122148009Y-103819876D01*
X122454629Y-103635390D01*
X122454632Y-103635388D01*
X122739504Y-103418836D01*
X122752742Y-103406294D01*
X121544180Y-102197733D01*
X121734870Y-102034870D01*
X121897733Y-101844180D01*
X123103556Y-103050003D01*
X123230964Y-102900008D01*
X123230975Y-102899994D01*
X123431781Y-102603827D01*
X123599393Y-102287677D01*
X123599402Y-102287659D01*
X123731850Y-101955239D01*
X123731852Y-101955232D01*
X123827578Y-101610457D01*
X123827584Y-101610431D01*
X123885472Y-101257331D01*
X123885473Y-101257314D01*
X123904847Y-100900002D01*
X123904847Y-100899997D01*
X123885473Y-100542685D01*
X123885472Y-100542668D01*
X123827584Y-100189568D01*
X123827578Y-100189542D01*
X123731852Y-99844767D01*
X123731850Y-99844760D01*
X123599402Y-99512340D01*
X123599393Y-99512322D01*
X123431781Y-99196172D01*
X123230966Y-98899992D01*
X123103557Y-98749995D01*
X123103556Y-98749994D01*
X121897732Y-99955818D01*
X121734870Y-99765130D01*
X121544179Y-99602265D01*
X122752743Y-98393703D01*
X122752742Y-98393702D01*
X122739514Y-98381171D01*
X122739513Y-98381170D01*
X122454632Y-98164611D01*
X122454629Y-98164609D01*
X122148009Y-97980123D01*
X121823260Y-97829877D01*
X121823255Y-97829876D01*
X121484144Y-97715616D01*
X121134660Y-97638688D01*
X120778924Y-97600000D01*
X120421075Y-97600000D01*
X120065339Y-97638688D01*
X119715855Y-97715616D01*
X119376744Y-97829876D01*
X119376739Y-97829877D01*
X119051990Y-97980123D01*
X118745370Y-98164609D01*
X118745367Y-98164611D01*
X118460491Y-98381166D01*
X118447256Y-98393703D01*
X118447255Y-98393703D01*
X119655819Y-99602266D01*
X119465130Y-99765130D01*
X119302266Y-99955818D01*
X118096442Y-98749994D01*
X118096441Y-98749995D01*
X117969040Y-98899983D01*
X117969033Y-98899993D01*
X117768218Y-99196172D01*
X117600606Y-99512322D01*
X117600597Y-99512340D01*
X117468149Y-99844760D01*
X117468147Y-99844767D01*
X117372421Y-100189542D01*
X117372415Y-100189568D01*
X117314527Y-100542668D01*
X117314526Y-100542685D01*
X117295153Y-100899997D01*
X117295153Y-100900002D01*
X116900500Y-100900002D01*
X116900500Y-83692499D01*
X122999999Y-83692499D01*
X123000000Y-83692500D01*
X124500000Y-83692500D01*
X124500000Y-84192500D01*
X123000001Y-84192500D01*
X123000001Y-85006692D01*
X123010400Y-85138832D01*
X123065377Y-85357019D01*
X123158428Y-85561874D01*
X123158431Y-85561880D01*
X123286559Y-85746823D01*
X123286569Y-85746835D01*
X123445664Y-85905930D01*
X123445676Y-85905940D01*
X123630619Y-86034068D01*
X123630625Y-86034071D01*
X123835480Y-86127122D01*
X124053667Y-86182099D01*
X124185807Y-86192500D01*
X124749999Y-86192499D01*
X124750000Y-86192498D01*
X124750000Y-85376186D01*
X124790156Y-85401993D01*
X124928111Y-85442500D01*
X125071889Y-85442500D01*
X125209844Y-85401993D01*
X125250000Y-85376186D01*
X125250000Y-86192499D01*
X125814192Y-86192499D01*
X125946332Y-86182099D01*
X126164519Y-86127122D01*
X126369374Y-86034071D01*
X126369380Y-86034068D01*
X126554323Y-85905940D01*
X126554335Y-85905930D01*
X126713430Y-85746835D01*
X126713440Y-85746823D01*
X126841568Y-85561880D01*
X126841571Y-85561874D01*
X126934622Y-85357019D01*
X126989599Y-85138832D01*
X127000000Y-85006694D01*
X127000000Y-84192500D01*
X125500000Y-84192500D01*
X125500000Y-83692500D01*
X126999999Y-83692500D01*
X126999999Y-82878308D01*
X126989599Y-82746167D01*
X126934622Y-82527980D01*
X126841571Y-82323125D01*
X126841568Y-82323119D01*
X126713440Y-82138176D01*
X126713430Y-82138164D01*
X126554335Y-81979069D01*
X126554323Y-81979059D01*
X126369380Y-81850931D01*
X126369374Y-81850928D01*
X126164519Y-81757877D01*
X125946332Y-81702900D01*
X125814194Y-81692500D01*
X125250000Y-81692500D01*
X125250000Y-82508813D01*
X125209844Y-82483007D01*
X125071889Y-82442500D01*
X124928111Y-82442500D01*
X124790156Y-82483007D01*
X124749999Y-82508814D01*
X124749999Y-81692500D01*
X124185808Y-81692501D01*
X124053667Y-81702900D01*
X123835480Y-81757877D01*
X123630625Y-81850928D01*
X123630619Y-81850931D01*
X123445676Y-81979059D01*
X123445664Y-81979069D01*
X123286569Y-82138164D01*
X123286559Y-82138176D01*
X123158431Y-82323119D01*
X123158428Y-82323125D01*
X123065377Y-82527980D01*
X123010400Y-82746167D01*
X123000000Y-82878306D01*
X122999999Y-83692499D01*
X116900500Y-83692499D01*
X116900500Y-79124500D01*
X116920185Y-79057461D01*
X116972989Y-79011706D01*
X117024500Y-79000500D01*
X130878109Y-79000500D01*
X130945148Y-79020185D01*
G37*
%TD.AperFunction*%
%TA.AperFunction,Conductor*%
G36*
X160890039Y-81620185D02*
G01*
X160935794Y-81672989D01*
X160947000Y-81724500D01*
X160947000Y-83347870D01*
X160947001Y-83347876D01*
X160953408Y-83407483D01*
X161003702Y-83542328D01*
X161003706Y-83542335D01*
X161089952Y-83657544D01*
X161089955Y-83657547D01*
X161205164Y-83743793D01*
X161205171Y-83743797D01*
X161340017Y-83794091D01*
X161340016Y-83794091D01*
X161346944Y-83794835D01*
X161399627Y-83800500D01*
X163400372Y-83800499D01*
X163459983Y-83794091D01*
X163594831Y-83743796D01*
X163710046Y-83657546D01*
X163796296Y-83542331D01*
X163807725Y-83511687D01*
X163849594Y-83455755D01*
X163915058Y-83431336D01*
X163983331Y-83446186D01*
X164000069Y-83457167D01*
X164142552Y-83568066D01*
X164142559Y-83568070D01*
X164142561Y-83568072D01*
X164255253Y-83629058D01*
X164283916Y-83650431D01*
X166365601Y-85732116D01*
X166370238Y-85737304D01*
X166394451Y-85767666D01*
X166445926Y-85812639D01*
X166448959Y-85815474D01*
X166457430Y-85823945D01*
X166489778Y-85850951D01*
X166563963Y-85915765D01*
X166567712Y-85918005D01*
X166583581Y-85929264D01*
X166586939Y-85932067D01*
X166586942Y-85932070D01*
X166652162Y-85969076D01*
X166672641Y-85980696D01*
X166757195Y-86031215D01*
X166761285Y-86032749D01*
X166778909Y-86040995D01*
X166782708Y-86043151D01*
X166782709Y-86043151D01*
X166782714Y-86043154D01*
X166875721Y-86075698D01*
X166967935Y-86110307D01*
X166972225Y-86111085D01*
X166991053Y-86116055D01*
X166995177Y-86117498D01*
X167092498Y-86132912D01*
X167111145Y-86136296D01*
X167189410Y-86150500D01*
X167189412Y-86150500D01*
X167193781Y-86150500D01*
X167213179Y-86152026D01*
X167217500Y-86152711D01*
X167316007Y-86150500D01*
X174798953Y-86150500D01*
X174865992Y-86170185D01*
X174883290Y-86183598D01*
X174936783Y-86233232D01*
X175147366Y-86376805D01*
X175147371Y-86376807D01*
X175147372Y-86376808D01*
X175147373Y-86376809D01*
X175239125Y-86420994D01*
X175376992Y-86487387D01*
X175376993Y-86487387D01*
X175376996Y-86487389D01*
X175456783Y-86512000D01*
X175520029Y-86531509D01*
X175578288Y-86570080D01*
X175606446Y-86634024D01*
X175595562Y-86703041D01*
X175549093Y-86755218D01*
X175520029Y-86768491D01*
X175376992Y-86812612D01*
X175147373Y-86923190D01*
X175147372Y-86923191D01*
X174936782Y-87066768D01*
X174915286Y-87086714D01*
X174883292Y-87116399D01*
X174820762Y-87147567D01*
X174798953Y-87149500D01*
X162819336Y-87149500D01*
X162752297Y-87129815D01*
X162731655Y-87113181D01*
X159136356Y-83517882D01*
X159131719Y-83512693D01*
X159107507Y-83482332D01*
X159056031Y-83437359D01*
X159052997Y-83434523D01*
X159044529Y-83426055D01*
X159041103Y-83423195D01*
X159012181Y-83399049D01*
X158938002Y-83334240D01*
X158937997Y-83334236D01*
X158937996Y-83334235D01*
X158934241Y-83331991D01*
X158918373Y-83320732D01*
X158915019Y-83317932D01*
X158915018Y-83317931D01*
X158915013Y-83317927D01*
X158847614Y-83279685D01*
X158829340Y-83269316D01*
X158744764Y-83218785D01*
X158744761Y-83218783D01*
X158740669Y-83217248D01*
X158723044Y-83209002D01*
X158719245Y-83206846D01*
X158626253Y-83174307D01*
X158534029Y-83139694D01*
X158534019Y-83139691D01*
X158529723Y-83138912D01*
X158510918Y-83133949D01*
X158506784Y-83132502D01*
X158506779Y-83132501D01*
X158409472Y-83117089D01*
X158312550Y-83099500D01*
X158312547Y-83099500D01*
X158308172Y-83099500D01*
X158288769Y-83097972D01*
X158284460Y-83097289D01*
X158185978Y-83099500D01*
X156505768Y-83099500D01*
X156438729Y-83079815D01*
X156392974Y-83027011D01*
X156383030Y-82957853D01*
X156392212Y-82925690D01*
X156418508Y-82865739D01*
X156477599Y-82632395D01*
X156477599Y-82632394D01*
X156480697Y-82595000D01*
X155534852Y-82595000D01*
X155583559Y-82457953D01*
X155593877Y-82307114D01*
X155563116Y-82159085D01*
X155529910Y-82095000D01*
X156480697Y-82095000D01*
X156477599Y-82057605D01*
X156477599Y-82057604D01*
X156418508Y-81824259D01*
X156418506Y-81824255D01*
X156396599Y-81774309D01*
X156387696Y-81705009D01*
X156417674Y-81641897D01*
X156477013Y-81605011D01*
X156510155Y-81600500D01*
X160823000Y-81600500D01*
X160890039Y-81620185D01*
G37*
%TD.AperFunction*%
%TA.AperFunction,Conductor*%
G36*
X148450039Y-81620185D02*
G01*
X148495794Y-81672989D01*
X148507000Y-81724500D01*
X148507000Y-83392870D01*
X148507001Y-83392876D01*
X148513409Y-83452484D01*
X148524480Y-83482168D01*
X148529464Y-83551859D01*
X148495978Y-83613182D01*
X148434655Y-83646666D01*
X148408298Y-83649500D01*
X143739787Y-83649500D01*
X143672748Y-83629815D01*
X143626993Y-83577011D01*
X143617049Y-83507853D01*
X143646074Y-83444297D01*
X143648558Y-83441517D01*
X143790148Y-83287710D01*
X143790156Y-83287699D01*
X143921813Y-83086184D01*
X144018508Y-82865740D01*
X144077599Y-82632395D01*
X144077599Y-82632394D01*
X144080697Y-82595000D01*
X143134852Y-82595000D01*
X143183559Y-82457953D01*
X143193877Y-82307114D01*
X143163116Y-82159085D01*
X143129910Y-82095000D01*
X144080697Y-82095000D01*
X144077599Y-82057605D01*
X144077599Y-82057604D01*
X144018508Y-81824259D01*
X144018506Y-81824255D01*
X143996599Y-81774309D01*
X143987696Y-81705009D01*
X144017674Y-81641897D01*
X144077013Y-81605011D01*
X144110155Y-81600500D01*
X148383000Y-81600500D01*
X148450039Y-81620185D01*
G37*
%TD.AperFunction*%
%TA.AperFunction,Conductor*%
G36*
X174094149Y-81620185D02*
G01*
X174114791Y-81636819D01*
X174345660Y-81867688D01*
X174373407Y-81910066D01*
X174418455Y-82024844D01*
X174462930Y-82138164D01*
X174463608Y-82139890D01*
X174466344Y-82144629D01*
X174591041Y-82360612D01*
X174749950Y-82559877D01*
X174936783Y-82733232D01*
X175147366Y-82876805D01*
X175147371Y-82876807D01*
X175147372Y-82876808D01*
X175147373Y-82876809D01*
X175209520Y-82906737D01*
X175376992Y-82987387D01*
X175376993Y-82987387D01*
X175376996Y-82987389D01*
X175483360Y-83020197D01*
X175520029Y-83031509D01*
X175578288Y-83070080D01*
X175606446Y-83134024D01*
X175595562Y-83203041D01*
X175549093Y-83255218D01*
X175520029Y-83268491D01*
X175376992Y-83312612D01*
X175147373Y-83423190D01*
X175147372Y-83423191D01*
X175147366Y-83423194D01*
X175147366Y-83423195D01*
X175143171Y-83426055D01*
X174936782Y-83566768D01*
X174914621Y-83587331D01*
X174883292Y-83616399D01*
X174820762Y-83647567D01*
X174798953Y-83649500D01*
X168533205Y-83649500D01*
X168466166Y-83629815D01*
X168420411Y-83577011D01*
X168410467Y-83507853D01*
X168439492Y-83444297D01*
X168457044Y-83427646D01*
X168467118Y-83419804D01*
X168467126Y-83419797D01*
X168630148Y-83242710D01*
X168630156Y-83242699D01*
X168761813Y-83041184D01*
X168858508Y-82820740D01*
X168917599Y-82587395D01*
X168917599Y-82587394D01*
X168920697Y-82550000D01*
X167974852Y-82550000D01*
X168023559Y-82412953D01*
X168033877Y-82262114D01*
X168003116Y-82114085D01*
X167969910Y-82050000D01*
X168920697Y-82050000D01*
X168917599Y-82012605D01*
X168917599Y-82012604D01*
X168858509Y-81779262D01*
X168856338Y-81774313D01*
X168847434Y-81705013D01*
X168877409Y-81641900D01*
X168936747Y-81605012D01*
X168969893Y-81600500D01*
X174027110Y-81600500D01*
X174094149Y-81620185D01*
G37*
%TD.AperFunction*%
%TD*%
M02*
