M48
; DRILL file {KiCad 7.0.6} date Tue Apr 30 22:33:29 2024
; FORMAT={-:-/ absolute / inch / decimal}
; #@! TF.CreationDate,2024-04-30T22:33:29+02:00
; #@! TF.GenerationSoftware,Kicad,Pcbnew,7.0.6
; #@! TF.FileFunction,MixedPlating,1,2
FMAT,2
INCH
; #@! TA.AperFunction,Plated,PTH,ViaDrill
T1C0.0157
; #@! TA.AperFunction,Plated,PTH,ComponentDrill
T2C0.0394
; #@! TA.AperFunction,Plated,PTH,ComponentDrill
T3C0.0433
; #@! TA.AperFunction,Plated,PTH,ComponentDrill
T4C0.0472
; #@! TA.AperFunction,Plated,PTH,ComponentDrill
T5C0.1260
%
G90
G05
T1
X5.0866Y-3.7126
X5.2559Y-3.8504
X5.9646Y-3.4567
X6.0118Y-3.9528
X6.0433Y-3.4646
X6.122Y-4.0748
X6.1299Y-3.5827
X6.2756Y-3.5984
X6.2795Y-4.0315
X6.3189Y-3.9764
X6.3504Y-3.7835
X6.5157Y-4.0354
X6.7441Y-4.0787
T2
X5.0098Y-4.0394
X5.1098Y-4.0394
X5.2098Y-4.0394
X5.3098Y-4.0394
X5.4098Y-4.0394
X5.5098Y-4.0394
T3
X5.4157Y-3.2419
X5.5157Y-3.2419
X5.6157Y-3.2419
X5.9039Y-3.2419
X6.0039Y-3.2419
X6.1039Y-3.2419
X6.3937Y-3.2402
X6.4937Y-3.2402
X6.5937Y-3.2402
T4
X6.9291Y-3.2047
X6.9291Y-3.3425
X6.9291Y-3.4803
X6.9291Y-3.6181
X6.9291Y-3.7559
X6.9291Y-3.8937
X6.9291Y-4.0315
T5
X4.748Y-3.6457
X4.748Y-3.9724
T2
G00X4.9213Y-3.2655
M15
G01X4.9213Y-3.3442
M16
G05
G00X5.0Y-3.4899
M15
G01X5.0787Y-3.4899
M16
G05
G00X5.1575Y-3.2655
M15
G01X5.1575Y-3.3442
M16
G05
T0
M30
